<svg version="1.1" viewBox="0.0 0.0 713.6010498687664 400.0" fill="none" stroke="none" stroke-linecap="square" stroke-miterlimit="10" xmlns:xlink="http://www.w3.org/1999/xlink" xmlns="http://www.w3.org/2000/svg"><clipPath id="p.0"><path d="m0 0l713.6011 0l0 400.0l-713.6011 0l0 -400.0z" clip-rule="nonzero"/></clipPath><g clip-path="url(#p.0)"><path fill="#000000" fill-opacity="0.0" d="m0 0l713.6011 0l0 400.0l-713.6011 0z" fill-rule="evenodd"/><path fill="#ffffff" d="m222.01833 3.7532809l270.48822 0l0 77.92126l-270.48822 0z" fill-rule="evenodd"/><path stroke="#000000" stroke-width="1.0" stroke-linejoin="round" stroke-linecap="butt" d="m222.01833 3.7532809l270.48822 0l0 77.92126l-270.48822 0z" fill-rule="evenodd"/><path fill="#000000" d="m345.8464 37.832035l1.34375 4.421875l2.15625 0l-5.40625 -17.0625l-1.828125 0l-5.5 17.0625l2.171875 0l1.359375 -4.421875l5.703125 0zm-5.109375 -1.890625l2.28125 -7.40625l2.25 7.40625l-4.53125 0zm11.355469 11.1875l2.171875 0l0 -6.09375q0.234375 0.25 0.5 0.46875q0.265625 0.21875 0.578125 0.390625q0.5 0.28125 1.125 0.4375q0.625 0.15625 1.359375 0.15625q1.1875 0 2.109375 -0.484375q0.9375 -0.5 1.578125 -1.375q0.625 -0.859375 0.953125 -2.03125q0.328125 -1.1875 0.328125 -2.546875l0 -0.25q0 -1.40625 -0.328125 -2.59375q-0.328125 -1.203125 -0.953125 -2.046875q-0.640625 -0.859375 -1.578125 -1.34375q-0.9375 -0.484375 -2.15625 -0.484375q-0.6875 0 -1.296875 0.15625q-0.59375 0.140625 -1.09375 0.421875q-0.34375 0.1875 -0.65625 0.453125q-0.296875 0.265625 -0.5625 0.59375l-0.09375 -1.390625l-1.984375 0l0 17.5625zm8.546875 -11.328125l0 0.25q0 0.921875 -0.21875 1.765625q-0.203125 0.84375 -0.625 1.5q-0.421875 0.640625 -1.078125 1.03125q-0.65625 0.375 -1.546875 0.375q-0.5625 0 -1.03125 -0.140625q-0.46875 -0.140625 -0.84375 -0.390625q-0.328125 -0.21875 -0.59375 -0.515625q-0.25 -0.3125 -0.4375 -0.65625l0 -6.109375q0.21875 -0.390625 0.5 -0.71875q0.296875 -0.328125 0.671875 -0.5625q0.34375 -0.21875 0.765625 -0.328125q0.4375 -0.125 0.9375 -0.125q0.921875 0 1.578125 0.375q0.65625 0.375 1.078125 1.015625q0.421875 0.640625 0.625 1.484375q0.21875 0.828125 0.21875 1.75zm5.8554688 11.328125l2.171875 0l0 -6.09375q0.234375 0.25 0.5 0.46875q0.265625 0.21875 0.578125 0.390625q0.5 0.28125 1.125 0.4375q0.625 0.15625 1.359375 0.15625q1.1875 0 2.109375 -0.484375q0.9375 -0.5 1.578125 -1.375q0.625 -0.859375 0.953125 -2.03125q0.328125 -1.1875 0.328125 -2.546875l0 -0.25q0 -1.40625 -0.328125 -2.59375q-0.328125 -1.203125 -0.953125 -2.046875q-0.640625 -0.859375 -1.578125 -1.34375q-0.9375 -0.484375 -2.15625 -0.484375q-0.6875 0 -1.296875 0.15625q-0.59375 0.140625 -1.09375 0.421875q-0.34375 0.1875 -0.65625 0.453125q-0.296875 0.265625 -0.5625 0.59375l-0.09375 -1.390625l-1.984375 0l0 17.5625zm8.546875 -11.328125l0 0.25q0 0.921875 -0.21875 1.765625q-0.203125 0.84375 -0.625 1.5q-0.421875 0.640625 -1.078125 1.03125q-0.65625 0.375 -1.546875 0.375q-0.5625 0 -1.03125 -0.140625q-0.46875 -0.140625 -0.84375 -0.390625q-0.328125 -0.21875 -0.59375 -0.515625q-0.25 -0.3125 -0.4375 -0.65625l0 -6.109375q0.21875 -0.390625 0.5 -0.71875q0.296875 -0.328125 0.671875 -0.5625q0.34375 -0.21875 0.765625 -0.328125q0.4375 -0.125 0.9375 -0.125q0.921875 0 1.578125 0.375q0.65625 0.375 1.078125 1.015625q0.421875 0.640625 0.625 1.484375q0.21875 0.828125 0.21875 1.75z" fill-rule="nonzero"/><path fill="#000000" d="m244.40248 51.46579l0 -1.078125l-2.828125 0l0 14.140625l2.828125 0l0 -1.09375l-1.578125 0l0 -11.96875l1.578125 0zm7.2951813 1.203125l-1.328125 0l0 1.875l-2.03125 0l0 1.03125l2.03125 0l0 4.203125q0 0.71875 0.1875 1.234375q0.1875 0.5 0.515625 0.8125q0.34375 0.3125 0.78125 0.46875q0.453125 0.140625 0.96875 0.140625q0.296875 0 0.609375 -0.03125q0.3125 -0.03125 0.59375 -0.078125q0.28125 -0.046875 0.515625 -0.125q0.234375 -0.078125 0.40625 -0.171875l-0.1875 -0.9375q-0.125 0.015625 -0.3125 0.0625q-0.1875 0.03125 -0.40625 0.078125q-0.21875 0.03125 -0.453125 0.0625q-0.21875 0.015625 -0.4375 0.015625q-0.296875 0 -0.5625 -0.0625q-0.25 -0.078125 -0.453125 -0.25q-0.203125 -0.171875 -0.328125 -0.46875q-0.109375 -0.296875 -0.109375 -0.75l0 -4.203125l2.953125 0l0 -1.03125l-2.953125 0l0 -1.875zm5.295166 5.6875l0 0.15625q0 0.828125 0.234375 1.546875q0.25 0.71875 0.703125 1.25q0.453125 0.53125 1.109375 0.828125q0.65625 0.296875 1.484375 0.296875q0.8125 0 1.453125 -0.296875q0.65625 -0.296875 1.125 -0.828125q0.4375 -0.53125 0.6875 -1.25q0.25 -0.71875 0.25 -1.546875l0 -0.15625q0 -0.84375 -0.25 -1.5625q-0.25 -0.71875 -0.6875 -1.25q-0.46875 -0.53125 -1.125 -0.828125q-0.65625 -0.3125 -1.46875 -0.3125q-0.8125 0 -1.46875 0.3125q-0.65625 0.296875 -1.109375 0.828125q-0.453125 0.53125 -0.703125 1.25q-0.234375 0.71875 -0.234375 1.5625zm1.328125 0.15625l0 -0.15625q0 -0.578125 0.125 -1.09375q0.140625 -0.515625 0.421875 -0.90625q0.265625 -0.390625 0.671875 -0.625q0.40625 -0.234375 0.96875 -0.234375q0.546875 0 0.953125 0.234375q0.421875 0.234375 0.703125 0.625q0.265625 0.390625 0.40625 0.90625q0.140625 0.515625 0.140625 1.09375l0 0.15625q0 0.5625 -0.140625 1.09375q-0.140625 0.515625 -0.40625 0.90625q-0.28125 0.390625 -0.703125 0.625q-0.40625 0.21875 -0.9375 0.21875q-0.5625 0 -0.984375 -0.21875q-0.40625 -0.234375 -0.671875 -0.625q-0.28125 -0.390625 -0.421875 -0.90625q-0.125 -0.53125 -0.125 -1.09375zm10.967072 -5.84375l-1.328125 0l0 1.875l-2.03125 0l0 1.03125l2.03125 0l0 4.203125q0 0.71875 0.1875 1.234375q0.1875 0.5 0.515625 0.8125q0.34375 0.3125 0.78125 0.46875q0.453125 0.140625 0.96875 0.140625q0.296875 0 0.609375 -0.03125q0.3125 -0.03125 0.59375 -0.078125q0.28125 -0.046875 0.515625 -0.125q0.234375 -0.078125 0.40625 -0.171875l-0.1875 -0.9375q-0.125 0.015625 -0.3125 0.0625q-0.1875 0.03125 -0.40625 0.078125q-0.21875 0.03125 -0.453125 0.0625q-0.21875 0.015625 -0.4375 0.015625q-0.296875 0 -0.5625 -0.0625q-0.25 -0.078125 -0.453125 -0.25q-0.203125 -0.171875 -0.328125 -0.46875q-0.109375 -0.296875 -0.109375 -0.75l0 -4.203125l2.953125 0l0 -1.03125l-2.953125 0l0 -1.875zm10.748291 9.625l1.390625 0l0 -0.109375q-0.140625 -0.328125 -0.21875 -0.75q-0.0625 -0.4375 -0.0625 -0.828125l0 -3.59375q0 -0.65625 -0.234375 -1.140625q-0.234375 -0.484375 -0.640625 -0.828125q-0.421875 -0.3125 -0.984375 -0.46875q-0.5625 -0.171875 -1.21875 -0.171875q-0.71875 0 -1.296875 0.203125q-0.5625 0.203125 -0.953125 0.53125q-0.40625 0.328125 -0.625 0.734375q-0.203125 0.40625 -0.203125 0.828125l1.328125 0q0 -0.25 0.109375 -0.46875q0.125 -0.234375 0.34375 -0.390625q0.203125 -0.171875 0.515625 -0.265625q0.3125 -0.09375 0.703125 -0.09375q0.421875 0 0.765625 0.109375q0.34375 0.09375 0.578125 0.296875q0.234375 0.1875 0.359375 0.46875q0.140625 0.28125 0.140625 0.640625l0 0.609375l-1.453125 0q-0.8125 0 -1.46875 0.15625q-0.640625 0.15625 -1.109375 0.46875q-0.46875 0.3125 -0.734375 0.796875q-0.25 0.484375 -0.25 1.125q0 0.484375 0.1875 0.90625q0.203125 0.40625 0.546875 0.71875q0.34375 0.296875 0.84375 0.484375q0.5 0.171875 1.109375 0.171875q0.375 0 0.71875 -0.078125q0.34375 -0.078125 0.640625 -0.21875q0.296875 -0.125 0.53125 -0.296875q0.25 -0.1875 0.453125 -0.390625q0.015625 0.25 0.0625 0.46875q0.046875 0.21875 0.125 0.375zm-2.328125 -1.015625q-0.390625 0 -0.6875 -0.09375q-0.296875 -0.09375 -0.484375 -0.28125q-0.1875 -0.171875 -0.296875 -0.40625q-0.09375 -0.25 -0.09375 -0.53125q0 -0.3125 0.109375 -0.546875q0.109375 -0.234375 0.328125 -0.40625q0.296875 -0.234375 0.8125 -0.34375q0.515625 -0.125 1.203125 -0.125l1.234375 0l0 1.5625q-0.125 0.234375 -0.328125 0.453125q-0.1875 0.203125 -0.46875 0.359375q-0.28125 0.171875 -0.625 0.265625q-0.328125 0.09375 -0.703125 0.09375zm6.2483215 -9.984375l0 1.15625l2.640625 0l0 8.703125l-2.640625 0l0 1.140625l6.484375 0l0 -1.140625l-2.53125 0l0 -9.859375l-3.953125 0zm10.076416 9.875l0 -9.296875l-1.3125 0l0 10.421875l6.421875 0l0 -1.125l-5.109375 0zm7.5139465 -6.625l0 1.15625l2.640625 0l0 5.453125l-2.640625 0l0 1.140625l6.484375 0l0 -1.140625l-2.53125 0l0 -6.609375l-3.953125 0zm2.46875 -2.03125q0 0.328125 0.1875 0.546875q0.203125 0.203125 0.59375 0.203125q0.40625 0 0.59375 -0.203125q0.203125 -0.21875 0.203125 -0.546875q0 -0.171875 -0.0625 -0.3125q-0.046875 -0.15625 -0.15625 -0.265625q-0.09375 -0.09375 -0.25 -0.140625q-0.140625 -0.0625 -0.328125 -0.0625q-0.1875 0 -0.328125 0.0625q-0.140625 0.046875 -0.234375 0.140625q-0.125 0.109375 -0.171875 0.265625q-0.046875 0.140625 -0.046875 0.3125zm8.435791 6.171875l2.84375 3.609375l1.6875 0l-3.625 -4.515625l3.140625 -3.234375l-1.609375 0l-2.546875 2.546875l-0.859375 0.9375l0 -6.734375l-1.328125 0l0 11.0l1.328125 0l0 -2.671875l0.96875 -0.9375zm9.904572 3.75q1.125 0 1.890625 -0.453125q0.765625 -0.453125 1.15625 -1.046875l-0.8125 -0.625q-0.359375 0.46875 -0.90625 0.765625q-0.546875 0.28125 -1.265625 0.28125q-0.53125 0 -0.984375 -0.203125q-0.4375 -0.203125 -0.75 -0.546875q-0.3125 -0.328125 -0.484375 -0.75q-0.171875 -0.4375 -0.21875 -1.0l0 -0.0625l5.53125 0l0 -0.59375q0 -0.796875 -0.21875 -1.484375q-0.203125 -0.703125 -0.609375 -1.21875q-0.421875 -0.515625 -1.046875 -0.796875q-0.625 -0.296875 -1.453125 -0.296875q-0.671875 0 -1.3125 0.28125q-0.625 0.265625 -1.125 0.78125q-0.5 0.515625 -0.796875 1.25q-0.296875 0.734375 -0.296875 1.671875l0 0.3125q0 0.796875 0.265625 1.484375q0.28125 0.6875 0.765625 1.1875q0.484375 0.5 1.15625 0.78125q0.6875 0.28125 1.515625 0.28125zm-0.171875 -6.9375q0.5 0 0.859375 0.1875q0.375 0.1875 0.625 0.484375q0.234375 0.296875 0.375 0.71875q0.140625 0.40625 0.140625 0.765625l0 0.0625l-4.171875 0q0.078125 -0.53125 0.28125 -0.9375q0.203125 -0.421875 0.484375 -0.703125q0.28125 -0.28125 0.640625 -0.421875q0.359375 -0.15625 0.765625 -0.15625zm10.685791 4.75q0 0.171875 -0.078125 0.34375q-0.0625 0.171875 -0.203125 0.296875q-0.21875 0.21875 -0.609375 0.34375q-0.390625 0.125 -0.921875 0.125q-0.34375 0 -0.6875 -0.0625q-0.34375 -0.078125 -0.625 -0.25q-0.28125 -0.171875 -0.46875 -0.4375q-0.1875 -0.28125 -0.21875 -0.703125l-1.328125 0q0 0.5 0.21875 0.96875q0.234375 0.453125 0.65625 0.796875q0.4375 0.34375 1.046875 0.5625q0.609375 0.203125 1.40625 0.203125q0.6875 0 1.265625 -0.15625q0.578125 -0.171875 0.984375 -0.46875q0.421875 -0.296875 0.65625 -0.71875q0.234375 -0.421875 0.234375 -0.9375q0 -0.484375 -0.203125 -0.84375q-0.203125 -0.375 -0.59375 -0.65625q-0.390625 -0.265625 -0.953125 -0.453125q-0.5625 -0.203125 -1.28125 -0.359375q-0.546875 -0.109375 -0.90625 -0.21875q-0.34375 -0.109375 -0.546875 -0.265625q-0.21875 -0.140625 -0.3125 -0.3125q-0.078125 -0.1875 -0.078125 -0.40625q0 -0.21875 0.109375 -0.421875q0.109375 -0.21875 0.3125 -0.375q0.21875 -0.15625 0.53125 -0.25q0.3125 -0.09375 0.734375 -0.09375q0.40625 0 0.734375 0.125q0.328125 0.109375 0.5625 0.28125q0.21875 0.1875 0.34375 0.4375q0.140625 0.234375 0.140625 0.484375l1.328125 0q0 -0.5 -0.21875 -0.9375q-0.21875 -0.453125 -0.625 -0.78125q-0.40625 -0.328125 -0.984375 -0.515625q-0.5625 -0.1875 -1.28125 -0.1875q-0.65625 0 -1.21875 0.1875q-0.546875 0.171875 -0.953125 0.484375q-0.40625 0.3125 -0.625 0.71875q-0.21875 0.40625 -0.21875 0.875q0 0.484375 0.21875 0.84375q0.21875 0.359375 0.609375 0.625q0.390625 0.28125 0.9375 0.46875q0.546875 0.1875 1.203125 0.328125q0.546875 0.109375 0.90625 0.25q0.375 0.125 0.59375 0.28125q0.21875 0.15625 0.3125 0.34375q0.09375 0.1875 0.09375 0.4375zm6.9983215 1.734375l0 -1.25l-1.4375 0l0 1.28125q0 0.609375 -0.140625 1.171875q-0.140625 0.5625 -0.484375 1.0625l0.828125 0.453125q0.5625 -0.515625 0.890625 -1.265625q0.34375 -0.734375 0.34375 -1.453125zm19.387238 -1.734375q0 0.171875 -0.078125 0.34375q-0.0625 0.171875 -0.203125 0.296875q-0.21875 0.21875 -0.609375 0.34375q-0.390625 0.125 -0.921875 0.125q-0.34375 0 -0.6875 -0.0625q-0.34375 -0.078125 -0.625 -0.25q-0.28125 -0.171875 -0.46875 -0.4375q-0.1875 -0.28125 -0.21875 -0.703125l-1.328125 0q0 0.5 0.21875 0.96875q0.234375 0.453125 0.65625 0.796875q0.4375 0.34375 1.046875 0.5625q0.609375 0.203125 1.40625 0.203125q0.6875 0 1.265625 -0.15625q0.578125 -0.171875 0.984375 -0.46875q0.421875 -0.296875 0.65625 -0.71875q0.234375 -0.421875 0.234375 -0.9375q0 -0.484375 -0.203125 -0.84375q-0.203125 -0.375 -0.59375 -0.65625q-0.390625 -0.265625 -0.953125 -0.453125q-0.5625 -0.203125 -1.28125 -0.359375q-0.546875 -0.109375 -0.90625 -0.21875q-0.34375 -0.109375 -0.546875 -0.265625q-0.21875 -0.140625 -0.3125 -0.3125q-0.078125 -0.1875 -0.078125 -0.40625q0 -0.21875 0.109375 -0.421875q0.109375 -0.21875 0.3125 -0.375q0.21875 -0.15625 0.53125 -0.25q0.3125 -0.09375 0.734375 -0.09375q0.40625 0 0.734375 0.125q0.328125 0.109375 0.5625 0.28125q0.21875 0.1875 0.34375 0.4375q0.140625 0.234375 0.140625 0.484375l1.328125 0q0 -0.5 -0.21875 -0.9375q-0.21875 -0.453125 -0.625 -0.78125q-0.40625 -0.328125 -0.984375 -0.515625q-0.5625 -0.1875 -1.28125 -0.1875q-0.65625 0 -1.21875 0.1875q-0.546875 0.171875 -0.953125 0.484375q-0.40625 0.3125 -0.625 0.71875q-0.21875 0.40625 -0.21875 0.875q0 0.484375 0.21875 0.84375q0.21875 0.359375 0.609375 0.625q0.390625 0.28125 0.9375 0.46875q0.546875 0.1875 1.203125 0.328125q0.546875 0.109375 0.90625 0.25q0.375 0.125 0.59375 0.28125q0.21875 0.15625 0.3125 0.34375q0.09375 0.1875 0.09375 0.4375zm7.0764465 2.1875q1.125 0 1.890625 -0.453125q0.765625 -0.453125 1.15625 -1.046875l-0.8125 -0.625q-0.359375 0.46875 -0.90625 0.765625q-0.546875 0.28125 -1.265625 0.28125q-0.53125 0 -0.984375 -0.203125q-0.4375 -0.203125 -0.75 -0.546875q-0.3125 -0.328125 -0.484375 -0.75q-0.171875 -0.4375 -0.21875 -1.0l0 -0.0625l5.53125 0l0 -0.59375q0 -0.796875 -0.21875 -1.484375q-0.203125 -0.703125 -0.609375 -1.21875q-0.421875 -0.515625 -1.046875 -0.796875q-0.625 -0.296875 -1.453125 -0.296875q-0.671875 0 -1.3125 0.28125q-0.625 0.265625 -1.125 0.78125q-0.5 0.515625 -0.796875 1.25q-0.296875 0.734375 -0.296875 1.671875l0 0.3125q0 0.796875 0.265625 1.484375q0.28125 0.6875 0.765625 1.1875q0.484375 0.5 1.15625 0.78125q0.6875 0.28125 1.515625 0.28125zm-0.171875 -6.9375q0.5 0 0.859375 0.1875q0.375 0.1875 0.625 0.484375q0.234375 0.296875 0.375 0.71875q0.140625 0.40625 0.140625 0.765625l0 0.0625l-4.171875 0q0.078125 -0.53125 0.28125 -0.9375q0.203125 -0.421875 0.484375 -0.703125q0.28125 -0.28125 0.640625 -0.421875q0.359375 -0.15625 0.765625 -0.15625zm8.670166 -2.828125l-1.328125 0l0 1.875l-2.03125 0l0 1.03125l2.03125 0l0 4.203125q0 0.71875 0.1875 1.234375q0.1875 0.5 0.515625 0.8125q0.34375 0.3125 0.78125 0.46875q0.453125 0.140625 0.96875 0.140625q0.296875 0 0.609375 -0.03125q0.3125 -0.03125 0.59375 -0.078125q0.28125 -0.046875 0.515625 -0.125q0.234375 -0.078125 0.40625 -0.171875l-0.1875 -0.9375q-0.125 0.015625 -0.3125 0.0625q-0.1875 0.03125 -0.40625 0.078125q-0.21875 0.03125 -0.453125 0.0625q-0.21875 0.015625 -0.4375 0.015625q-0.296875 0 -0.5625 -0.0625q-0.25 -0.078125 -0.453125 -0.25q-0.203125 -0.171875 -0.328125 -0.46875q-0.109375 -0.296875 -0.109375 -0.75l0 -4.203125l2.953125 0l0 -1.03125l-2.953125 0l0 -1.875zm12.685822 0.34375l0 -1.140625l-7.71875 0l0 1.140625l3.21875 0l0 9.28125l1.28125 0l0 -9.28125l3.21875 0zm1.404541 5.34375l0 0.15625q0 0.828125 0.234375 1.546875q0.25 0.71875 0.703125 1.25q0.453125 0.53125 1.109375 0.828125q0.65625 0.296875 1.484375 0.296875q0.8125 0 1.453125 -0.296875q0.65625 -0.296875 1.125 -0.828125q0.4375 -0.53125 0.6875 -1.25q0.25 -0.71875 0.25 -1.546875l0 -0.15625q0 -0.84375 -0.25 -1.5625q-0.25 -0.71875 -0.6875 -1.25q-0.46875 -0.53125 -1.125 -0.828125q-0.65625 -0.3125 -1.46875 -0.3125q-0.8125 0 -1.46875 0.3125q-0.65625 0.296875 -1.109375 0.828125q-0.453125 0.53125 -0.703125 1.25q-0.234375 0.71875 -0.234375 1.5625zm1.328125 0.15625l0 -0.15625q0 -0.578125 0.125 -1.09375q0.140625 -0.515625 0.421875 -0.90625q0.265625 -0.390625 0.671875 -0.625q0.40625 -0.234375 0.96875 -0.234375q0.546875 0 0.953125 0.234375q0.421875 0.234375 0.703125 0.625q0.265625 0.390625 0.40625 0.90625q0.140625 0.515625 0.140625 1.09375l0 0.15625q0 0.5625 -0.140625 1.09375q-0.140625 0.515625 -0.40625 0.90625q-0.28125 0.390625 -0.703125 0.625q-0.40625 0.21875 -0.9375 0.21875q-0.5625 0 -0.984375 -0.21875q-0.40625 -0.234375 -0.671875 -0.625q-0.28125 -0.390625 -0.421875 -0.90625q-0.125 -0.53125 -0.125 -1.09375zm10.967072 -5.84375l-1.328125 0l0 1.875l-2.03125 0l0 1.03125l2.03125 0l0 4.203125q0 0.71875 0.1875 1.234375q0.1875 0.5 0.515625 0.8125q0.34375 0.3125 0.78125 0.46875q0.453125 0.140625 0.96875 0.140625q0.296875 0 0.609375 -0.03125q0.3125 -0.03125 0.59375 -0.078125q0.28125 -0.046875 0.515625 -0.125q0.234375 -0.078125 0.40625 -0.171875l-0.1875 -0.9375q-0.125 0.015625 -0.3125 0.0625q-0.1875 0.03125 -0.40625 0.078125q-0.21875 0.03125 -0.453125 0.0625q-0.21875 0.015625 -0.4375 0.015625q-0.296875 0 -0.5625 -0.0625q-0.25 -0.078125 -0.453125 -0.25q-0.203125 -0.171875 -0.328125 -0.46875q-0.109375 -0.296875 -0.109375 -0.75l0 -4.203125l2.953125 0l0 -1.03125l-2.953125 0l0 -1.875zm10.748291 9.625l1.390625 0l0 -0.109375q-0.140625 -0.328125 -0.21875 -0.75q-0.0625 -0.4375 -0.0625 -0.828125l0 -3.59375q0 -0.65625 -0.234375 -1.140625q-0.234375 -0.484375 -0.640625 -0.828125q-0.421875 -0.3125 -0.984375 -0.46875q-0.5625 -0.171875 -1.21875 -0.171875q-0.71875 0 -1.296875 0.203125q-0.5625 0.203125 -0.953125 0.53125q-0.40625 0.328125 -0.625 0.734375q-0.203125 0.40625 -0.203125 0.828125l1.328125 0q0 -0.25 0.109375 -0.46875q0.125 -0.234375 0.34375 -0.390625q0.203125 -0.171875 0.515625 -0.265625q0.3125 -0.09375 0.703125 -0.09375q0.421875 0 0.765625 0.109375q0.34375 0.09375 0.578125 0.296875q0.234375 0.1875 0.359375 0.46875q0.140625 0.28125 0.140625 0.640625l0 0.609375l-1.453125 0q-0.8125 0 -1.46875 0.15625q-0.640625 0.15625 -1.109375 0.46875q-0.46875 0.3125 -0.734375 0.796875q-0.25 0.484375 -0.25 1.125q0 0.484375 0.1875 0.90625q0.203125 0.40625 0.546875 0.71875q0.34375 0.296875 0.84375 0.484375q0.5 0.171875 1.109375 0.171875q0.375 0 0.71875 -0.078125q0.34375 -0.078125 0.640625 -0.21875q0.296875 -0.125 0.53125 -0.296875q0.25 -0.1875 0.453125 -0.390625q0.015625 0.25 0.0625 0.46875q0.046875 0.21875 0.125 0.375zm-2.328125 -1.015625q-0.390625 0 -0.6875 -0.09375q-0.296875 -0.09375 -0.484375 -0.28125q-0.1875 -0.171875 -0.296875 -0.40625q-0.09375 -0.25 -0.09375 -0.53125q0 -0.3125 0.109375 -0.546875q0.109375 -0.234375 0.328125 -0.40625q0.296875 -0.234375 0.8125 -0.34375q0.515625 -0.125 1.203125 -0.125l1.234375 0l0 1.5625q-0.125 0.234375 -0.328125 0.453125q-0.1875 0.203125 -0.46875 0.359375q-0.28125 0.171875 -0.625 0.265625q-0.328125 0.09375 -0.703125 0.09375zm6.2483215 -9.984375l0 1.15625l2.640625 0l0 8.703125l-2.640625 0l0 1.140625l6.484375 0l0 -1.140625l-2.53125 0l0 -9.859375l-3.953125 0zm10.076416 9.875l0 -9.296875l-1.3125 0l0 10.421875l6.421875 0l0 -1.125l-5.109375 0zm7.5139465 -6.625l0 1.15625l2.640625 0l0 5.453125l-2.640625 0l0 1.140625l6.484375 0l0 -1.140625l-2.53125 0l0 -6.609375l-3.953125 0zm2.46875 -2.03125q0 0.328125 0.1875 0.546875q0.203125 0.203125 0.59375 0.203125q0.40625 0 0.59375 -0.203125q0.203125 -0.21875 0.203125 -0.546875q0 -0.171875 -0.0625 -0.3125q-0.046875 -0.15625 -0.15625 -0.265625q-0.09375 -0.09375 -0.25 -0.140625q-0.140625 -0.0625 -0.328125 -0.0625q-0.1875 0 -0.328125 0.0625q-0.140625 0.046875 -0.234375 0.140625q-0.125 0.109375 -0.171875 0.265625q-0.046875 0.140625 -0.046875 0.3125zm8.435791 6.171875l2.84375 3.609375l1.6875 0l-3.625 -4.515625l3.140625 -3.234375l-1.609375 0l-2.546875 2.546875l-0.859375 0.9375l0 -6.734375l-1.328125 0l0 11.0l1.328125 0l0 -2.671875l0.96875 -0.9375zm9.904572 3.75q1.125 0 1.890625 -0.453125q0.765625 -0.453125 1.15625 -1.046875l-0.8125 -0.625q-0.359375 0.46875 -0.90625 0.765625q-0.546875 0.28125 -1.265625 0.28125q-0.53125 0 -0.984375 -0.203125q-0.4375 -0.203125 -0.75 -0.546875q-0.3125 -0.328125 -0.484375 -0.75q-0.171875 -0.4375 -0.21875 -1.0l0 -0.0625l5.53125 0l0 -0.59375q0 -0.796875 -0.21875 -1.484375q-0.203125 -0.703125 -0.609375 -1.21875q-0.421875 -0.515625 -1.046875 -0.796875q-0.625 -0.296875 -1.453125 -0.296875q-0.671875 0 -1.3125 0.28125q-0.625 0.265625 -1.125 0.78125q-0.5 0.515625 -0.796875 1.25q-0.296875 0.734375 -0.296875 1.671875l0 0.3125q0 0.796875 0.265625 1.484375q0.28125 0.6875 0.765625 1.1875q0.484375 0.5 1.15625 0.78125q0.6875 0.28125 1.515625 0.28125zm-0.171875 -6.9375q0.5 0 0.859375 0.1875q0.375 0.1875 0.625 0.484375q0.234375 0.296875 0.375 0.71875q0.140625 0.40625 0.140625 0.765625l0 0.0625l-4.171875 0q0.078125 -0.53125 0.28125 -0.9375q0.203125 -0.421875 0.484375 -0.703125q0.28125 -0.28125 0.640625 -0.421875q0.359375 -0.15625 0.765625 -0.15625zm10.685791 4.75q0 0.171875 -0.078125 0.34375q-0.0625 0.171875 -0.203125 0.296875q-0.21875 0.21875 -0.609375 0.34375q-0.390625 0.125 -0.921875 0.125q-0.34375 0 -0.6875 -0.0625q-0.34375 -0.078125 -0.625 -0.25q-0.28125 -0.171875 -0.46875 -0.4375q-0.1875 -0.28125 -0.21875 -0.703125l-1.328125 0q0 0.5 0.21875 0.96875q0.234375 0.453125 0.65625 0.796875q0.4375 0.34375 1.046875 0.5625q0.609375 0.203125 1.40625 0.203125q0.6875 0 1.265625 -0.15625q0.578125 -0.171875 0.984375 -0.46875q0.421875 -0.296875 0.65625 -0.71875q0.234375 -0.421875 0.234375 -0.9375q0 -0.484375 -0.203125 -0.84375q-0.203125 -0.375 -0.59375 -0.65625q-0.390625 -0.265625 -0.953125 -0.453125q-0.5625 -0.203125 -1.28125 -0.359375q-0.546875 -0.109375 -0.90625 -0.21875q-0.34375 -0.109375 -0.546875 -0.265625q-0.21875 -0.140625 -0.3125 -0.3125q-0.078125 -0.1875 -0.078125 -0.40625q0 -0.21875 0.109375 -0.421875q0.109375 -0.21875 0.3125 -0.375q0.21875 -0.15625 0.53125 -0.25q0.3125 -0.09375 0.734375 -0.09375q0.40625 0 0.734375 0.125q0.328125 0.109375 0.5625 0.28125q0.21875 0.1875 0.34375 0.4375q0.140625 0.234375 0.140625 0.484375l1.328125 0q0 -0.5 -0.21875 -0.9375q-0.21875 -0.453125 -0.625 -0.78125q-0.40625 -0.328125 -0.984375 -0.515625q-0.5625 -0.1875 -1.28125 -0.1875q-0.65625 0 -1.21875 0.1875q-0.546875 0.171875 -0.953125 0.484375q-0.40625 0.3125 -0.625 0.71875q-0.21875 0.40625 -0.21875 0.875q0 0.484375 0.21875 0.84375q0.21875 0.359375 0.609375 0.625q0.390625 0.28125 0.9375 0.46875q0.546875 0.1875 1.203125 0.328125q0.546875 0.109375 0.90625 0.25q0.375 0.125 0.59375 0.28125q0.21875 0.15625 0.3125 0.34375q0.09375 0.1875 0.09375 0.4375zm5.2951965 -9.859375l0 1.078125l1.59375 0l0 11.96875l-1.59375 0l0 1.09375l2.84375 0l0 -14.140625l-2.84375 0z" fill-rule="nonzero"/><path fill="#ffffff" d="m4.2926507 176.41077l192.06299 0l0 77.92125l-192.06299 0z" fill-rule="evenodd"/><path stroke="#000000" stroke-width="1.0" stroke-linejoin="round" stroke-linecap="butt" d="m4.2926507 176.41077l192.06299 0l0 77.92125l-192.06299 0z" fill-rule="evenodd"/><path fill="#000000" d="m69.85149 223.91139l0 -17.0625l-2.046875 0l0 7.328125l-6.999996 0l0 -7.328125l-2.03125 0l0 17.0625l2.03125 0l0 -7.890625l6.999996 0l0 7.890625l2.046875 0zm9.308594 0.234375q1.859375 0 3.109375 -0.734375q1.265625 -0.75 1.890625 -1.71875l-1.3125 -1.03125q-0.609375 0.78125 -1.515625 1.25q-0.890625 0.46875 -2.046875 0.46875q-0.890625 0 -1.625 -0.328125q-0.71875 -0.328125 -1.234375 -0.90625q-0.5 -0.546875 -0.796875 -1.25q-0.28125 -0.703125 -0.359375 -1.625l0 -0.078125l9.0625 0l0 -0.96875q0 -1.328125 -0.34375 -2.46875q-0.328125 -1.140625 -1.0 -1.984375q-0.6875 -0.828125 -1.71875 -1.296875q-1.015625 -0.484375 -2.390625 -0.484375q-1.09375 0 -2.125 0.453125q-1.03125 0.4375 -1.84375 1.28125q-0.828125 0.84375 -1.328125 2.0625q-0.484375 1.203125 -0.484375 2.734375l0 0.5q0 1.3125 0.4375 2.4375q0.453125 1.125 1.25 1.953125q0.796875 0.8125 1.921875 1.28125q1.125 0.453125 2.453125 0.453125zm-0.28125 -11.375q0.828125 0 1.4375 0.3125q0.609375 0.296875 1.0 0.796875q0.40625 0.484375 0.625 1.171875q0.21875 0.671875 0.21875 1.25l0 0.109375l-6.8125 0q0.125 -0.875 0.4375 -1.546875q0.328125 -0.6875 0.796875 -1.15625q0.46875 -0.453125 1.046875 -0.6875q0.59375 -0.25 1.25 -0.25zm17.417969 11.140625l2.265625 0l0 -0.1875q-0.21875 -0.53125 -0.34375 -1.234375q-0.109375 -0.71875 -0.109375 -1.34375l0 -5.890625q0 -1.078125 -0.390625 -1.875q-0.375 -0.796875 -1.046875 -1.328125q-0.6875 -0.53125 -1.609375 -0.796875q-0.921875 -0.265625 -2.0 -0.265625q-1.1875 0 -2.125 0.328125q-0.921875 0.328125 -1.5625 0.859375q-0.65625 0.546875 -1.015625 1.21875q-0.34375 0.65625 -0.34375 1.34375l2.171875 0q0 -0.390625 0.1875 -0.75q0.203125 -0.375 0.546875 -0.65625q0.359375 -0.265625 0.859375 -0.421875q0.515625 -0.171875 1.15625 -0.171875q0.703125 0 1.25 0.1875q0.5625 0.171875 0.953125 0.484375q0.375 0.328125 0.578125 0.78125q0.21875 0.453125 0.21875 1.03125l0 1.0l-2.359375 0q-1.328125 0 -2.40625 0.265625q-1.0625 0.25 -1.828125 0.765625q-0.765625 0.53125 -1.1875 1.3125q-0.40625 0.78125 -0.40625 1.828125q0 0.796875 0.3125 1.484375q0.3125 0.6875 0.890625 1.171875q0.5625 0.5 1.375 0.796875q0.8125 0.296875 1.8125 0.296875q0.625 0 1.171875 -0.140625q0.5625 -0.125 1.046875 -0.34375q0.484375 -0.21875 0.890625 -0.515625q0.40625 -0.296875 0.734375 -0.625q0.03125 0.40625 0.109375 0.78125q0.078125 0.359375 0.203125 0.609375zm-3.828125 -1.65625q-0.640625 0 -1.125 -0.15625q-0.46875 -0.171875 -0.796875 -0.46875q-0.3125 -0.28125 -0.46875 -0.671875q-0.15625 -0.40625 -0.15625 -0.875q0 -0.484375 0.171875 -0.875q0.1875 -0.390625 0.546875 -0.671875q0.484375 -0.390625 1.3125 -0.578125q0.84375 -0.203125 1.96875 -0.203125l2.015625 0l0 2.5625q-0.1875 0.375 -0.515625 0.734375q-0.328125 0.34375 -0.765625 0.609375q-0.453125 0.265625 -1.015625 0.4375q-0.546875 0.15625 -1.171875 0.15625zm9.480469 -4.796875l0 0.25q0 1.359375 0.359375 2.546875q0.375 1.171875 1.03125 2.03125q0.65625 0.875 1.578125 1.375q0.9375 0.484375 2.09375 0.484375q1.171875 0 2.046875 -0.390625q0.875 -0.40625 1.515625 -1.1875l0.09375 1.34375l1.984375 0l0 -18.0l-2.171875 0l0 6.578125q-0.609375 -0.734375 -1.46875 -1.109375q-0.84375 -0.390625 -1.984375 -0.390625q-1.15625 0 -2.09375 0.484375q-0.9375 0.484375 -1.59375 1.34375q-0.671875 0.84375 -1.03125 2.046875q-0.359375 1.1875 -0.359375 2.59375zm2.171875 0.25l0 -0.25q0 -0.921875 0.203125 -1.75q0.203125 -0.84375 0.625 -1.484375q0.40625 -0.640625 1.046875 -1.015625q0.65625 -0.375 1.578125 -0.375q1.0625 0 1.765625 0.5q0.71875 0.5 1.140625 1.265625l0 5.890625q-0.421875 0.828125 -1.140625 1.328125q-0.703125 0.484375 -1.796875 0.484375q-0.90625 0 -1.546875 -0.359375q-0.640625 -0.375 -1.046875 -1.015625q-0.421875 -0.625 -0.625 -1.453125q-0.203125 -0.84375 -0.203125 -1.765625zm18.246094 6.4375q1.859375 0 3.109375 -0.734375q1.265625 -0.75 1.890625 -1.71875l-1.3125 -1.03125q-0.609375 0.78125 -1.515625 1.25q-0.890625 0.46875 -2.046875 0.46875q-0.890625 0 -1.625 -0.328125q-0.71875 -0.328125 -1.234375 -0.90625q-0.5 -0.546875 -0.796875 -1.25q-0.28125 -0.703125 -0.359375 -1.625l0 -0.078125l9.0625 0l0 -0.96875q0 -1.328125 -0.34375 -2.46875q-0.328125 -1.140625 -1.0 -1.984375q-0.6875 -0.828125 -1.71875 -1.296875q-1.015625 -0.484375 -2.390625 -0.484375q-1.09375 0 -2.125 0.453125q-1.03125 0.4375 -1.84375 1.28125q-0.828125 0.84375 -1.328125 2.0625q-0.484375 1.203125 -0.484375 2.734375l0 0.5q0 1.3125 0.4375 2.4375q0.453125 1.125 1.25 1.953125q0.796875 0.8125 1.921875 1.28125q1.125 0.453125 2.453125 0.453125zm-0.28125 -11.375q0.828125 0 1.4375 0.3125q0.609375 0.296875 1.0 0.796875q0.40625 0.484375 0.625 1.171875q0.21875 0.671875 0.21875 1.25l0 0.109375l-6.8125 0q0.125 -0.875 0.4375 -1.546875q0.328125 -0.6875 0.796875 -1.15625q0.46875 -0.453125 1.046875 -0.6875q0.59375 -0.25 1.25 -0.25zm17.386719 -1.78125q-1.375 0 -2.46875 0.609375q-1.078125 0.609375 -1.84375 1.640625l-0.015625 -0.3125l-0.09375 -1.703125l-2.0625 0l0 12.6875l2.171875 0l0 -8.140625q0.21875 -0.578125 0.53125 -1.046875q0.328125 -0.484375 0.765625 -0.8125q0.484375 -0.375 1.125 -0.5625q0.640625 -0.203125 1.4375 -0.203125q0.625 0 1.1875 0.078125q0.578125 0.0625 1.203125 0.203125l0.296875 -2.125q-0.328125 -0.140625 -0.984375 -0.21875q-0.640625 -0.09375 -1.25 -0.09375z" fill-rule="nonzero"/><path fill="#ffffff" d="m261.11154 176.41077l192.06299 0l0 77.92125l-192.06299 0z" fill-rule="evenodd"/><path stroke="#000000" stroke-width="1.0" stroke-linejoin="round" stroke-linecap="butt" d="m261.11154 176.41077l192.06299 0l0 77.92125l-192.06299 0z" fill-rule="evenodd"/><path fill="#000000" d="m297.8657 223.91139l0 -17.0625l-2.203125 0l-0.03125 12.71875l-6.625 -12.71875l-2.203125 0l0 17.0625l2.203125 0l0.03125 -12.75l6.625 12.75l2.203125 0zm9.308594 0.234375q1.859375 0 3.109375 -0.734375q1.265625 -0.75 1.890625 -1.71875l-1.3125 -1.03125q-0.609375 0.78125 -1.515625 1.25q-0.890625 0.46875 -2.046875 0.46875q-0.890625 0 -1.625 -0.328125q-0.71875 -0.328125 -1.234375 -0.90625q-0.5 -0.546875 -0.796875 -1.25q-0.28125 -0.703125 -0.359375 -1.625l0 -0.078125l9.0625 0l0 -0.96875q0 -1.328125 -0.34375 -2.46875q-0.328125 -1.140625 -1.0 -1.984375q-0.6875 -0.828125 -1.71875 -1.296875q-1.015625 -0.484375 -2.390625 -0.484375q-1.09375 0 -2.125 0.453125q-1.03125 0.4375 -1.84375 1.28125q-0.828125 0.84375 -1.328125 2.0625q-0.484375 1.203125 -0.484375 2.734375l0 0.5q0 1.3125 0.4375 2.4375q0.453125 1.125 1.25 1.953125q0.796875 0.8125 1.921875 1.28125q1.125 0.453125 2.453125 0.453125zm-0.28125 -11.375q0.828125 0 1.4375 0.3125q0.609375 0.296875 1.0 0.796875q0.40625 0.484375 0.625 1.171875q0.21875 0.671875 0.21875 1.25l0 0.109375l-6.8125 0q0.125 -0.875 0.4375 -1.546875q0.328125 -0.6875 0.796875 -1.15625q0.46875 -0.453125 1.046875 -0.6875q0.59375 -0.25 1.25 -0.25zm10.308594 11.140625l1.703125 0l1.953125 -7.765625l0.328125 -1.96875l0.328125 1.96875l1.96875 7.765625l1.71875 0l2.6875 -12.6875l-1.921875 0l-1.40625 8.09375l-0.3125 1.984375l-0.34375 -1.984375l-2.015625 -8.09375l-1.390625 0l-2.03125 8.09375l-0.3125 1.8125l-0.25 -1.8125l-1.484375 -8.09375l-1.921875 0l2.703125 12.6875zm15.542969 -6.84375l3.359375 0q1.15625 -0.015625 2.171875 -0.34375q1.03125 -0.34375 1.8125 -1.0q0.765625 -0.640625 1.21875 -1.578125q0.453125 -0.953125 0.453125 -2.171875q0 -1.234375 -0.453125 -2.1875q-0.453125 -0.953125 -1.21875 -1.59375q-0.78125 -0.640625 -1.8125 -0.984375q-1.015625 -0.34375 -2.171875 -0.359375l-5.53125 0l0 17.0625l2.171875 0l0 -6.84375zm0 -1.78125l0 -6.65625l3.359375 0q0.75 0.015625 1.390625 0.25q0.640625 0.234375 1.109375 0.65625q0.453125 0.4375 0.71875 1.0625q0.265625 0.625 0.265625 1.390625q0 0.78125 -0.265625 1.390625q-0.265625 0.59375 -0.734375 1.015625q-0.46875 0.421875 -1.109375 0.65625q-0.625 0.21875 -1.375 0.234375l-3.359375 0zm17.636719 8.859375q1.859375 0 3.109375 -0.734375q1.265625 -0.75 1.890625 -1.71875l-1.3125 -1.03125q-0.609375 0.78125 -1.515625 1.25q-0.890625 0.46875 -2.046875 0.46875q-0.890625 0 -1.625 -0.328125q-0.71875 -0.328125 -1.234375 -0.90625q-0.5 -0.546875 -0.796875 -1.25q-0.28125 -0.703125 -0.359375 -1.625l0 -0.078125l9.0625 0l0 -0.96875q0 -1.328125 -0.34375 -2.46875q-0.328125 -1.140625 -1.0 -1.984375q-0.6875 -0.828125 -1.71875 -1.296875q-1.015625 -0.484375 -2.390625 -0.484375q-1.09375 0 -2.125 0.453125q-1.03125 0.4375 -1.84375 1.28125q-0.828125 0.84375 -1.328125 2.0625q-0.484375 1.203125 -0.484375 2.734375l0 0.5q0 1.3125 0.4375 2.4375q0.453125 1.125 1.25 1.953125q0.796875 0.8125 1.921875 1.28125q1.125 0.453125 2.453125 0.453125zm-0.28125 -11.375q0.828125 0 1.4375 0.3125q0.609375 0.296875 1.0 0.796875q0.40625 0.484375 0.625 1.171875q0.21875 0.671875 0.21875 1.25l0 0.109375l-6.8125 0q0.125 -0.875 0.4375 -1.546875q0.328125 -0.6875 0.796875 -1.15625q0.46875 -0.453125 1.046875 -0.6875q0.59375 -0.25 1.25 -0.25zm14.214844 -4.609375l-2.171875 0l0 3.0625l-3.328125 0l0 1.6875l3.328125 0l0 6.890625q0 1.171875 0.296875 2.0q0.3125 0.8125 0.859375 1.328125q0.53125 0.53125 1.265625 0.78125q0.734375 0.234375 1.578125 0.234375q0.5 0 1.015625 -0.046875q0.515625 -0.046875 0.96875 -0.140625q0.453125 -0.078125 0.84375 -0.203125q0.390625 -0.125 0.65625 -0.296875l-0.3125 -1.53125q-0.1875 0.046875 -0.5 0.109375q-0.3125 0.0625 -0.671875 0.125q-0.359375 0.0625 -0.734375 0.109375q-0.375 0.03125 -0.71875 0.03125q-0.484375 0 -0.921875 -0.109375q-0.421875 -0.125 -0.75 -0.421875q-0.328125 -0.28125 -0.515625 -0.75q-0.1875 -0.484375 -0.1875 -1.21875l0 -6.890625l4.828125 0l0 -1.6875l-4.828125 0l0 -3.0625zm18.761719 8.21875l0 -1.84375l-7.09375 0l0 -5.84375l8.28125 0l0 -1.84375l-10.484375 0l0 17.0625l2.203125 0l0 -7.53125l7.09375 0zm4.3085938 1.078125l0 0.25q0 1.375 0.390625 2.546875q0.40625 1.171875 1.15625 2.03125q0.734375 0.875 1.796875 1.375q1.078125 0.484375 2.421875 0.484375q1.34375 0 2.40625 -0.484375q1.0625 -0.5 1.8125 -1.375q0.75 -0.859375 1.140625 -2.03125q0.40625 -1.171875 0.40625 -2.546875l0 -0.25q0 -1.375 -0.40625 -2.546875q-0.390625 -1.1875 -1.140625 -2.046875q-0.75 -0.875 -1.828125 -1.375q-1.0625 -0.5 -2.40625 -0.5q-1.34375 0 -2.40625 0.5q-1.0625 0.5 -1.796875 1.375q-0.75 0.859375 -1.15625 2.046875q-0.390625 1.171875 -0.390625 2.546875zm2.15625 0.25l0 -0.25q0 -0.9375 0.21875 -1.78125q0.234375 -0.84375 0.6875 -1.5q0.453125 -0.640625 1.109375 -1.015625q0.671875 -0.390625 1.578125 -0.390625q0.90625 0 1.578125 0.390625q0.671875 0.375 1.125 1.015625q0.453125 0.65625 0.671875 1.5q0.234375 0.84375 0.234375 1.78125l0 0.25q0 0.9375 -0.234375 1.796875q-0.21875 0.84375 -0.65625 1.484375q-0.453125 0.640625 -1.140625 1.015625q-0.671875 0.375 -1.5625 0.375q-0.890625 0 -1.578125 -0.375q-0.671875 -0.375 -1.125 -1.015625q-0.453125 -0.640625 -0.6875 -1.484375q-0.21875 -0.859375 -0.21875 -1.796875zm21.152344 -6.71875q-1.375 0 -2.46875 0.609375q-1.078125 0.609375 -1.84375 1.640625l-0.015625 -0.3125l-0.09375 -1.703125l-2.0625 0l0 12.6875l2.171875 0l0 -8.140625q0.21875 -0.578125 0.53125 -1.046875q0.328125 -0.484375 0.765625 -0.8125q0.484375 -0.375 1.125 -0.5625q0.640625 -0.203125 1.4375 -0.203125q0.625 0 1.1875 0.078125q0.578125 0.0625 1.203125 0.203125l0.296875 -2.125q-0.328125 -0.140625 -0.984375 -0.21875q-0.640625 -0.09375 -1.25 -0.09375zm7.0898438 0.234375l-1.9375 0l0 12.6875l2.0625 0l0 -10.09375q0.0625 -0.1875 0.171875 -0.34375q0.125 -0.171875 0.265625 -0.296875q0.203125 -0.171875 0.484375 -0.25q0.296875 -0.09375 0.6875 -0.09375q0.34375 0 0.609375 0.09375q0.265625 0.078125 0.4375 0.265625q0.1875 0.203125 0.265625 0.515625q0.09375 0.296875 0.09375 0.703125l0 9.5l2.0625 0l0 -9.5q0 -0.0625 0 -0.109375q0 -0.0625 0 -0.125q0.046875 -0.28125 0.140625 -0.515625q0.109375 -0.25 0.296875 -0.4375q0.1875 -0.171875 0.46875 -0.28125q0.28125 -0.109375 0.671875 -0.109375q0.359375 0 0.625 0.09375q0.28125 0.09375 0.46875 0.28125q0.1875 0.203125 0.28125 0.515625q0.09375 0.296875 0.09375 0.6875l0 9.5l2.0625 0l0 -9.46875q0 -0.921875 -0.21875 -1.59375q-0.203125 -0.671875 -0.609375 -1.09375q-0.359375 -0.375 -0.890625 -0.5625q-0.53125 -0.203125 -1.1875 -0.203125q-0.46875 0.015625 -0.875 0.140625q-0.40625 0.109375 -0.734375 0.3125q-0.265625 0.171875 -0.484375 0.40625q-0.21875 0.234375 -0.390625 0.5q-0.125 -0.28125 -0.3125 -0.515625q-0.171875 -0.234375 -0.390625 -0.40625q-0.3125 -0.203125 -0.71875 -0.3125q-0.40625 -0.125 -0.90625 -0.125q-0.890625 0.015625 -1.515625 0.390625q-0.625 0.375 -1.015625 1.046875l-0.0625 -1.203125z" fill-rule="nonzero"/><path fill="#ffffff" d="m502.59854 176.41208l207.40158 0l0 77.92125l-207.40158 0z" fill-rule="evenodd"/><path stroke="#000000" stroke-width="1.0" stroke-linejoin="round" stroke-linecap="butt" d="m502.59854 176.41208l207.40158 0l0 77.92125l-207.40158 0z" fill-rule="evenodd"/><path fill="#000000" d="m524.2915 217.06895l3.359375 0q1.15625 -0.015625 2.171875 -0.34375q1.03125 -0.34375 1.8125 -1.0q0.765625 -0.640625 1.21875 -1.578125q0.453125 -0.953125 0.453125 -2.171875q0 -1.234375 -0.453125 -2.1875q-0.453125 -0.953125 -1.21875 -1.59375q-0.78125 -0.640625 -1.8125 -0.984375q-1.015625 -0.34375 -2.171875 -0.359375l-5.53125 0l0 17.0625l2.171875 0l0 -6.84375zm0 -1.78125l0 -6.65625l3.359375 0q0.75 0.015625 1.390625 0.25q0.640625 0.234375 1.109375 0.65625q0.453125 0.4375 0.71875 1.0625q0.265625 0.625 0.265625 1.390625q0 0.78125 -0.265625 1.390625q-0.265625 0.59375 -0.734375 1.015625q-0.46875 0.421875 -1.109375 0.65625q-0.625 0.21875 -1.375 0.234375l-3.359375 0zm12.371094 -4.0625l0 1.890625l4.3125 0l0 8.921875l-4.3125 0l0 1.875l10.625 0l0 -1.875l-4.140625 0l0 -10.8125l-6.484375 0zm4.03125 -3.328125q0 0.53125 0.328125 0.890625q0.328125 0.34375 0.984375 0.34375q0.640625 0 0.96875 -0.34375q0.328125 -0.359375 0.328125 -0.890625q0 -0.28125 -0.09375 -0.53125q-0.09375 -0.25 -0.28125 -0.40625q-0.15625 -0.15625 -0.390625 -0.234375q-0.234375 -0.09375 -0.53125 -0.09375q-0.3125 0 -0.5625 0.09375q-0.234375 0.078125 -0.375 0.234375q-0.1875 0.171875 -0.28125 0.421875q-0.09375 0.234375 -0.09375 0.515625zm15.433594 14.484375q-1.015625 0 -1.703125 -0.390625q-0.6875 -0.40625 -1.09375 -1.0625q-0.421875 -0.65625 -0.609375 -1.46875q-0.171875 -0.8125 -0.171875 -1.640625l0 -0.5q0 -0.8125 0.171875 -1.625q0.1875 -0.8125 0.609375 -1.46875q0.421875 -0.640625 1.109375 -1.046875q0.6875 -0.40625 1.6875 -0.40625q0.65625 0 1.21875 0.234375q0.578125 0.21875 0.984375 0.609375q0.421875 0.375 0.65625 0.890625q0.234375 0.515625 0.25 1.078125l2.046875 0q0 -0.953125 -0.390625 -1.796875q-0.375 -0.84375 -1.0625 -1.46875q-0.6875 -0.609375 -1.640625 -0.96875q-0.9375 -0.359375 -2.0625 -0.359375q-1.4375 0 -2.515625 0.515625q-1.078125 0.515625 -1.796875 1.390625q-0.71875 0.875 -1.09375 2.03125q-0.359375 1.140625 -0.359375 2.390625l0 0.5q0 1.265625 0.359375 2.40625q0.375 1.140625 1.09375 2.015625q0.71875 0.875 1.796875 1.390625q1.078125 0.515625 2.515625 0.515625q1.015625 0 1.9375 -0.34375q0.921875 -0.34375 1.640625 -0.9375q0.71875 -0.578125 1.140625 -1.34375q0.4375 -0.765625 0.4375 -1.609375l-2.046875 0q-0.015625 0.53125 -0.28125 0.984375q-0.25 0.453125 -0.6875 0.78125q-0.4375 0.328125 -1.0 0.515625q-0.546875 0.1875 -1.140625 0.1875zm14.136719 -14.21875l-2.171875 0l0 3.0625l-3.328125 0l0 1.6875l3.328125 0l0 6.890625q0 1.171875 0.296875 2.0q0.3125 0.8125 0.859375 1.328125q0.53125 0.53125 1.265625 0.78125q0.734375 0.234375 1.578125 0.234375q0.5 0 1.015625 -0.046875q0.515625 -0.046875 0.96875 -0.140625q0.453125 -0.078125 0.84375 -0.203125q0.390625 -0.125 0.65625 -0.296875l-0.3125 -1.53125q-0.1875 0.046875 -0.5 0.109375q-0.3125 0.0625 -0.671875 0.125q-0.359375 0.0625 -0.734375 0.109375q-0.375 0.03125 -0.71875 0.03125q-0.484375 0 -0.921875 -0.109375q-0.421875 -0.125 -0.75 -0.421875q-0.328125 -0.28125 -0.515625 -0.75q-0.1875 -0.484375 -0.1875 -1.21875l0 -6.890625l4.828125 0l0 -1.6875l-4.828125 0l0 -3.0625zm17.621094 15.75l1.96875 0l0 -12.6875l-2.171875 0l0 9.09375q-0.171875 0.421875 -0.4375 0.765625q-0.265625 0.34375 -0.625 0.59375q-0.421875 0.296875 -1.0 0.46875q-0.5625 0.171875 -1.296875 0.171875q-0.609375 0 -1.09375 -0.15625q-0.46875 -0.171875 -0.796875 -0.578125q-0.328125 -0.40625 -0.5 -1.078125q-0.15625 -0.6875 -0.15625 -1.71875l0 -7.5625l-2.171875 0l0 7.546875q0 1.40625 0.3125 2.421875q0.3125 1.015625 0.890625 1.671875q0.5625 0.65625 1.375 0.96875q0.8125 0.3125 1.8125 0.3125q1.234375 0 2.1875 -0.515625q0.953125 -0.53125 1.578125 -1.46875l0.125 1.75zm14.355469 -12.921875q-1.375 0 -2.46875 0.609375q-1.078125 0.609375 -1.84375 1.640625l-0.015625 -0.3125l-0.09375 -1.703125l-2.0625 0l0 12.6875l2.171875 0l0 -8.140625q0.21875 -0.578125 0.53125 -1.046875q0.328125 -0.484375 0.765625 -0.8125q0.484375 -0.375 1.125 -0.5625q0.640625 -0.203125 1.4375 -0.203125q0.625 0 1.1875 0.078125q0.578125 0.0625 1.203125 0.203125l0.296875 -2.125q-0.328125 -0.140625 -0.984375 -0.21875q-0.640625 -0.09375 -1.25 -0.09375zm11.699219 13.15625q1.859375 0 3.109375 -0.734375q1.265625 -0.75 1.890625 -1.71875l-1.3125 -1.03125q-0.609375 0.78125 -1.515625 1.25q-0.890625 0.46875 -2.046875 0.46875q-0.890625 0 -1.625 -0.328125q-0.71875 -0.328125 -1.234375 -0.90625q-0.5 -0.546875 -0.796875 -1.25q-0.28125 -0.703125 -0.359375 -1.625l0 -0.078125l9.0625 0l0 -0.96875q0 -1.328125 -0.34375 -2.46875q-0.328125 -1.140625 -1.0 -1.984375q-0.6875 -0.828125 -1.71875 -1.296875q-1.015625 -0.484375 -2.390625 -0.484375q-1.09375 0 -2.125 0.453125q-1.03125 0.4375 -1.84375 1.28125q-0.828125 0.84375 -1.328125 2.0625q-0.484375 1.203125 -0.484375 2.734375l0 0.5q0 1.3125 0.4375 2.4375q0.453125 1.125 1.25 1.953125q0.796875 0.8125 1.921875 1.28125q1.125 0.453125 2.453125 0.453125zm-0.28125 -11.375q0.828125 0 1.4375 0.3125q0.609375 0.296875 1.0 0.796875q0.40625 0.484375 0.625 1.171875q0.21875 0.671875 0.21875 1.25l0 0.109375l-6.8125 0q0.125 -0.875 0.4375 -1.546875q0.328125 -0.6875 0.796875 -1.15625q0.46875 -0.453125 1.046875 -0.6875q0.59375 -0.25 1.25 -0.25zm17.511719 7.78125q0 0.296875 -0.125 0.578125q-0.109375 0.265625 -0.328125 0.484375q-0.375 0.359375 -1.015625 0.5625q-0.640625 0.203125 -1.515625 0.203125q-0.546875 0 -1.109375 -0.109375q-0.5625 -0.125 -1.015625 -0.40625q-0.46875 -0.28125 -0.78125 -0.734375q-0.3125 -0.453125 -0.359375 -1.125l-2.171875 0q0 0.8125 0.375 1.5625q0.375 0.75 1.078125 1.3125q0.6875 0.578125 1.6875 0.921875q1.015625 0.34375 2.296875 0.34375q1.125 0 2.078125 -0.265625q0.953125 -0.28125 1.625 -0.765625q0.6875 -0.5 1.0625 -1.1875q0.390625 -0.6875 0.390625 -1.53125q0 -0.78125 -0.34375 -1.375q-0.328125 -0.609375 -0.96875 -1.0625q-0.625 -0.453125 -1.5625 -0.765625q-0.921875 -0.328125 -2.09375 -0.578125q-0.890625 -0.171875 -1.46875 -0.359375q-0.578125 -0.1875 -0.921875 -0.421875q-0.34375 -0.234375 -0.484375 -0.515625q-0.140625 -0.296875 -0.140625 -0.671875q0 -0.375 0.171875 -0.703125q0.171875 -0.34375 0.53125 -0.609375q0.34375 -0.25 0.859375 -0.40625q0.515625 -0.15625 1.21875 -0.15625q0.65625 0 1.1875 0.1875q0.546875 0.1875 0.921875 0.5q0.375 0.296875 0.578125 0.703125q0.21875 0.390625 0.21875 0.796875l2.15625 0q0 -0.828125 -0.359375 -1.546875q-0.34375 -0.734375 -1.0 -1.265625q-0.65625 -0.546875 -1.59375 -0.84375q-0.9375 -0.3125 -2.109375 -0.3125q-1.09375 0 -2.0 0.296875q-0.90625 0.296875 -1.5625 0.796875q-0.65625 0.5 -1.03125 1.1875q-0.359375 0.671875 -0.359375 1.4375q0 0.78125 0.34375 1.375q0.359375 0.59375 1.0 1.03125q0.640625 0.4375 1.53125 0.765625q0.90625 0.3125 1.984375 0.53125q0.890625 0.171875 1.484375 0.390625q0.609375 0.21875 0.96875 0.484375q0.359375 0.25 0.515625 0.5625q0.15625 0.3125 0.15625 0.703125zm8.417969 1.515625l0 -15.21875l-2.15625 0l0 17.0625l10.5 0l0 -1.84375l-8.34375 0zm12.292969 -10.84375l0 1.890625l4.3125 0l0 8.921875l-4.3125 0l0 1.875l10.625 0l0 -1.875l-4.140625 0l0 -10.8125l-6.484375 0zm4.03125 -3.328125q0 0.53125 0.328125 0.890625q0.328125 0.34375 0.984375 0.34375q0.640625 0 0.96875 -0.34375q0.328125 -0.359375 0.328125 -0.890625q0 -0.28125 -0.09375 -0.53125q-0.09375 -0.25 -0.28125 -0.40625q-0.15625 -0.15625 -0.390625 -0.234375q-0.234375 -0.09375 -0.53125 -0.09375q-0.3125 0 -0.5625 0.09375q-0.234375 0.078125 -0.375 0.234375q-0.1875 0.171875 -0.28125 0.421875q-0.09375 0.234375 -0.09375 0.515625zm18.464844 12.65625q0 0.296875 -0.125 0.578125q-0.109375 0.265625 -0.328125 0.484375q-0.375 0.359375 -1.015625 0.5625q-0.640625 0.203125 -1.515625 0.203125q-0.546875 0 -1.109375 -0.109375q-0.5625 -0.125 -1.015625 -0.40625q-0.46875 -0.28125 -0.78125 -0.734375q-0.3125 -0.453125 -0.359375 -1.125l-2.171875 0q0 0.8125 0.375 1.5625q0.375 0.75 1.078125 1.3125q0.6875 0.578125 1.6875 0.921875q1.015625 0.34375 2.296875 0.34375q1.125 0 2.078125 -0.265625q0.953125 -0.28125 1.625 -0.765625q0.6875 -0.5 1.0625 -1.1875q0.390625 -0.6875 0.390625 -1.53125q0 -0.78125 -0.34375 -1.375q-0.328125 -0.609375 -0.96875 -1.0625q-0.625 -0.453125 -1.5625 -0.765625q-0.921875 -0.328125 -2.09375 -0.578125q-0.890625 -0.171875 -1.46875 -0.359375q-0.578125 -0.1875 -0.921875 -0.421875q-0.34375 -0.234375 -0.484375 -0.515625q-0.140625 -0.296875 -0.140625 -0.671875q0 -0.375 0.171875 -0.703125q0.171875 -0.34375 0.53125 -0.609375q0.34375 -0.25 0.859375 -0.40625q0.515625 -0.15625 1.21875 -0.15625q0.65625 0 1.1875 0.1875q0.546875 0.1875 0.921875 0.5q0.375 0.296875 0.578125 0.703125q0.21875 0.390625 0.21875 0.796875l2.15625 0q0 -0.828125 -0.359375 -1.546875q-0.34375 -0.734375 -1.0 -1.265625q-0.65625 -0.546875 -1.59375 -0.84375q-0.9375 -0.3125 -2.109375 -0.3125q-1.09375 0 -2.0 0.296875q-0.90625 0.296875 -1.5625 0.796875q-0.65625 0.5 -1.03125 1.1875q-0.359375 0.671875 -0.359375 1.4375q0 0.78125 0.34375 1.375q0.359375 0.59375 1.0 1.03125q0.640625 0.4375 1.53125 0.765625q0.90625 0.3125 1.984375 0.53125q0.890625 0.171875 1.484375 0.390625q0.609375 0.21875 0.96875 0.484375q0.359375 0.25 0.515625 0.5625q0.15625 0.3125 0.15625 0.703125zm11.105469 -12.390625l-2.171875 0l0 3.0625l-3.328125 0l0 1.6875l3.328125 0l0 6.890625q0 1.171875 0.296875 2.0q0.3125 0.8125 0.859375 1.328125q0.53125 0.53125 1.265625 0.78125q0.734375 0.234375 1.578125 0.234375q0.5 0 1.015625 -0.046875q0.515625 -0.046875 0.96875 -0.140625q0.453125 -0.078125 0.84375 -0.203125q0.390625 -0.125 0.65625 -0.296875l-0.3125 -1.53125q-0.1875 0.046875 -0.5 0.109375q-0.3125 0.0625 -0.671875 0.125q-0.359375 0.0625 -0.734375 0.109375q-0.375 0.03125 -0.71875 0.03125q-0.484375 0 -0.921875 -0.109375q-0.421875 -0.125 -0.75 -0.421875q-0.328125 -0.28125 -0.515625 -0.75q-0.1875 -0.484375 -0.1875 -1.21875l0 -6.890625l4.828125 0l0 -1.6875l-4.828125 0l0 -3.0625z" fill-rule="nonzero"/><path fill="#ffffff" d="m502.59854 315.86353l207.40158 0l0 77.921265l-207.40158 0z" fill-rule="evenodd"/><path stroke="#000000" stroke-width="1.0" stroke-linejoin="round" stroke-linecap="butt" d="m502.59854 315.86353l207.40158 0l0 77.921265l-207.40158 0z" fill-rule="evenodd"/><path fill="#000000" d="m514.73096 346.30164l0 1.890625l3.984375 0l0 13.296875l-3.984375 0l0 1.875l10.3125 0l0 -1.875l-4.09375 0l0 -13.296875l4.09375 0l0 -1.890625l-10.3125 0zm14.402344 17.0625l2.15625 0l0 -9.09375q0.234375 -0.40625 0.53125 -0.75q0.296875 -0.34375 0.640625 -0.59375q0.4375 -0.296875 0.953125 -0.46875q0.515625 -0.171875 1.109375 -0.171875q0.703125 0 1.234375 0.171875q0.53125 0.15625 0.90625 0.515625q0.359375 0.375 0.546875 0.96875q0.1875 0.578125 0.1875 1.421875l0 8.0l2.171875 0l0 -8.046875q0 -1.265625 -0.3125 -2.1875q-0.3125 -0.921875 -0.890625 -1.515625q-0.5625 -0.609375 -1.390625 -0.890625q-0.8125 -0.28125 -1.796875 -0.28125q-0.75 0.015625 -1.40625 0.21875q-0.65625 0.203125 -1.21875 0.578125q-0.375 0.25 -0.71875 0.59375q-0.328125 0.328125 -0.609375 0.71875l-0.15625 -1.875l-1.9375 0l0 12.6875zm22.824219 -3.359375q0 0.296875 -0.125 0.578125q-0.109375 0.265625 -0.328125 0.484375q-0.375 0.359375 -1.015625 0.5625q-0.640625 0.203125 -1.515625 0.203125q-0.546875 0 -1.109375 -0.109375q-0.5625 -0.125 -1.015625 -0.40625q-0.46875 -0.28125 -0.78125 -0.734375q-0.3125 -0.453125 -0.359375 -1.125l-2.171875 0q0 0.8125 0.375 1.5625q0.375 0.75 1.078125 1.3125q0.6875 0.578125 1.6875 0.921875q1.015625 0.34375 2.296875 0.34375q1.125 0 2.078125 -0.265625q0.953125 -0.28125 1.625 -0.765625q0.6875 -0.5 1.0625 -1.1875q0.390625 -0.6875 0.390625 -1.53125q0 -0.78125 -0.34375 -1.375q-0.328125 -0.609375 -0.96875 -1.0625q-0.625 -0.453125 -1.5625 -0.765625q-0.921875 -0.328125 -2.09375 -0.578125q-0.890625 -0.171875 -1.46875 -0.359375q-0.578125 -0.1875 -0.921875 -0.421875q-0.34375 -0.234375 -0.484375 -0.515625q-0.140625 -0.296875 -0.140625 -0.671875q0 -0.375 0.171875 -0.703125q0.171875 -0.34375 0.53125 -0.609375q0.34375 -0.25 0.859375 -0.40625q0.515625 -0.15625 1.21875 -0.15625q0.65625 0 1.1875 0.1875q0.546875 0.1875 0.921875 0.5q0.375 0.296875 0.578125 0.703125q0.21875 0.390625 0.21875 0.796875l2.15625 0q0 -0.828125 -0.359375 -1.546875q-0.34375 -0.734375 -1.0 -1.265625q-0.65625 -0.546875 -1.59375 -0.84375q-0.9375 -0.3125 -2.109375 -0.3125q-1.09375 0 -2.0 0.296875q-0.90625 0.296875 -1.5625 0.796875q-0.65625 0.5 -1.03125 1.1875q-0.359375 0.671875 -0.359375 1.4375q0 0.78125 0.34375 1.375q0.359375 0.59375 1.0 1.03125q0.640625 0.4375 1.53125 0.765625q0.90625 0.3125 1.984375 0.53125q0.890625 0.171875 1.484375 0.390625q0.609375 0.21875 0.96875 0.484375q0.359375 0.25 0.515625 0.5625q0.15625 0.3125 0.15625 0.703125zm11.105469 -12.390625l-2.171875 0l0 3.0625l-3.328125 0l0 1.6875l3.328125 0l0 6.890625q0 1.171875 0.296875 2.0q0.3125 0.8125 0.859375 1.328125q0.53125 0.53125 1.265625 0.78125q0.734375 0.234375 1.578125 0.234375q0.5 0 1.015625 -0.046875q0.515625 -0.046875 0.96875 -0.140625q0.453125 -0.078125 0.84375 -0.203125q0.390625 -0.125 0.65625 -0.296875l-0.3125 -1.53125q-0.1875 0.046875 -0.5 0.109375q-0.3125 0.0625 -0.671875 0.125q-0.359375 0.0625 -0.734375 0.109375q-0.375 0.03125 -0.71875 0.03125q-0.484375 0 -0.921875 -0.109375q-0.421875 -0.125 -0.75 -0.421875q-0.328125 -0.28125 -0.515625 -0.75q-0.1875 -0.484375 -0.1875 -1.21875l0 -6.890625l4.828125 0l0 -1.6875l-4.828125 0l0 -3.0625zm17.605469 15.75l2.265625 0l0 -0.1875q-0.21875 -0.53125 -0.34375 -1.234375q-0.109375 -0.71875 -0.109375 -1.34375l0 -5.890625q0 -1.078125 -0.390625 -1.875q-0.375 -0.796875 -1.046875 -1.328125q-0.6875 -0.53125 -1.609375 -0.796875q-0.921875 -0.265625 -2.0 -0.265625q-1.1875 0 -2.125 0.328125q-0.921875 0.328125 -1.5625 0.859375q-0.65625 0.546875 -1.015625 1.21875q-0.34375 0.65625 -0.34375 1.34375l2.171875 0q0 -0.390625 0.1875 -0.75q0.203125 -0.375 0.546875 -0.65625q0.359375 -0.265625 0.859375 -0.421875q0.515625 -0.171875 1.15625 -0.171875q0.703125 0 1.25 0.1875q0.5625 0.171875 0.953125 0.484375q0.375 0.328125 0.578125 0.78125q0.21875 0.453125 0.21875 1.03125l0 1.0l-2.359375 0q-1.328125 0 -2.40625 0.265625q-1.0625 0.25 -1.828125 0.765625q-0.765625 0.53125 -1.1875 1.3125q-0.40625 0.78125 -0.40625 1.828125q0 0.796875 0.3125 1.484375q0.3125 0.6875 0.890625 1.171875q0.5625 0.5 1.375 0.796875q0.8125 0.296875 1.8125 0.296875q0.625 0 1.171875 -0.140625q0.5625 -0.125 1.046875 -0.34375q0.484375 -0.21875 0.890625 -0.515625q0.40625 -0.296875 0.734375 -0.625q0.03125 0.40625 0.109375 0.78125q0.078125 0.359375 0.203125 0.609375zm-3.828125 -1.65625q-0.640625 0 -1.125 -0.15625q-0.46875 -0.171875 -0.796875 -0.46875q-0.3125 -0.28125 -0.46875 -0.671875q-0.15625 -0.40625 -0.15625 -0.875q0 -0.484375 0.171875 -0.875q0.1875 -0.390625 0.546875 -0.671875q0.484375 -0.390625 1.3125 -0.578125q0.84375 -0.203125 1.96875 -0.203125l2.015625 0l0 2.5625q-0.1875 0.375 -0.515625 0.734375q-0.328125 0.34375 -0.765625 0.609375q-0.453125 0.265625 -1.015625 0.4375q-0.546875 0.15625 -1.171875 0.15625zm9.496094 -4.796875l0 0.25q0 1.359375 0.34375 2.546875q0.359375 1.171875 1.015625 2.03125q0.640625 0.875 1.578125 1.375q0.9375 0.484375 2.109375 0.484375q0.6875 0 1.28125 -0.15625q0.59375 -0.140625 1.09375 -0.40625q0.3125 -0.171875 0.578125 -0.40625q0.28125 -0.234375 0.53125 -0.515625l0 1.078125q0 0.828125 -0.234375 1.453125q-0.234375 0.640625 -0.671875 1.0625q-0.4375 0.4375 -1.0625 0.65625q-0.625 0.21875 -1.390625 0.21875q-0.4375 0 -0.875 -0.09375q-0.421875 -0.078125 -0.859375 -0.28125q-0.4375 -0.1875 -0.859375 -0.53125q-0.421875 -0.328125 -0.8125 -0.8125l-1.125 1.296875q0.421875 0.625 1.03125 1.046875q0.609375 0.421875 1.265625 0.671875q0.640625 0.25 1.265625 0.359375q0.640625 0.125 1.125 0.125q1.203125 0 2.1875 -0.359375q0.984375 -0.34375 1.703125 -1.03125q0.703125 -0.671875 1.09375 -1.65625q0.390625 -0.96875 0.390625 -2.21875l0 -12.421875l-1.96875 0l-0.109375 1.390625q-0.21875 -0.28125 -0.46875 -0.515625q-0.25 -0.234375 -0.53125 -0.40625q-0.515625 -0.34375 -1.15625 -0.515625q-0.640625 -0.1875 -1.40625 -0.1875q-1.1875 0 -2.125 0.484375q-0.9375 0.484375 -1.59375 1.34375q-0.65625 0.84375 -1.0 2.046875q-0.34375 1.1875 -0.34375 2.59375zm2.171875 0.25l0 -0.25q0 -0.921875 0.1875 -1.75q0.203125 -0.84375 0.625 -1.484375q0.40625 -0.640625 1.046875 -1.015625q0.65625 -0.375 1.578125 -0.375q0.53125 0 0.96875 0.140625q0.453125 0.125 0.8125 0.359375q0.375 0.25 0.65625 0.578125q0.28125 0.328125 0.484375 0.734375l0 5.8125q-0.203125 0.40625 -0.484375 0.75q-0.28125 0.328125 -0.640625 0.578125q-0.359375 0.25 -0.8125 0.390625q-0.453125 0.125 -1.015625 0.125q-0.90625 0 -1.546875 -0.359375q-0.640625 -0.375 -1.046875 -1.015625q-0.421875 -0.625 -0.625 -1.453125q-0.1875 -0.84375 -0.1875 -1.765625zm20.933594 -6.71875q-1.375 0 -2.46875 0.609375q-1.078125 0.609375 -1.84375 1.640625l-0.015625 -0.3125l-0.09375 -1.703125l-2.0625 0l0 12.6875l2.171875 0l0 -8.140625q0.21875 -0.578125 0.53125 -1.046875q0.328125 -0.484375 0.765625 -0.8125q0.484375 -0.375 1.125 -0.5625q0.640625 -0.203125 1.4375 -0.203125q0.625 0 1.1875 0.078125q0.578125 0.0625 1.203125 0.203125l0.296875 -2.125q-0.328125 -0.140625 -0.984375 -0.21875q-0.640625 -0.09375 -1.25 -0.09375zm14.433594 12.921875l2.265625 0l0 -0.1875q-0.21875 -0.53125 -0.34375 -1.234375q-0.109375 -0.71875 -0.109375 -1.34375l0 -5.890625q0 -1.078125 -0.390625 -1.875q-0.375 -0.796875 -1.046875 -1.328125q-0.6875 -0.53125 -1.609375 -0.796875q-0.921875 -0.265625 -2.0 -0.265625q-1.1875 0 -2.125 0.328125q-0.921875 0.328125 -1.5625 0.859375q-0.65625 0.546875 -1.015625 1.21875q-0.34375 0.65625 -0.34375 1.34375l2.171875 0q0 -0.390625 0.1875 -0.75q0.203125 -0.375 0.546875 -0.65625q0.359375 -0.265625 0.859375 -0.421875q0.515625 -0.171875 1.15625 -0.171875q0.703125 0 1.25 0.1875q0.5625 0.171875 0.953125 0.484375q0.375 0.328125 0.578125 0.78125q0.21875 0.453125 0.21875 1.03125l0 1.0l-2.359375 0q-1.328125 0 -2.40625 0.265625q-1.0625 0.25 -1.828125 0.765625q-0.765625 0.53125 -1.1875 1.3125q-0.40625 0.78125 -0.40625 1.828125q0 0.796875 0.3125 1.484375q0.3125 0.6875 0.890625 1.171875q0.5625 0.5 1.375 0.796875q0.8125 0.296875 1.8125 0.296875q0.625 0 1.171875 -0.140625q0.5625 -0.125 1.046875 -0.34375q0.484375 -0.21875 0.890625 -0.515625q0.40625 -0.296875 0.734375 -0.625q0.03125 0.40625 0.109375 0.78125q0.078125 0.359375 0.203125 0.609375zm-3.828125 -1.65625q-0.640625 0 -1.125 -0.15625q-0.46875 -0.171875 -0.796875 -0.46875q-0.3125 -0.28125 -0.46875 -0.671875q-0.15625 -0.40625 -0.15625 -0.875q0 -0.484375 0.171875 -0.875q0.1875 -0.390625 0.546875 -0.671875q0.484375 -0.390625 1.3125 -0.578125q0.84375 -0.203125 1.96875 -0.203125l2.015625 0l0 2.5625q-0.1875 0.375 -0.515625 0.734375q-0.328125 0.34375 -0.765625 0.609375q-0.453125 0.265625 -1.015625 0.4375q-0.546875 0.15625 -1.171875 0.15625zm10.886719 -11.03125l-1.9375 0l0 12.6875l2.0625 0l0 -10.09375q0.0625 -0.1875 0.171875 -0.34375q0.125 -0.171875 0.265625 -0.296875q0.203125 -0.171875 0.484375 -0.25q0.296875 -0.09375 0.6875 -0.09375q0.34375 0 0.609375 0.09375q0.265625 0.078125 0.4375 0.265625q0.1875 0.203125 0.265625 0.515625q0.09375 0.296875 0.09375 0.703125l0 9.5l2.0625 0l0 -9.5q0 -0.0625 0 -0.109375q0 -0.0625 0 -0.125q0.046875 -0.28125 0.140625 -0.515625q0.109375 -0.25 0.296875 -0.4375q0.1875 -0.171875 0.46875 -0.28125q0.28125 -0.109375 0.671875 -0.109375q0.359375 0 0.625 0.09375q0.28125 0.09375 0.46875 0.28125q0.1875 0.203125 0.28125 0.515625q0.09375 0.296875 0.09375 0.6875l0 9.5l2.0625 0l0 -9.46875q0 -0.921875 -0.21875 -1.59375q-0.203125 -0.671875 -0.609375 -1.09375q-0.359375 -0.375 -0.890625 -0.5625q-0.53125 -0.203125 -1.1875 -0.203125q-0.46875 0.015625 -0.875 0.140625q-0.40625 0.109375 -0.734375 0.3125q-0.265625 0.171875 -0.484375 0.40625q-0.21875 0.234375 -0.390625 0.5q-0.125 -0.28125 -0.3125 -0.515625q-0.171875 -0.234375 -0.390625 -0.40625q-0.3125 -0.203125 -0.71875 -0.3125q-0.40625 -0.125 -0.90625 -0.125q-0.890625 0.015625 -1.515625 0.390625q-0.625 0.375 -1.015625 1.046875l-0.0625 -1.203125zm15.777344 5.84375l3.359375 0q1.15625 -0.015625 2.171875 -0.34375q1.03125 -0.34375 1.8125 -1.0q0.765625 -0.640625 1.21875 -1.578125q0.453125 -0.953125 0.453125 -2.171875q0 -1.234375 -0.453125 -2.1875q-0.453125 -0.953125 -1.21875 -1.59375q-0.78125 -0.640625 -1.8125 -0.984375q-1.015625 -0.34375 -2.171875 -0.359375l-5.53125 0l0 17.0625l2.171875 0l0 -6.84375zm0 -1.78125l0 -6.65625l3.359375 0q0.75 0.015625 1.390625 0.25q0.640625 0.234375 1.109375 0.65625q0.453125 0.4375 0.71875 1.0625q0.265625 0.625 0.265625 1.390625q0 0.78125 -0.265625 1.390625q-0.265625 0.59375 -0.734375 1.015625q-0.46875 0.421875 -1.109375 0.65625q-0.625 0.21875 -1.375 0.234375l-3.359375 0zm11.433594 2.171875l0 0.25q0 1.375 0.390625 2.546875q0.40625 1.171875 1.15625 2.03125q0.734375 0.875 1.796875 1.375q1.078125 0.484375 2.421875 0.484375q1.34375 0 2.40625 -0.484375q1.0625 -0.5 1.8125 -1.375q0.75 -0.859375 1.140625 -2.03125q0.40625 -1.171875 0.40625 -2.546875l0 -0.25q0 -1.375 -0.40625 -2.546875q-0.390625 -1.1875 -1.140625 -2.046875q-0.75 -0.875 -1.828125 -1.375q-1.0625 -0.5 -2.40625 -0.5q-1.34375 0 -2.40625 0.5q-1.0625 0.5 -1.796875 1.375q-0.75 0.859375 -1.15625 2.046875q-0.390625 1.171875 -0.390625 2.546875zm2.15625 0.25l0 -0.25q0 -0.9375 0.21875 -1.78125q0.234375 -0.84375 0.6875 -1.5q0.453125 -0.640625 1.109375 -1.015625q0.671875 -0.390625 1.578125 -0.390625q0.90625 0 1.578125 0.390625q0.671875 0.375 1.125 1.015625q0.453125 0.65625 0.671875 1.5q0.234375 0.84375 0.234375 1.78125l0 0.25q0 0.9375 -0.234375 1.796875q-0.21875 0.84375 -0.65625 1.484375q-0.453125 0.640625 -1.140625 1.015625q-0.671875 0.375 -1.5625 0.375q-0.890625 0 -1.578125 -0.375q-0.671875 -0.375 -1.125 -1.015625q-0.453125 -0.640625 -0.6875 -1.484375q-0.21875 -0.859375 -0.21875 -1.796875zm21.277344 2.84375q0 0.296875 -0.125 0.578125q-0.109375 0.265625 -0.328125 0.484375q-0.375 0.359375 -1.015625 0.5625q-0.640625 0.203125 -1.515625 0.203125q-0.546875 0 -1.109375 -0.109375q-0.5625 -0.125 -1.015625 -0.40625q-0.46875 -0.28125 -0.78125 -0.734375q-0.3125 -0.453125 -0.359375 -1.125l-2.171875 0q0 0.8125 0.375 1.5625q0.375 0.75 1.078125 1.3125q0.6875 0.578125 1.6875 0.921875q1.015625 0.34375 2.296875 0.34375q1.125 0 2.078125 -0.265625q0.953125 -0.28125 1.625 -0.765625q0.6875 -0.5 1.0625 -1.1875q0.390625 -0.6875 0.390625 -1.53125q0 -0.78125 -0.34375 -1.375q-0.328125 -0.609375 -0.96875 -1.0625q-0.625 -0.453125 -1.5625 -0.765625q-0.921875 -0.328125 -2.09375 -0.578125q-0.890625 -0.171875 -1.46875 -0.359375q-0.578125 -0.1875 -0.921875 -0.421875q-0.34375 -0.234375 -0.484375 -0.515625q-0.140625 -0.296875 -0.140625 -0.671875q0 -0.375 0.171875 -0.703125q0.171875 -0.34375 0.53125 -0.609375q0.34375 -0.25 0.859375 -0.40625q0.515625 -0.15625 1.21875 -0.15625q0.65625 0 1.1875 0.1875q0.546875 0.1875 0.921875 0.5q0.375 0.296875 0.578125 0.703125q0.21875 0.390625 0.21875 0.796875l2.15625 0q0 -0.828125 -0.359375 -1.546875q-0.34375 -0.734375 -1.0 -1.265625q-0.65625 -0.546875 -1.59375 -0.84375q-0.9375 -0.3125 -2.109375 -0.3125q-1.09375 0 -2.0 0.296875q-0.90625 0.296875 -1.5625 0.796875q-0.65625 0.5 -1.03125 1.1875q-0.359375 0.671875 -0.359375 1.4375q0 0.78125 0.34375 1.375q0.359375 0.59375 1.0 1.03125q0.640625 0.4375 1.53125 0.765625q0.90625 0.3125 1.984375 0.53125q0.890625 0.171875 1.484375 0.390625q0.609375 0.21875 0.96875 0.484375q0.359375 0.25 0.515625 0.5625q0.15625 0.3125 0.15625 0.703125zm11.105469 -12.390625l-2.171875 0l0 3.0625l-3.328125 0l0 1.6875l3.328125 0l0 6.890625q0 1.171875 0.296875 2.0q0.3125 0.8125 0.859375 1.328125q0.53125 0.53125 1.265625 0.78125q0.734375 0.234375 1.578125 0.234375q0.5 0 1.015625 -0.046875q0.515625 -0.046875 0.96875 -0.140625q0.453125 -0.078125 0.84375 -0.203125q0.390625 -0.125 0.65625 -0.296875l-0.3125 -1.53125q-0.1875 0.046875 -0.5 0.109375q-0.3125 0.0625 -0.671875 0.125q-0.359375 0.0625 -0.734375 0.109375q-0.375 0.03125 -0.71875 0.03125q-0.484375 0 -0.921875 -0.109375q-0.421875 -0.125 -0.75 -0.421875q-0.328125 -0.28125 -0.515625 -0.75q-0.1875 -0.484375 -0.1875 -1.21875l0 -6.890625l4.828125 0l0 -1.6875l-4.828125 0l0 -3.0625z" fill-rule="nonzero"/><path fill="#000000" fill-opacity="0.0" d="m357.26242 81.67454l0 47.368187l-256.9449 0l0 47.37198" fill-rule="evenodd"/><path stroke="#000000" stroke-width="1.0" stroke-linejoin="round" stroke-linecap="butt" d="m357.26242 81.67454l0 47.368187l-256.9449 0l0 41.37198" fill-rule="evenodd"/><path fill="#000000" stroke="#000000" stroke-width="1.0" stroke-linecap="butt" d="m98.66581 170.4147l1.6517334 4.538086l1.6517334 -4.538086z" fill-rule="evenodd"/><path fill="#000000" fill-opacity="0.0" d="m357.26242 81.67454l0 47.369133l249.0394 0l0 47.371033" fill-rule="evenodd"/><path stroke="#000000" stroke-width="1.0" stroke-linejoin="round" stroke-linecap="butt" d="m357.26242 81.67454l0 47.369133l249.0394 0l0 41.371033" fill-rule="evenodd"/><path fill="#000000" stroke="#000000" stroke-width="1.0" stroke-linecap="butt" d="m604.6501 170.4147l1.6517334 4.538086l1.6517334 -4.538086z" fill-rule="evenodd"/><path fill="#000000" fill-opacity="0.0" d="m357.26242 81.67454l0 47.368187l-0.12597656 0l0 47.37198" fill-rule="evenodd"/><path stroke="#000000" stroke-width="1.0" stroke-linejoin="round" stroke-linecap="butt" d="m357.26242 81.67454l0 47.368187l-0.12597656 0l0 41.37198" fill-rule="evenodd"/><path fill="#000000" stroke="#000000" stroke-width="1.0" stroke-linecap="butt" d="m355.4847 170.4147l1.6517334 4.538086l1.6517334 -4.538086z" fill-rule="evenodd"/><path fill="#000000" fill-opacity="0.0" d="m606.2993 254.33333l0 61.54332" fill-rule="evenodd"/><path stroke="#000000" stroke-width="1.0" stroke-linejoin="round" stroke-linecap="butt" d="m606.2993 254.33333l0 55.54332" fill-rule="evenodd"/><path fill="#000000" stroke="#000000" stroke-width="1.0" stroke-linecap="butt" d="m604.6476 309.87665l1.6517334 4.538086l1.6517334 -4.538086z" fill-rule="evenodd"/><path fill="#ffffff" d="m57.380577 137.88452l85.88976 0l0 18.078735l-85.88976 0z" fill-rule="evenodd"/><path fill="#000000" d="m71.53901 143.66388l-0.96875 0l0 1.375l-1.484375 0l0 0.734375l1.484375 0l0 3.0625q0 0.515625 0.140625 0.890625q0.140625 0.359375 0.375 0.59375q0.234375 0.234375 0.5625 0.34375q0.328125 0.109375 0.703125 0.109375q0.21875 0 0.4375 -0.03125q0.234375 -0.015625 0.4375 -0.0625q0.203125 -0.03125 0.375 -0.078125q0.171875 -0.0625 0.296875 -0.140625l-0.140625 -0.671875q-0.09375 0.015625 -0.234375 0.046875q-0.125 0.03125 -0.28125 0.046875q-0.171875 0.03125 -0.34375 0.046875q-0.15625 0.015625 -0.3125 0.015625q-0.21875 0 -0.40625 -0.046875q-0.1875 -0.046875 -0.328125 -0.1875q-0.15625 -0.125 -0.234375 -0.328125q-0.078125 -0.21875 -0.078125 -0.546875l0 -3.0625l2.140625 0l0 -0.734375l-2.140625 0l0 -1.375zm3.8479156 4.140625l0 0.109375q0 0.609375 0.171875 1.125q0.171875 0.515625 0.515625 0.90625q0.328125 0.390625 0.796875 0.609375q0.484375 0.21875 1.078125 0.21875q0.59375 0 1.0625 -0.21875q0.46875 -0.21875 0.8125 -0.609375q0.328125 -0.390625 0.5 -0.90625q0.171875 -0.515625 0.171875 -1.125l0 -0.109375q0 -0.609375 -0.171875 -1.125q-0.171875 -0.53125 -0.5 -0.921875q-0.34375 -0.390625 -0.828125 -0.609375q-0.46875 -0.21875 -1.0625 -0.21875q-0.59375 0 -1.0625 0.21875q-0.46875 0.21875 -0.796875 0.609375q-0.34375 0.390625 -0.515625 0.921875q-0.171875 0.515625 -0.171875 1.125zm0.953125 0.109375l0 -0.109375q0 -0.421875 0.09375 -0.796875q0.109375 -0.375 0.3125 -0.65625q0.203125 -0.296875 0.484375 -0.453125q0.296875 -0.171875 0.703125 -0.171875q0.40625 0 0.703125 0.171875q0.296875 0.15625 0.5 0.453125q0.203125 0.28125 0.296875 0.65625q0.109375 0.375 0.109375 0.796875l0 0.109375q0 0.40625 -0.109375 0.796875q-0.09375 0.375 -0.296875 0.65625q-0.203125 0.28125 -0.5 0.453125q-0.296875 0.171875 -0.6875 0.171875q-0.40625 0 -0.703125 -0.171875q-0.296875 -0.171875 -0.5 -0.453125q-0.203125 -0.28125 -0.3125 -0.65625q-0.09375 -0.390625 -0.09375 -0.796875zm7.9885406 -4.25l-0.96875 0l0 1.375l-1.484375 0l0 0.734375l1.484375 0l0 3.0625q0 0.515625 0.140625 0.890625q0.140625 0.359375 0.375 0.59375q0.234375 0.234375 0.5625 0.34375q0.328125 0.109375 0.703125 0.109375q0.21875 0 0.4375 -0.03125q0.234375 -0.015625 0.4375 -0.0625q0.203125 -0.03125 0.375 -0.078125q0.171875 -0.0625 0.296875 -0.140625l-0.140625 -0.671875q-0.09375 0.015625 -0.234375 0.046875q-0.125 0.03125 -0.28125 0.046875q-0.171875 0.03125 -0.34375 0.046875q-0.15625 0.015625 -0.3125 0.015625q-0.21875 0 -0.40625 -0.046875q-0.1875 -0.046875 -0.328125 -0.1875q-0.15625 -0.125 -0.234375 -0.328125q-0.078125 -0.21875 -0.078125 -0.546875l0 -3.0625l2.140625 0l0 -0.734375l-2.140625 0l0 -1.375zm7.8166656 7.0l1.0 0l0 -0.078125q-0.09375 -0.234375 -0.15625 -0.546875q-0.046875 -0.328125 -0.046875 -0.609375l0 -2.609375q0 -0.46875 -0.171875 -0.828125q-0.171875 -0.359375 -0.46875 -0.59375q-0.296875 -0.234375 -0.71875 -0.34375q-0.40625 -0.125 -0.875 -0.125q-0.53125 0 -0.953125 0.15625q-0.40625 0.140625 -0.6875 0.375q-0.296875 0.234375 -0.453125 0.53125q-0.140625 0.296875 -0.15625 0.609375l0.96875 0q0 -0.1875 0.078125 -0.34375q0.09375 -0.171875 0.25 -0.28125q0.15625 -0.125 0.375 -0.1875q0.234375 -0.078125 0.515625 -0.078125q0.3125 0 0.5625 0.078125q0.25 0.078125 0.421875 0.21875q0.171875 0.140625 0.265625 0.34375q0.09375 0.203125 0.09375 0.453125l0 0.453125l-1.0625 0q-0.578125 0 -1.0625 0.109375q-0.46875 0.109375 -0.8125 0.34375q-0.328125 0.234375 -0.515625 0.578125q-0.1875 0.34375 -0.1875 0.8125q0 0.359375 0.140625 0.671875q0.140625 0.296875 0.390625 0.515625q0.25 0.21875 0.609375 0.359375q0.359375 0.125 0.8125 0.125q0.265625 0 0.515625 -0.0625q0.25 -0.0625 0.46875 -0.15625q0.203125 -0.09375 0.375 -0.21875q0.1875 -0.140625 0.34375 -0.28125q0.015625 0.171875 0.046875 0.34375q0.03125 0.15625 0.09375 0.265625zm-1.703125 -0.734375q-0.28125 0 -0.5 -0.0625q-0.203125 -0.078125 -0.34375 -0.21875q-0.140625 -0.125 -0.21875 -0.296875q-0.0625 -0.171875 -0.0625 -0.390625q0 -0.21875 0.078125 -0.390625q0.078125 -0.171875 0.234375 -0.296875q0.21875 -0.171875 0.578125 -0.25q0.375 -0.09375 0.875 -0.09375l0.90625 0l0 1.140625q-0.09375 0.171875 -0.234375 0.328125q-0.140625 0.140625 -0.34375 0.265625q-0.203125 0.125 -0.453125 0.203125q-0.234375 0.0625 -0.515625 0.0625zm4.5510406 -7.265625l0 0.84375l1.90625 0l0 6.328125l-1.90625 0l0 0.828125l4.703125 0l0 -0.828125l-1.828125 0l0 -7.171875l-2.875 0zm7.3322906 7.1875l0 -6.765625l-0.96875 0l0 7.578125l4.671875 0l0 -0.8125l-3.703125 0zm5.4572906 -4.8125l0 0.828125l1.90625 0l0 3.96875l-1.90625 0l0 0.828125l4.703125 0l0 -0.828125l-1.828125 0l0 -4.796875l-2.875 0zm1.78125 -1.484375q0 0.234375 0.140625 0.390625q0.140625 0.15625 0.4375 0.15625q0.28125 0 0.421875 -0.15625q0.15625 -0.15625 0.15625 -0.390625q0 -0.125 -0.046875 -0.234375q-0.03125 -0.109375 -0.125 -0.1875q-0.0625 -0.0625 -0.171875 -0.09375q-0.09375 -0.046875 -0.234375 -0.046875q-0.140625 0 -0.25 0.046875q-0.09375 0.03125 -0.171875 0.09375q-0.078125 0.078125 -0.125 0.1875q-0.03125 0.109375 -0.03125 0.234375zm6.1447906 4.484375l2.0625 2.625l1.21875 0l-2.625 -3.28125l2.28125 -2.34375l-1.171875 0l-1.84375 1.84375l-0.625 0.6875l0 -4.90625l-0.96875 0l0 8.0l0.96875 0l0 -1.953125l0.703125 -0.671875zm7.1916656 2.734375q0.828125 0 1.375 -0.328125q0.5625 -0.34375 0.84375 -0.765625l-0.578125 -0.453125q-0.265625 0.34375 -0.671875 0.546875q-0.40625 0.203125 -0.921875 0.203125q-0.390625 0 -0.71875 -0.140625q-0.3125 -0.140625 -0.53125 -0.40625q-0.234375 -0.234375 -0.359375 -0.546875q-0.125 -0.3125 -0.15625 -0.71875l0 -0.046875l4.015625 0l0 -0.421875q0 -0.59375 -0.15625 -1.09375q-0.140625 -0.5 -0.4375 -0.875q-0.3125 -0.375 -0.765625 -0.578125q-0.453125 -0.21875 -1.0625 -0.21875q-0.484375 0 -0.953125 0.203125q-0.453125 0.1875 -0.8125 0.5625q-0.359375 0.375 -0.578125 0.921875q-0.21875 0.53125 -0.21875 1.21875l0 0.203125q0 0.59375 0.1875 1.09375q0.203125 0.5 0.5625 0.859375q0.359375 0.375 0.84375 0.578125q0.5 0.203125 1.09375 0.203125zm-0.125 -5.046875q0.375 0 0.640625 0.140625q0.265625 0.125 0.4375 0.34375q0.1875 0.21875 0.28125 0.515625q0.09375 0.296875 0.09375 0.5625l0 0.046875l-3.015625 0q0.046875 -0.390625 0.1875 -0.6875q0.15625 -0.296875 0.359375 -0.515625q0.203125 -0.203125 0.453125 -0.296875q0.265625 -0.109375 0.5625 -0.109375zm7.7697983 3.4375q0 0.140625 -0.046875 0.265625q-0.046875 0.109375 -0.15625 0.21875q-0.15625 0.15625 -0.453125 0.25q-0.28125 0.09375 -0.65625 0.09375q-0.25 0 -0.5 -0.046875q-0.25 -0.0625 -0.453125 -0.1875q-0.203125 -0.125 -0.34375763 -0.328125q-0.140625 -0.203125 -0.15625 -0.5l-0.96875 0q0 0.359375 0.15625 0.703125q0.171875 0.328125 0.484375 0.578125q0.3125 0.25 0.7500076 0.40625q0.453125 0.15625 1.03125 0.15625q0.5 0 0.921875 -0.125q0.421875 -0.125 0.71875 -0.34375q0.296875 -0.21875 0.46875 -0.515625q0.171875 -0.3125 0.171875 -0.6875q0 -0.34375 -0.15625 -0.609375q-0.140625 -0.265625 -0.421875 -0.46875q-0.28125 -0.203125 -0.703125 -0.34375q-0.40625 -0.140625 -0.921875 -0.25q-0.390625 -0.078125 -0.65625 -0.15625q-0.25 -0.09375 -0.40625 -0.1875q-0.15625 -0.109375 -0.21875 -0.234375q-0.06250763 -0.140625 -0.06250763 -0.296875q0 -0.171875 0.07813263 -0.3125q0.078125 -0.15625 0.234375 -0.265625q0.15625 -0.125 0.375 -0.1875q0.234375 -0.0625 0.546875 -0.0625q0.296875 0 0.53125 0.078125q0.234375 0.078125 0.40625 0.21875q0.171875 0.140625 0.265625 0.3125q0.09375 0.171875 0.09375 0.359375l0.953125 0q0 -0.375 -0.15625 -0.6875q-0.15625 -0.328125 -0.453125 -0.5625q-0.28125 -0.25 -0.703125 -0.375q-0.421875 -0.140625 -0.9375 -0.140625q-0.484375 0 -0.890625 0.140625q-0.39063263 0.125 -0.6875076 0.34375q-0.296875 0.21875 -0.453125 0.53125q-0.15625 0.296875 -0.15625 0.640625q0 0.34375 0.15625 0.609375q0.15625 0.265625 0.4375 0.453125q0.28125 0.203125 0.6718826 0.34375q0.40625 0.125 0.890625 0.234375q0.390625 0.078125 0.65625 0.171875q0.265625 0.09375 0.421875 0.203125q0.171875 0.125 0.234375 0.265625q0.0625 0.125 0.0625 0.296875z" fill-rule="nonzero"/><path fill="#ffffff" d="m554.0315 137.88452l104.53546 0l0 18.078735l-104.53546 0z" fill-rule="evenodd"/><path fill="#000000" d="m569.3737 149.16388q0 0.140625 -0.046875 0.265625q-0.046875 0.109375 -0.15625 0.21875q-0.15625 0.15625 -0.453125 0.25q-0.28125 0.09375 -0.65625 0.09375q-0.25 0 -0.5 -0.046875q-0.25 -0.0625 -0.453125 -0.1875q-0.203125 -0.125 -0.34375 -0.328125q-0.140625 -0.203125 -0.15625 -0.5l-0.96875 0q0 0.359375 0.15625 0.703125q0.171875 0.328125 0.484375 0.578125q0.3125 0.25 0.75 0.40625q0.453125 0.15625 1.03125 0.15625q0.5 0 0.921875 -0.125q0.421875 -0.125 0.71875 -0.34375q0.296875 -0.21875 0.46875 -0.515625q0.171875 -0.3125 0.171875 -0.6875q0 -0.34375 -0.15625 -0.609375q-0.140625 -0.265625 -0.421875 -0.46875q-0.28125 -0.203125 -0.703125 -0.34375q-0.40625 -0.140625 -0.921875 -0.25q-0.390625 -0.078125 -0.65625 -0.15625q-0.25 -0.09375 -0.40625 -0.1875q-0.15625 -0.109375 -0.21875 -0.234375q-0.0625 -0.140625 -0.0625 -0.296875q0 -0.171875 0.078125 -0.3125q0.078125 -0.15625 0.234375 -0.265625q0.15625 -0.125 0.375 -0.1875q0.234375 -0.0625 0.546875 -0.0625q0.296875 0 0.53125 0.078125q0.234375 0.078125 0.40625 0.21875q0.171875 0.140625 0.265625 0.3125q0.09375 0.171875 0.09375 0.359375l0.953125 0q0 -0.375 -0.15625 -0.6875q-0.15625 -0.328125 -0.453125 -0.5625q-0.28125 -0.25 -0.703125 -0.375q-0.421875 -0.140625 -0.9375 -0.140625q-0.484375 0 -0.890625 0.140625q-0.390625 0.125 -0.6875 0.34375q-0.296875 0.21875 -0.453125 0.53125q-0.15625 0.296875 -0.15625 0.640625q0 0.34375 0.15625 0.609375q0.15625 0.265625 0.4375 0.453125q0.28125 0.203125 0.671875 0.34375q0.40625 0.125 0.890625 0.234375q0.390625 0.078125 0.65625 0.171875q0.265625 0.09375 0.421875 0.203125q0.171875 0.125 0.234375 0.265625q0.0625 0.125 0.0625 0.296875zm5.1447754 1.609375q0.828125 0 1.375 -0.328125q0.5625 -0.34375 0.84375 -0.765625l-0.578125 -0.453125q-0.265625 0.34375 -0.671875 0.546875q-0.40625 0.203125 -0.921875 0.203125q-0.390625 0 -0.71875 -0.140625q-0.3125 -0.140625 -0.53125 -0.40625q-0.234375 -0.234375 -0.359375 -0.546875q-0.125 -0.3125 -0.15625 -0.71875l0 -0.046875l4.015625 0l0 -0.421875q0 -0.59375 -0.15625 -1.09375q-0.140625 -0.5 -0.4375 -0.875q-0.3125 -0.375 -0.765625 -0.578125q-0.453125 -0.21875 -1.0625 -0.21875q-0.484375 0 -0.953125 0.203125q-0.453125 0.1875 -0.8125 0.5625q-0.359375 0.375 -0.578125 0.921875q-0.21875 0.53125 -0.21875 1.21875l0 0.203125q0 0.59375 0.1875 1.09375q0.203125 0.5 0.5625 0.859375q0.359375 0.375 0.84375 0.578125q0.5 0.203125 1.09375 0.203125zm-0.125 -5.046875q0.375 0 0.640625 0.140625q0.265625 0.125 0.4375 0.34375q0.1875 0.21875 0.28125 0.515625q0.09375 0.296875 0.09375 0.5625l0 0.046875l-3.015625 0q0.046875 -0.390625 0.1875 -0.6875q0.15625 -0.296875 0.359375 -0.515625q0.203125 -0.203125 0.453125 -0.296875q0.265625 -0.109375 0.5625 -0.109375zm6.3166504 -2.0625l-0.96875 0l0 1.375l-1.484375 0l0 0.734375l1.484375 0l0 3.0625q0 0.515625 0.140625 0.890625q0.140625 0.359375 0.375 0.59375q0.234375 0.234375 0.5625 0.34375q0.328125 0.109375 0.703125 0.109375q0.21875 0 0.4375 -0.03125q0.234375 -0.015625 0.4375 -0.0625q0.203125 -0.03125 0.375 -0.078125q0.171875 -0.0625 0.296875 -0.140625l-0.140625 -0.671875q-0.09375 0.015625 -0.234375 0.046875q-0.125 0.03125 -0.28125 0.046875q-0.171875 0.03125 -0.34375 0.046875q-0.15625 0.015625 -0.3125 0.015625q-0.21875 0 -0.40625 -0.046875q-0.1875 -0.046875 -0.328125 -0.1875q-0.15625 -0.125 -0.234375 -0.328125q-0.078125 -0.21875 -0.078125 -0.546875l0 -3.0625l2.140625 0l0 -0.734375l-2.140625 0l0 -1.375zm9.2229 0.25l0 -0.828125l-5.625 0l0 0.828125l2.34375 0l0 6.75l0.9375 0l0 -6.75l2.34375 0zm1.0198364 3.890625l0 0.109375q0 0.609375 0.171875 1.125q0.171875 0.515625 0.515625 0.90625q0.328125 0.390625 0.796875 0.609375q0.484375 0.21875 1.078125 0.21875q0.59375 0 1.0625 -0.21875q0.46875 -0.21875 0.8125 -0.609375q0.328125 -0.390625 0.5 -0.90625q0.171875 -0.515625 0.171875 -1.125l0 -0.109375q0 -0.609375 -0.171875 -1.125q-0.171875 -0.53125 -0.5 -0.921875q-0.34375 -0.390625 -0.828125 -0.609375q-0.46875 -0.21875 -1.0625 -0.21875q-0.59375 0 -1.0625 0.21875q-0.46875 0.21875 -0.796875 0.609375q-0.34375 0.390625 -0.515625 0.921875q-0.171875 0.515625 -0.171875 1.125zm0.953125 0.109375l0 -0.109375q0 -0.421875 0.09375 -0.796875q0.109375 -0.375 0.3125 -0.65625q0.203125 -0.296875 0.484375 -0.453125q0.296875 -0.171875 0.703125 -0.171875q0.40625 0 0.703125 0.171875q0.296875 0.15625 0.5 0.453125q0.203125 0.28125 0.296875 0.65625q0.109375 0.375 0.109375 0.796875l0 0.109375q0 0.40625 -0.109375 0.796875q-0.09375 0.375 -0.296875 0.65625q-0.203125 0.28125 -0.5 0.453125q-0.296875 0.171875 -0.6875 0.171875q-0.40625 0 -0.703125 -0.171875q-0.296875 -0.171875 -0.5 -0.453125q-0.203125 -0.28125 -0.3125 -0.65625q-0.09375 -0.390625 -0.09375 -0.796875zm7.9885254 -4.25l-0.96875 0l0 1.375l-1.484375 0l0 0.734375l1.484375 0l0 3.0625q0 0.515625 0.140625 0.890625q0.140625 0.359375 0.375 0.59375q0.234375 0.234375 0.5625 0.34375q0.328125 0.109375 0.703125 0.109375q0.21875 0 0.4375 -0.03125q0.234375 -0.015625 0.4375 -0.0625q0.203125 -0.03125 0.375 -0.078125q0.171875 -0.0625 0.296875 -0.140625l-0.140625 -0.671875q-0.09375 0.015625 -0.234375 0.046875q-0.125 0.03125 -0.28125 0.046875q-0.171875 0.03125 -0.34375 0.046875q-0.15625 0.015625 -0.3125 0.015625q-0.21875 0 -0.40625 -0.046875q-0.1875 -0.046875 -0.328125 -0.1875q-0.15625 -0.125 -0.234375 -0.328125q-0.078125 -0.21875 -0.078125 -0.546875l0 -3.0625l2.140625 0l0 -0.734375l-2.140625 0l0 -1.375zm7.8166504 7.0l1.0 0l0 -0.078125q-0.09375 -0.234375 -0.15625 -0.546875q-0.046875 -0.328125 -0.046875 -0.609375l0 -2.609375q0 -0.46875 -0.171875 -0.828125q-0.171875 -0.359375 -0.46875 -0.59375q-0.296875 -0.234375 -0.71875 -0.34375q-0.40625 -0.125 -0.875 -0.125q-0.53125 0 -0.953125 0.15625q-0.40625 0.140625 -0.6875 0.375q-0.296875 0.234375 -0.453125 0.53125q-0.140625 0.296875 -0.15625 0.609375l0.96875 0q0 -0.1875 0.078125 -0.34375q0.09375 -0.171875 0.25 -0.28125q0.15625 -0.125 0.375 -0.1875q0.234375 -0.078125 0.515625 -0.078125q0.3125 0 0.5625 0.078125q0.25 0.078125 0.421875 0.21875q0.171875 0.140625 0.265625 0.34375q0.09375 0.203125 0.09375 0.453125l0 0.453125l-1.0625 0q-0.578125 0 -1.0625 0.109375q-0.46875 0.109375 -0.8125 0.34375q-0.328125 0.234375 -0.515625 0.578125q-0.1875 0.34375 -0.1875 0.8125q0 0.359375 0.140625 0.671875q0.140625 0.296875 0.390625 0.515625q0.25 0.21875 0.609375 0.359375q0.359375 0.125 0.8125 0.125q0.265625 0 0.515625 -0.0625q0.25 -0.0625 0.46875 -0.15625q0.203125 -0.09375 0.375 -0.21875q0.1875 -0.140625 0.34375 -0.28125q0.015625 0.171875 0.046875 0.34375q0.03125 0.15625 0.09375 0.265625zm-1.703125 -0.734375q-0.28125 0 -0.5 -0.0625q-0.203125 -0.078125 -0.34375 -0.21875q-0.140625 -0.125 -0.21875 -0.296875q-0.0625 -0.171875 -0.0625 -0.390625q0 -0.21875 0.078125 -0.390625q0.078125 -0.171875 0.234375 -0.296875q0.21875 -0.171875 0.578125 -0.25q0.375 -0.09375 0.875 -0.09375l0.90625 0l0 1.140625q-0.09375 0.171875 -0.234375 0.328125q-0.140625 0.140625 -0.34375 0.265625q-0.203125 0.125 -0.453125 0.203125q-0.234375 0.0625 -0.515625 0.0625zm4.5510254 -7.265625l0 0.84375l1.90625 0l0 6.328125l-1.90625 0l0 0.828125l4.703125 0l0 -0.828125l-1.828125 0l0 -7.171875l-2.875 0zm7.3323364 7.1875l0 -6.765625l-0.96875 0l0 7.578125l4.671875 0l0 -0.8125l-3.703125 0zm5.4572754 -4.8125l0 0.828125l1.90625 0l0 3.96875l-1.90625 0l0 0.828125l4.703125 0l0 -0.828125l-1.828125 0l0 -4.796875l-2.875 0zm1.78125 -1.484375q0 0.234375 0.140625 0.390625q0.140625 0.15625 0.4375 0.15625q0.28125 0 0.421875 -0.15625q0.15625 -0.15625 0.15625 -0.390625q0 -0.125 -0.046875 -0.234375q-0.03125 -0.109375 -0.125 -0.1875q-0.0625 -0.0625 -0.171875 -0.09375q-0.09375 -0.046875 -0.234375 -0.046875q-0.140625 0 -0.25 0.046875q-0.09375 0.03125 -0.171875 0.09375q-0.078125 0.078125 -0.125 0.1875q-0.03125 0.109375 -0.03125 0.234375zm6.1447754 4.484375l2.0625 2.625l1.21875 0l-2.625 -3.28125l2.28125 -2.34375l-1.171875 0l-1.84375 1.84375l-0.625 0.6875l0 -4.90625l-0.96875 0l0 8.0l0.96875 0l0 -1.953125l0.703125 -0.671875zm7.1916504 2.734375q0.828125 0 1.375 -0.328125q0.5625 -0.34375 0.84375 -0.765625l-0.578125 -0.453125q-0.265625 0.34375 -0.671875 0.546875q-0.40625 0.203125 -0.921875 0.203125q-0.390625 0 -0.71875 -0.140625q-0.3125 -0.140625 -0.53125 -0.40625q-0.234375 -0.234375 -0.359375 -0.546875q-0.125 -0.3125 -0.15625 -0.71875l0 -0.046875l4.015625 0l0 -0.421875q0 -0.59375 -0.15625 -1.09375q-0.140625 -0.5 -0.4375 -0.875q-0.3125 -0.375 -0.765625 -0.578125q-0.453125 -0.21875 -1.0625 -0.21875q-0.484375 0 -0.953125 0.203125q-0.453125 0.1875 -0.8125 0.5625q-0.359375 0.375 -0.578125 0.921875q-0.21875 0.53125 -0.21875 1.21875l0 0.203125q0 0.59375 0.1875 1.09375q0.203125 0.5 0.5625 0.859375q0.359375 0.375 0.84375 0.578125q0.5 0.203125 1.09375 0.203125zm-0.125 -5.046875q0.375 0 0.640625 0.140625q0.265625 0.125 0.4375 0.34375q0.1875 0.21875 0.28125 0.515625q0.09375 0.296875 0.09375 0.5625l0 0.046875l-3.015625 0q0.046875 -0.390625 0.1875 -0.6875q0.15625 -0.296875 0.359375 -0.515625q0.203125 -0.203125 0.453125 -0.296875q0.265625 -0.109375 0.5625 -0.109375zm7.7698364 3.4375q0 0.140625 -0.046875 0.265625q-0.046875 0.109375 -0.15625 0.21875q-0.15625 0.15625 -0.453125 0.25q-0.28125 0.09375 -0.65625 0.09375q-0.25 0 -0.5 -0.046875q-0.25 -0.0625 -0.453125 -0.1875q-0.203125 -0.125 -0.34375 -0.328125q-0.140625 -0.203125 -0.15625 -0.5l-0.96875 0q0 0.359375 0.15625 0.703125q0.171875 0.328125 0.484375 0.578125q0.3125 0.25 0.75 0.40625q0.453125 0.15625 1.03125 0.15625q0.5 0 0.921875 -0.125q0.421875 -0.125 0.71875 -0.34375q0.296875 -0.21875 0.46875 -0.515625q0.171875 -0.3125 0.171875 -0.6875q0 -0.34375 -0.15625 -0.609375q-0.140625 -0.265625 -0.421875 -0.46875q-0.28125 -0.203125 -0.703125 -0.34375q-0.40625 -0.140625 -0.921875 -0.25q-0.390625 -0.078125 -0.65625 -0.15625q-0.25 -0.09375 -0.40625 -0.1875q-0.15625 -0.109375 -0.21875 -0.234375q-0.0625 -0.140625 -0.0625 -0.296875q0 -0.171875 0.078125 -0.3125q0.078125 -0.15625 0.234375 -0.265625q0.15625 -0.125 0.375 -0.1875q0.234375 -0.0625 0.546875 -0.0625q0.296875 0 0.53125 0.078125q0.234375 0.078125 0.40625 0.21875q0.171875 0.140625 0.265625 0.3125q0.09375 0.171875 0.09375 0.359375l0.953125 0q0 -0.375 -0.15625 -0.6875q-0.15625 -0.328125 -0.453125 -0.5625q-0.28125 -0.25 -0.703125 -0.375q-0.421875 -0.140625 -0.9375 -0.140625q-0.484375 0 -0.890625 0.140625q-0.390625 0.125 -0.6875 0.34375q-0.296875 0.21875 -0.453125 0.53125q-0.15625 0.296875 -0.15625 0.640625q0 0.34375 0.15625 0.609375q0.15625 0.265625 0.4375 0.453125q0.28125 0.203125 0.671875 0.34375q0.40625 0.125 0.890625 0.234375q0.390625 0.078125 0.65625 0.171875q0.265625 0.09375 0.421875 0.203125q0.171875 0.125 0.234375 0.265625q0.0625 0.125 0.0625 0.296875z" fill-rule="nonzero"/><path fill="#ffffff" d="m554.0315 274.78217l104.53546 0l0 18.078735l-104.53546 0z" fill-rule="evenodd"/><path fill="#000000" d="m569.3737 286.06152q0 0.140625 -0.046875 0.265625q-0.046875 0.109375 -0.15625 0.21875q-0.15625 0.15625 -0.453125 0.25q-0.28125 0.09375 -0.65625 0.09375q-0.25 0 -0.5 -0.046875q-0.25 -0.0625 -0.453125 -0.1875q-0.203125 -0.125 -0.34375 -0.328125q-0.140625 -0.203125 -0.15625 -0.5l-0.96875 0q0 0.359375 0.15625 0.703125q0.171875 0.328125 0.484375 0.578125q0.3125 0.25 0.75 0.40625q0.453125 0.15625 1.03125 0.15625q0.5 0 0.921875 -0.125q0.421875 -0.125 0.71875 -0.34375q0.296875 -0.21875 0.46875 -0.515625q0.171875 -0.3125 0.171875 -0.6875q0 -0.34375 -0.15625 -0.609375q-0.140625 -0.265625 -0.421875 -0.46875q-0.28125 -0.203125 -0.703125 -0.34375q-0.40625 -0.140625 -0.921875 -0.25q-0.390625 -0.078125 -0.65625 -0.15625q-0.25 -0.09375 -0.40625 -0.1875q-0.15625 -0.109375 -0.21875 -0.234375q-0.0625 -0.140625 -0.0625 -0.296875q0 -0.171875 0.078125 -0.3125q0.078125 -0.15625 0.234375 -0.265625q0.15625 -0.125 0.375 -0.1875q0.234375 -0.0625 0.546875 -0.0625q0.296875 0 0.53125 0.078125q0.234375 0.078125 0.40625 0.21875q0.171875 0.140625 0.265625 0.3125q0.09375 0.171875 0.09375 0.359375l0.953125 0q0 -0.375 -0.15625 -0.6875q-0.15625 -0.328125 -0.453125 -0.5625q-0.28125 -0.25 -0.703125 -0.375q-0.421875 -0.140625 -0.9375 -0.140625q-0.484375 0 -0.890625 0.140625q-0.390625 0.125 -0.6875 0.34375q-0.296875 0.21875 -0.453125 0.53125q-0.15625 0.296875 -0.15625 0.640625q0 0.34375 0.15625 0.609375q0.15625 0.265625 0.4375 0.453125q0.28125 0.203125 0.671875 0.34375q0.40625 0.125 0.890625 0.234375q0.390625 0.078125 0.65625 0.171875q0.265625 0.09375 0.421875 0.203125q0.171875 0.125 0.234375 0.265625q0.0625 0.125 0.0625 0.296875zm5.1447754 1.609375q0.828125 0 1.375 -0.328125q0.5625 -0.34375 0.84375 -0.765625l-0.578125 -0.453125q-0.265625 0.34375 -0.671875 0.546875q-0.40625 0.203125 -0.921875 0.203125q-0.390625 0 -0.71875 -0.140625q-0.3125 -0.140625 -0.53125 -0.40625q-0.234375 -0.234375 -0.359375 -0.546875q-0.125 -0.3125 -0.15625 -0.71875l0 -0.046875l4.015625 0l0 -0.421875q0 -0.59375 -0.15625 -1.09375q-0.140625 -0.5 -0.4375 -0.875q-0.3125 -0.375 -0.765625 -0.578125q-0.453125 -0.21875 -1.0625 -0.21875q-0.484375 0 -0.953125 0.203125q-0.453125 0.1875 -0.8125 0.5625q-0.359375 0.375 -0.578125 0.921875q-0.21875 0.53125 -0.21875 1.21875l0 0.203125q0 0.59375 0.1875 1.09375q0.203125 0.5 0.5625 0.859375q0.359375 0.375 0.84375 0.578125q0.5 0.203125 1.09375 0.203125zm-0.125 -5.046875q0.375 0 0.640625 0.140625q0.265625 0.125 0.4375 0.34375q0.1875 0.21875 0.28125 0.515625q0.09375 0.296875 0.09375 0.5625l0 0.046875l-3.015625 0q0.046875 -0.390625 0.1875 -0.6875q0.15625 -0.296875 0.359375 -0.515625q0.203125 -0.203125 0.453125 -0.296875q0.265625 -0.109375 0.5625 -0.109375zm6.3166504 -2.0625l-0.96875 0l0 1.375l-1.484375 0l0 0.734375l1.484375 0l0 3.0625q0 0.515625 0.140625 0.890625q0.140625 0.359375 0.375 0.59375q0.234375 0.234375 0.5625 0.34375q0.328125 0.109375 0.703125 0.109375q0.21875 0 0.4375 -0.03125q0.234375 -0.015625 0.4375 -0.0625q0.203125 -0.03125 0.375 -0.078125q0.171875 -0.0625 0.296875 -0.140625l-0.140625 -0.671875q-0.09375 0.015625 -0.234375 0.046875q-0.125 0.03125 -0.28125 0.046875q-0.171875 0.03125 -0.34375 0.046875q-0.15625 0.015625 -0.3125 0.015625q-0.21875 0 -0.40625 -0.046875q-0.1875 -0.046875 -0.328125 -0.1875q-0.15625 -0.125 -0.234375 -0.328125q-0.078125 -0.21875 -0.078125 -0.546875l0 -3.0625l2.140625 0l0 -0.734375l-2.140625 0l0 -1.375zm9.2229 0.25l0 -0.828125l-5.625 0l0 0.828125l2.34375 0l0 6.75l0.9375 0l0 -6.75l2.34375 0zm1.0198364 3.890625l0 0.109375q0 0.609375 0.171875 1.125q0.171875 0.515625 0.515625 0.90625q0.328125 0.390625 0.796875 0.609375q0.484375 0.21875 1.078125 0.21875q0.59375 0 1.0625 -0.21875q0.46875 -0.21875 0.8125 -0.609375q0.328125 -0.390625 0.5 -0.90625q0.171875 -0.515625 0.171875 -1.125l0 -0.109375q0 -0.609375 -0.171875 -1.125q-0.171875 -0.53125 -0.5 -0.921875q-0.34375 -0.390625 -0.828125 -0.609375q-0.46875 -0.21875 -1.0625 -0.21875q-0.59375 0 -1.0625 0.21875q-0.46875 0.21875 -0.796875 0.609375q-0.34375 0.390625 -0.515625 0.921875q-0.171875 0.515625 -0.171875 1.125zm0.953125 0.109375l0 -0.109375q0 -0.421875 0.09375 -0.796875q0.109375 -0.375 0.3125 -0.65625q0.203125 -0.296875 0.484375 -0.453125q0.296875 -0.171875 0.703125 -0.171875q0.40625 0 0.703125 0.171875q0.296875 0.15625 0.5 0.453125q0.203125 0.28125 0.296875 0.65625q0.109375 0.375 0.109375 0.796875l0 0.109375q0 0.40625 -0.109375 0.796875q-0.09375 0.375 -0.296875 0.65625q-0.203125 0.28125 -0.5 0.453125q-0.296875 0.171875 -0.6875 0.171875q-0.40625 0 -0.703125 -0.171875q-0.296875 -0.171875 -0.5 -0.453125q-0.203125 -0.28125 -0.3125 -0.65625q-0.09375 -0.390625 -0.09375 -0.796875zm7.9885254 -4.25l-0.96875 0l0 1.375l-1.484375 0l0 0.734375l1.484375 0l0 3.0625q0 0.515625 0.140625 0.890625q0.140625 0.359375 0.375 0.59375q0.234375 0.234375 0.5625 0.34375q0.328125 0.109375 0.703125 0.109375q0.21875 0 0.4375 -0.03125q0.234375 -0.015625 0.4375 -0.0625q0.203125 -0.03125 0.375 -0.078125q0.171875 -0.0625 0.296875 -0.140625l-0.140625 -0.671875q-0.09375 0.015625 -0.234375 0.046875q-0.125 0.03125 -0.28125 0.046875q-0.171875 0.03125 -0.34375 0.046875q-0.15625 0.015625 -0.3125 0.015625q-0.21875 0 -0.40625 -0.046875q-0.1875 -0.046875 -0.328125 -0.1875q-0.15625 -0.125 -0.234375 -0.328125q-0.078125 -0.21875 -0.078125 -0.546875l0 -3.0625l2.140625 0l0 -0.734375l-2.140625 0l0 -1.375zm7.8166504 7.0l1.0 0l0 -0.078125q-0.09375 -0.234375 -0.15625 -0.546875q-0.046875 -0.328125 -0.046875 -0.609375l0 -2.609375q0 -0.46875 -0.171875 -0.828125q-0.171875 -0.359375 -0.46875 -0.59375q-0.296875 -0.234375 -0.71875 -0.34375q-0.40625 -0.125 -0.875 -0.125q-0.53125 0 -0.953125 0.15625q-0.40625 0.140625 -0.6875 0.375q-0.296875 0.234375 -0.453125 0.53125q-0.140625 0.296875 -0.15625 0.609375l0.96875 0q0 -0.1875 0.078125 -0.34375q0.09375 -0.171875 0.25 -0.28125q0.15625 -0.125 0.375 -0.1875q0.234375 -0.078125 0.515625 -0.078125q0.3125 0 0.5625 0.078125q0.25 0.078125 0.421875 0.21875q0.171875 0.140625 0.265625 0.34375q0.09375 0.203125 0.09375 0.453125l0 0.453125l-1.0625 0q-0.578125 0 -1.0625 0.109375q-0.46875 0.109375 -0.8125 0.34375q-0.328125 0.234375 -0.515625 0.578125q-0.1875 0.34375 -0.1875 0.8125q0 0.359375 0.140625 0.671875q0.140625 0.296875 0.390625 0.515625q0.25 0.21875 0.609375 0.359375q0.359375 0.125 0.8125 0.125q0.265625 0 0.515625 -0.0625q0.25 -0.0625 0.46875 -0.15625q0.203125 -0.09375 0.375 -0.21875q0.1875 -0.140625 0.34375 -0.28125q0.015625 0.171875 0.046875 0.34375q0.03125 0.15625 0.09375 0.265625zm-1.703125 -0.734375q-0.28125 0 -0.5 -0.0625q-0.203125 -0.078125 -0.34375 -0.21875q-0.140625 -0.125 -0.21875 -0.296875q-0.0625 -0.171875 -0.0625 -0.390625q0 -0.21875 0.078125 -0.390625q0.078125 -0.171875 0.234375 -0.296875q0.21875 -0.171875 0.578125 -0.25q0.375 -0.09375 0.875 -0.09375l0.90625 0l0 1.140625q-0.09375 0.171875 -0.234375 0.328125q-0.140625 0.140625 -0.34375 0.265625q-0.203125 0.125 -0.453125 0.203125q-0.234375 0.0625 -0.515625 0.0625zm4.5510254 -7.265625l0 0.84375l1.90625 0l0 6.328125l-1.90625 0l0 0.828125l4.703125 0l0 -0.828125l-1.828125 0l0 -7.171875l-2.875 0zm7.3323364 7.1875l0 -6.765625l-0.96875 0l0 7.578125l4.671875 0l0 -0.8125l-3.703125 0zm5.4572754 -4.8125l0 0.828125l1.90625 0l0 3.96875l-1.90625 0l0 0.828125l4.703125 0l0 -0.828125l-1.828125 0l0 -4.796875l-2.875 0zm1.78125 -1.484375q0 0.234375 0.140625 0.390625q0.140625 0.15625 0.4375 0.15625q0.28125 0 0.421875 -0.15625q0.15625 -0.15625 0.15625 -0.390625q0 -0.125 -0.046875 -0.234375q-0.03125 -0.109375 -0.125 -0.1875q-0.0625 -0.0625 -0.171875 -0.09375q-0.09375 -0.046875 -0.234375 -0.046875q-0.140625 0 -0.25 0.046875q-0.09375 0.03125 -0.171875 0.09375q-0.078125 0.078125 -0.125 0.1875q-0.03125 0.109375 -0.03125 0.234375zm6.1447754 4.484375l2.0625 2.625l1.21875 0l-2.625 -3.28125l2.28125 -2.34375l-1.171875 0l-1.84375 1.84375l-0.625 0.6875l0 -4.90625l-0.96875 0l0 8.0l0.96875 0l0 -1.953125l0.703125 -0.671875zm7.1916504 2.734375q0.828125 0 1.375 -0.328125q0.5625 -0.34375 0.84375 -0.765625l-0.578125 -0.453125q-0.265625 0.34375 -0.671875 0.546875q-0.40625 0.203125 -0.921875 0.203125q-0.390625 0 -0.71875 -0.140625q-0.3125 -0.140625 -0.53125 -0.40625q-0.234375 -0.234375 -0.359375 -0.546875q-0.125 -0.3125 -0.15625 -0.71875l0 -0.046875l4.015625 0l0 -0.421875q0 -0.59375 -0.15625 -1.09375q-0.140625 -0.5 -0.4375 -0.875q-0.3125 -0.375 -0.765625 -0.578125q-0.453125 -0.21875 -1.0625 -0.21875q-0.484375 0 -0.953125 0.203125q-0.453125 0.1875 -0.8125 0.5625q-0.359375 0.375 -0.578125 0.921875q-0.21875 0.53125 -0.21875 1.21875l0 0.203125q0 0.59375 0.1875 1.09375q0.203125 0.5 0.5625 0.859375q0.359375 0.375 0.84375 0.578125q0.5 0.203125 1.09375 0.203125zm-0.125 -5.046875q0.375 0 0.640625 0.140625q0.265625 0.125 0.4375 0.34375q0.1875 0.21875 0.28125 0.515625q0.09375 0.296875 0.09375 0.5625l0 0.046875l-3.015625 0q0.046875 -0.390625 0.1875 -0.6875q0.15625 -0.296875 0.359375 -0.515625q0.203125 -0.203125 0.453125 -0.296875q0.265625 -0.109375 0.5625 -0.109375zm7.7698364 3.4375q0 0.140625 -0.046875 0.265625q-0.046875 0.109375 -0.15625 0.21875q-0.15625 0.15625 -0.453125 0.25q-0.28125 0.09375 -0.65625 0.09375q-0.25 0 -0.5 -0.046875q-0.25 -0.0625 -0.453125 -0.1875q-0.203125 -0.125 -0.34375 -0.328125q-0.140625 -0.203125 -0.15625 -0.5l-0.96875 0q0 0.359375 0.15625 0.703125q0.171875 0.328125 0.484375 0.578125q0.3125 0.25 0.75 0.40625q0.453125 0.15625 1.03125 0.15625q0.5 0 0.921875 -0.125q0.421875 -0.125 0.71875 -0.34375q0.296875 -0.21875 0.46875 -0.515625q0.171875 -0.3125 0.171875 -0.6875q0 -0.34375 -0.15625 -0.609375q-0.140625 -0.265625 -0.421875 -0.46875q-0.28125 -0.203125 -0.703125 -0.34375q-0.40625 -0.140625 -0.921875 -0.25q-0.390625 -0.078125 -0.65625 -0.15625q-0.25 -0.09375 -0.40625 -0.1875q-0.15625 -0.109375 -0.21875 -0.234375q-0.0625 -0.140625 -0.0625 -0.296875q0 -0.171875 0.078125 -0.3125q0.078125 -0.15625 0.234375 -0.265625q0.15625 -0.125 0.375 -0.1875q0.234375 -0.0625 0.546875 -0.0625q0.296875 0 0.53125 0.078125q0.234375 0.078125 0.40625 0.21875q0.171875 0.140625 0.265625 0.3125q0.09375 0.171875 0.09375 0.359375l0.953125 0q0 -0.375 -0.15625 -0.6875q-0.15625 -0.328125 -0.453125 -0.5625q-0.28125 -0.25 -0.703125 -0.375q-0.421875 -0.140625 -0.9375 -0.140625q-0.484375 0 -0.890625 0.140625q-0.390625 0.125 -0.6875 0.34375q-0.296875 0.21875 -0.453125 0.53125q-0.15625 0.296875 -0.15625 0.640625q0 0.34375 0.15625 0.609375q0.15625 0.265625 0.4375 0.453125q0.28125 0.203125 0.671875 0.34375q0.40625 0.125 0.890625 0.234375q0.390625 0.078125 0.65625 0.171875q0.265625 0.09375 0.421875 0.203125q0.171875 0.125 0.234375 0.265625q0.0625 0.125 0.0625 0.296875z" fill-rule="nonzero"/></g></svg>