<svg version="1.1" viewBox="0.0 0.0 939.2860892388452 213.85826771653544" fill="none" stroke="none" stroke-linecap="square" stroke-miterlimit="10" xmlns:xlink="http://www.w3.org/1999/xlink" xmlns="http://www.w3.org/2000/svg"><clipPath id="p.0"><path d="m0 0l939.2861 0l0 213.85826l-939.2861 0l0 -213.85826z" clip-rule="nonzero"/></clipPath><g clip-path="url(#p.0)"><path fill="#000000" fill-opacity="0.0" d="m0 0l939.2861 0l0 213.85826l-939.2861 0z" fill-rule="evenodd"/><path fill="#cfe2f3" d="m4.7874017 45.78478l186.58267 0l0 162.4252l-186.58267 0z" fill-rule="evenodd"/><path stroke="#000000" stroke-width="1.0" stroke-linejoin="round" stroke-linecap="butt" d="m4.7874017 45.78478l186.58267 0l0 162.4252l-186.58267 0z" fill-rule="evenodd"/><path fill="#000000" d="m23.30057 93.32112l0 2.359375l2.875 0l0 10.4375l-2.875 0l0 2.359375l8.765627 0l0 -2.359375l-2.953127 0l0 -10.4375l2.953127 0l0 -2.359375l-8.765627 0zm12.252092 15.15625l2.90625 0l0 -8.015625q0.140625 -0.21875 0.3125 -0.40625q0.1875 -0.1875 0.40625 -0.328125q0.265625 -0.1875 0.609375 -0.28125q0.359375 -0.09375 0.78125 -0.09375q0.5 0 0.890625 0.109375q0.390625 0.09375 0.671875 0.34375q0.28125 0.25 0.4375 0.6875q0.15625 0.421875 0.15625 1.09375l0 6.890625l2.890625 0l0 -6.9375q0 -1.234375 -0.296875 -2.09375q-0.28125 -0.859375 -0.78125 -1.40625q-0.53125 -0.53125 -1.234375 -0.78125q-0.703125 -0.25 -1.5625 -0.25q-0.671875 0 -1.265625 0.1875q-0.59375 0.1875 -1.09375 0.53125q-0.28125 0.203125 -0.546875 0.46875q-0.265625 0.265625 -0.484375 0.578125l-0.171875 -1.5625l-2.625 0l0 11.265625zm18.111465 -14.03125l-2.890625 0l0 2.765625l-2.578125 0l0 2.125l2.578125 0l0 5.125q0 1.125 0.28125 1.921875q0.296875 0.796875 0.84375 1.296875q0.53125 0.53125 1.28125 0.78125q0.75 0.234375 1.6875 0.234375q0.46875 0 0.96875 -0.046875q0.5 -0.046875 0.953125 -0.125q0.453125 -0.09375 0.859375 -0.21875q0.40625 -0.125 0.703125 -0.3125l-0.28125 -1.984375q-0.1875 0.046875 -0.46875 0.109375q-0.265625 0.046875 -0.578125 0.09375q-0.328125 0.046875 -0.6875 0.078125q-0.34375 0.03125 -0.671875 0.03125q-0.453125 0 -0.828125 -0.09375q-0.375 -0.109375 -0.625 -0.359375q-0.265625 -0.25 -0.40625 -0.65625q-0.140625 -0.40625 -0.140625 -1.03125l0 -4.84375l4.203125 0l0 -2.125l-4.203125 0l0 -2.765625zm14.533337 14.03125l2.921875 0l0 -0.171875q-0.21875 -0.4375 -0.328125 -1.03125q-0.109375 -0.59375 -0.109375 -1.5l0 -4.828125q0 -0.984375 -0.375 -1.71875q-0.359375 -0.75 -1.0 -1.234375q-0.640625 -0.484375 -1.53125 -0.734375q-0.875 -0.25 -1.890625 -0.25q-1.140625 0 -2.0312462 0.28125q-0.875 0.28125 -1.46875 0.765625q-0.625 0.5 -0.9375 1.140625q-0.3125 0.640625 -0.3125 1.359375l2.8906212 0q0 -0.296875 0.078125 -0.546875q0.09375 -0.25 0.28125 -0.421875q0.21875 -0.203125 0.546875 -0.3125q0.328125 -0.109375 0.796875 -0.109375q0.515625 0 0.90625 0.140625q0.390625 0.125 0.65625 0.359375q0.25 0.234375 0.375 0.546875q0.125 0.3125 0.125 0.71875l0 0.65625l-1.625 0q-1.25 0 -2.2187462 0.234375q-0.953125 0.21875 -1.609375 0.640625q-0.734375 0.46875 -1.09375 1.203125q-0.359375 0.71875 -0.359375 1.65625q0 0.734375 0.28125 1.359375q0.296875 0.609375 0.8125 1.0625q0.53125 0.4375 1.25 0.6875q0.71875 0.25 1.5937462 0.25q0.53125 0 0.984375 -0.09375q0.453125 -0.09375 0.84375 -0.28125q0.375 -0.15625 0.6875 -0.390625q0.3125 -0.234375 0.546875 -0.484375q0.0625 0.296875 0.125 0.578125q0.078125 0.265625 0.1875 0.46875zm-2.765625 -2.03125q-0.40625 0 -0.71875 -0.09375q-0.296875 -0.109375 -0.515625 -0.265625q-0.20312119 -0.1875 -0.3124962 -0.4375q-0.109375 -0.25 -0.109375 -0.5625q0 -0.375 0.140625 -0.703125q0.15624619 -0.328125 0.4531212 -0.578125q0.296875 -0.21875 0.78125 -0.34375q0.484375 -0.140625 1.15625 -0.140625l1.484375 0l0 1.9375q-0.125 0.21875 -0.34375 0.4375q-0.21875 0.203125 -0.53125 0.375q-0.296875 0.171875 -0.671875 0.28125q-0.375 0.09375 -0.8125 0.09375zm8.22084 -3.6875l0 0.21875q0 1.234375 0.3125 2.28125q0.328125 1.046875 0.921875 1.796875q0.59375 0.765625 1.421875 1.203125q0.84375 0.421875 1.90625 0.421875q0.53125 0 0.984375 -0.109375q0.46875 -0.109375 0.859375 -0.328125q0.25 -0.140625 0.484375 -0.328125q0.234375 -0.1875 0.4375 -0.421875l0 0.65625q0 0.5625 -0.171875 1.015625q-0.15625 0.46875 -0.453125 0.78125q-0.328125 0.34375 -0.828125 0.515625q-0.5 0.1875 -1.125 0.1875q-0.40625 0 -0.78125 -0.078125q-0.359375 -0.078125 -0.703125 -0.234375q-0.359375 -0.15625 -0.6875 -0.40625q-0.3125 -0.25 -0.59375 -0.5625l-1.296875 1.75q0.359375 0.46875 0.859375 0.8125q0.515625 0.34375 1.09375 0.5625q0.578125 0.21875 1.15625 0.3125q0.578125 0.109375 1.09375 0.109375q1.1875 0 2.171875 -0.328125q0.984375 -0.3125 1.6875 -0.921875q0.703125 -0.609375 1.09375 -1.515625q0.390625 -0.890625 0.390625 -2.03125l0 -10.90625l-2.640625 0l-0.109375 1.0625q-0.203125 -0.25 -0.453125 -0.453125q-0.25 -0.21875 -0.546875 -0.375q-0.390625 -0.21875 -0.859375 -0.328125q-0.46875 -0.109375 -1.046875 -0.109375q-1.0625 0 -1.90625 0.421875q-0.84375 0.40625 -1.4375 1.15625q-0.59375 0.765625 -0.921875 1.828125q-0.3125 1.0625 -0.3125 2.34375zm2.90625 0.21875l0 -0.21875q0 -0.703125 0.140625 -1.328125q0.15625 -0.625 0.453125 -1.09375q0.296875 -0.453125 0.734375 -0.71875q0.453125 -0.265625 1.078125 -0.265625q0.328125 0 0.609375 0.0625q0.296875 0.0625 0.53125 0.171875q0.28125 0.140625 0.5 0.359375q0.21875 0.21875 0.375 0.515625l0 4.765625q-0.140625 0.265625 -0.34375 0.46875q-0.203125 0.203125 -0.453125 0.359375q-0.25 0.125 -0.5625 0.203125q-0.3125 0.078125 -0.6875 0.078125q-0.609375 0 -1.0625 -0.265625q-0.4375 -0.265625 -0.734375 -0.71875q-0.296875 -0.453125 -0.4375 -1.0625q-0.140625 -0.609375 -0.140625 -1.3125zm18.28334 -5.96875q-1.140625 0 -2.09375 0.546875q-0.953125 0.53125 -1.640625 1.5l-0.03125 -0.25l-0.109375 -1.59375l-2.703125 0l0 11.265625l2.90625 0l0 -6.765625q0.1875 -0.484375 0.484375 -0.828125q0.3125 -0.359375 0.734375 -0.59375q0.359375 -0.203125 0.8125 -0.296875q0.453125 -0.09375 1.015625 -0.09375q0.546875 0 1.140625 0.0625q0.59375 0.0625 1.171875 0.203125l0.421875 -2.875q-0.34375 -0.109375 -0.90625 -0.1875q-0.546875 -0.09375 -1.203125 -0.09375zm11.75209 11.46875l2.921875 0l0 -0.171875q-0.21875 -0.4375 -0.328125 -1.03125q-0.109375 -0.59375 -0.109375 -1.5l0 -4.828125q0 -0.984375 -0.375 -1.71875q-0.359375 -0.75 -1.0 -1.234375q-0.640625 -0.484375 -1.53125 -0.734375q-0.875 -0.25 -1.890625 -0.25q-1.140625 0 -2.03125 0.28125q-0.875 0.28125 -1.46875 0.765625q-0.625 0.5 -0.9375 1.140625q-0.3125 0.640625 -0.3125 1.359375l2.890625 0q0 -0.296875 0.078125 -0.546875q0.09375 -0.25 0.28125 -0.421875q0.21875 -0.203125 0.546875 -0.3125q0.328125 -0.109375 0.796875 -0.109375q0.515625 0 0.90625 0.140625q0.390625 0.125 0.65625 0.359375q0.25 0.234375 0.375 0.546875q0.125 0.3125 0.125 0.71875l0 0.65625l-1.625 0q-1.25 0 -2.21875 0.234375q-0.953125 0.21875 -1.609375 0.640625q-0.734375 0.46875 -1.09375 1.203125q-0.359375 0.71875 -0.359375 1.65625q0 0.734375 0.28125 1.359375q0.296875 0.609375 0.8125 1.0625q0.53125 0.4375 1.25 0.6875q0.71875 0.25 1.59375 0.25q0.53125 0 0.984375 -0.09375q0.453125 -0.09375 0.84375 -0.28125q0.375 -0.15625 0.6875 -0.390625q0.3125 -0.234375 0.546875 -0.484375q0.0625 0.296875 0.125 0.578125q0.078125 0.265625 0.1875 0.46875zm-2.765625 -2.03125q-0.40625 0 -0.71875 -0.09375q-0.296875 -0.109375 -0.515625 -0.265625q-0.203125 -0.1875 -0.3125 -0.4375q-0.109375 -0.25 -0.109375 -0.5625q0 -0.375 0.140625 -0.703125q0.15625 -0.328125 0.453125 -0.578125q0.296875 -0.21875 0.78125 -0.34375q0.484375 -0.140625 1.15625 -0.140625l1.484375 0l0 1.9375q-0.125 0.21875 -0.34375 0.4375q-0.21875 0.203125 -0.53125 0.375q-0.296875 0.171875 -0.671875 0.28125q-0.375 0.09375 -0.8125 0.09375zm10.31459 -9.234375l-2.484375 0l0 11.265625l2.640625 0l0 -8.4375q0.046875 -0.140625 0.109375 -0.25q0.0625 -0.109375 0.140625 -0.203125q0.125 -0.109375 0.265625 -0.171875q0.140625 -0.0625 0.328125 -0.0625q0.171875 0 0.3125 0.046875q0.15625 0.046875 0.265625 0.15625q0.109375 0.125 0.171875 0.328125q0.0625 0.203125 0.0625 0.53125l0 8.0625l2.546875 0l0 -8.3125q0 -0.125 0 -0.1875q0 -0.078125 0 -0.109375q0.046875 -0.109375 0.125 -0.1875q0.078125 -0.09375 0.171875 -0.171875q0.109375 -0.078125 0.234375 -0.109375q0.140625 -0.046875 0.296875 -0.046875q0.15625 0 0.3125 0.046875q0.15625 0.046875 0.265625 0.15625q0.109375 0.125 0.171875 0.34375q0.078125 0.203125 0.078125 0.53125l0 8.046875l2.625 0l0 -8.046875q0 -0.9375 -0.1875 -1.578125q-0.171875 -0.65625 -0.5 -1.0625q-0.328125 -0.40625 -0.765625 -0.59375q-0.4375 -0.1875 -0.953125 -0.1875q-0.40625 0 -0.75 0.109375q-0.34375 0.09375 -0.609375 0.28125q-0.21875 0.140625 -0.40625 0.34375q-0.1875 0.203125 -0.328125 0.453125q-0.09375 -0.265625 -0.234375 -0.453125q-0.125 -0.203125 -0.296875 -0.359375q-0.234375 -0.1875 -0.546875 -0.28125q-0.3125 -0.09375 -0.703125 -0.09375q-0.8125 0 -1.390625 0.421875q-0.5625 0.40625 -0.875 1.140625l-0.09375 -1.359375zm14.017715 5.703125l2.25 0q1.25 0 2.25 -0.34375q1.0 -0.359375 1.703125 -1.0q0.6875 -0.625 1.0625 -1.484375q0.390625 -0.875 0.390625 -1.890625q0 -1.09375 -0.390625 -1.984375q-0.375 -0.890625 -1.0625 -1.546875q-0.703125 -0.625 -1.703125 -0.984375q-1.0 -0.359375 -2.25 -0.359375l-5.1875 0l0 15.15625l2.9375 0l0 -5.5625zm0 -2.375l0 -4.84375l2.25 0q0.625 0 1.078125 0.203125q0.46875 0.1875 0.78125 0.53125q0.296875 0.34375 0.453125 0.8125q0.15625 0.453125 0.15625 0.96875q0 0.46875 -0.15625 0.890625q-0.15625 0.421875 -0.453125 0.734375q-0.3125 0.328125 -0.78125 0.515625q-0.453125 0.1875 -1.078125 0.1875l-2.25 0zm9.392715 2.203125l0 0.21875q0 1.234375 0.34375 2.28125q0.359375 1.046875 1.046875 1.8125q0.671875 0.78125 1.671875 1.21875q1.0 0.421875 2.265625 0.421875q1.265625 0 2.25 -0.421875q0.984375 -0.4375 1.671875 -1.21875q0.671875 -0.765625 1.015625 -1.8125q0.359375 -1.046875 0.359375 -2.28125l0 -0.21875q0 -1.234375 -0.359375 -2.28125q-0.34375 -1.046875 -1.015625 -1.8125q-0.6875 -0.78125 -1.6875 -1.203125q-0.984375 -0.4375 -2.25 -0.4375q-1.28125 0 -2.265625 0.4375q-0.984375 0.421875 -1.65625 1.203125q-0.6875 0.765625 -1.046875 1.8125q-0.34375 1.046875 -0.34375 2.28125zm2.890625 0.21875l0 -0.21875q0 -0.6875 0.125 -1.296875q0.140625 -0.625 0.4375 -1.09375q0.296875 -0.46875 0.75 -0.734375q0.453125 -0.28125 1.109375 -0.28125q0.65625 0 1.109375 0.28125q0.453125 0.265625 0.75 0.734375q0.28125 0.46875 0.40625 1.09375q0.140625 0.609375 0.140625 1.296875l0 0.21875q0 0.703125 -0.140625 1.328125q-0.125 0.609375 -0.40625 1.078125q-0.296875 0.46875 -0.75 0.734375q-0.453125 0.265625 -1.09375 0.265625q-0.65625 0 -1.125 -0.265625q-0.453125 -0.265625 -0.75 -0.734375q-0.296875 -0.46875 -0.4375 -1.078125q-0.125 -0.625 -0.125 -1.328125zm17.56459 2.421875q0 0.265625 -0.125 0.484375q-0.125 0.21875 -0.390625 0.375q-0.265625 0.171875 -0.6875 0.28125q-0.421875 0.09375 -0.984375 0.09375q-0.46875 0 -0.921875 -0.09375q-0.4375 -0.09375 -0.78125 -0.3125q-0.34375 -0.1875 -0.5625 -0.515625q-0.21875 -0.328125 -0.25 -0.796875l-2.765625 0q0 0.6875 0.34375 1.375q0.34375 0.6875 1.0 1.21875q0.65625 0.53125 1.625 0.875q0.96875 0.328125 2.25 0.328125q1.15625 0 2.09375 -0.25q0.9375 -0.265625 1.59375 -0.71875q0.65625 -0.453125 1.015625 -1.078125q0.359375 -0.640625 0.359375 -1.390625q0 -0.8125 -0.359375 -1.390625q-0.359375 -0.59375 -0.984375 -1.015625q-0.640625 -0.40625 -1.515625 -0.65625q-0.875 -0.265625 -1.890625 -0.4375q-0.71875 -0.109375 -1.171875 -0.25q-0.453125 -0.140625 -0.71875 -0.3125q-0.265625 -0.171875 -0.375 -0.375q-0.109375 -0.21875 -0.109375 -0.46875q0 -0.25 0.125 -0.46875q0.125 -0.234375 0.34375 -0.390625q0.25 -0.1875 0.640625 -0.296875q0.40625 -0.109375 0.9375 -0.109375q0.625 0 1.0625 0.15625q0.453125 0.15625 0.703125 0.421875q0.1875 0.203125 0.28125 0.453125q0.09375 0.234375 0.09375 0.515625l2.890625 0q0 -0.78125 -0.34375 -1.4375q-0.34375 -0.671875 -0.984375 -1.171875q-0.65625 -0.46875 -1.59375 -0.734375q-0.9375 -0.28125 -2.109375 -0.28125q-1.125 0 -2.03125 0.28125q-0.890625 0.28125 -1.515625 0.75q-0.625 0.484375 -0.953125 1.125q-0.328125 0.625 -0.328125 1.328125q0 0.71875 0.328125 1.265625q0.328125 0.546875 0.90625 0.96875q0.578125 0.421875 1.390625 0.71875q0.828125 0.296875 1.8125 0.5q0.78125 0.140625 1.296875 0.296875q0.515625 0.140625 0.828125 0.3125q0.296875 0.171875 0.40625 0.375q0.125 0.1875 0.125 0.453125zm10.84584 -10.9375l-2.890625 0l0 2.765625l-2.578125 0l0 2.125l2.578125 0l0 5.125q0 1.125 0.28125 1.921875q0.296875 0.796875 0.84375 1.296875q0.53125 0.53125 1.28125 0.78125q0.75 0.234375 1.6875 0.234375q0.46875 0 0.96875 -0.046875q0.5 -0.046875 0.953125 -0.125q0.453125 -0.09375 0.859375 -0.21875q0.40625 -0.125 0.703125 -0.3125l-0.28125 -1.984375q-0.1875 0.046875 -0.46875 0.109375q-0.265625 0.046875 -0.578125 0.09375q-0.328125 0.046875 -0.6875 0.078125q-0.34375 0.03125 -0.671875 0.03125q-0.453125 0 -0.828125 -0.09375q-0.375 -0.109375 -0.625 -0.359375q-0.265625 -0.25 -0.40625 -0.65625q-0.140625 -0.40625 -0.140625 -1.03125l0 -4.84375l4.203125 0l0 -2.125l-4.203125 0l0 -2.765625z" fill-rule="nonzero"/><path fill="#000000" d="m42.59277 144.47737l0 1.6875l3.84375 0l0 12.640625l-3.84375 0l0 1.671875l9.4375 0l0 -1.671875l-3.671875 0l0 -14.328125l-5.765625 0zm12.798965 4.734375l0 1.671875l3.84375 0l0 7.921875l-3.84375 0l0 1.671875l9.437496 0l0 -1.671875l-3.6718712 0l0 -9.59375l-5.765625 0zm3.59375 -2.953125q0 0.46875 0.28125 0.78125q0.28125 0.3125 0.875 0.3125q0.5625 0 0.859375 -0.3125q0.296875 -0.3125 0.296875 -0.78125q0 -0.265625 -0.09375 -0.484375q-0.078125 -0.21875 -0.25 -0.359375q-0.125 -0.140625 -0.34375 -0.21875q-0.203125 -0.078125 -0.46875 -0.078125q-0.28125 0 -0.5 0.078125q-0.203125 0.078125 -0.34375 0.21875q-0.15625 0.15625 -0.234375 0.375q-0.078125 0.21875 -0.078125 0.46875zm12.283337 8.953125l4.140625 5.265625l2.4375 0l-5.25 -6.578125l4.546875 -4.6875l-2.328125 0l-3.703125 3.703125l-1.265625 1.359375l0 -9.796875l-1.9375 0l0 16.0l1.9375 0l0 -3.890625l1.421875 -1.375zm14.40834 5.46875q1.640625 0 2.75 -0.65625q1.125 -0.65625 1.6875 -1.515625l-1.171875 -0.921875q-0.53125 0.6875 -1.34375 1.109375q-0.796875 0.421875 -1.828125 0.421875q-0.78125 0 -1.421875 -0.296875q-0.640625 -0.296875 -1.109375 -0.796875q-0.4375 -0.484375 -0.703125 -1.109375q-0.25 -0.625 -0.328125 -1.453125l0 -0.0625l8.046875 0l0 -0.875q0 -1.171875 -0.296875 -2.171875q-0.296875 -1.015625 -0.890625 -1.765625q-0.609375 -0.75 -1.515625 -1.15625q-0.90625 -0.421875 -2.125 -0.421875q-0.96875 0 -1.890625 0.390625q-0.921875 0.390625 -1.640625 1.125q-0.734375 0.75 -1.171875 1.828125q-0.4375 1.078125 -0.4375 2.453125l0 0.4375q0 1.171875 0.390625 2.171875q0.40625 1.0 1.109375 1.734375q0.703125 0.71875 1.703125 1.125q1.0 0.40625 2.1875 0.40625zm-0.25 -10.09375q0.734375 0 1.265625 0.265625q0.546875 0.265625 0.890625 0.703125q0.359375 0.4375 0.546875 1.046875q0.203125 0.59375 0.203125 1.109375l0 0.09375l-6.0625 0q0.125 -0.78125 0.40625 -1.375q0.28125 -0.59375 0.703125 -1.015625q0.421875 -0.40625 0.9375 -0.609375q0.515625 -0.21875 1.109375 -0.21875zm15.548965 6.90625q0 0.265625 -0.109375 0.515625q-0.09375 0.234375 -0.296875 0.421875q-0.3125 0.328125 -0.890625 0.515625q-0.578125 0.171875 -1.34375 0.171875q-0.484375 0 -0.984375 -0.09375q-0.5 -0.109375 -0.90625 -0.359375q-0.421875 -0.25 -0.703125 -0.65625q-0.265625 -0.40625 -0.3125 -1.0l-1.921875 0q0 0.71875 0.328125 1.390625q0.328125 0.65625 0.953125 1.15625q0.609375 0.515625 1.5 0.828125q0.90625 0.296875 2.046875 0.296875q1.0 0 1.84375 -0.234375q0.84375 -0.234375 1.453125 -0.671875q0.59375 -0.4375 0.921875 -1.046875q0.34375 -0.625 0.34375 -1.375q0 -0.703125 -0.296875 -1.234375q-0.28125 -0.53125 -0.84375 -0.9375q-0.5625 -0.390625 -1.390625 -0.671875q-0.828125 -0.296875 -1.859375 -0.515625q-0.796875 -0.15625 -1.3125 -0.3125q-0.515625 -0.171875 -0.8125 -0.375q-0.3125 -0.21875 -0.4375 -0.46875q-0.125 -0.265625 -0.125 -0.59375q0 -0.328125 0.15625 -0.625q0.15625 -0.3125 0.46875 -0.53125q0.296875 -0.234375 0.75 -0.359375q0.46875 -0.140625 1.09375 -0.140625q0.59375 0 1.0625 0.171875q0.46875 0.15625 0.8125 0.421875q0.328125 0.28125 0.515625 0.625q0.1875 0.34375 0.1875 0.71875l1.921875 0q0 -0.75 -0.3125 -1.390625q-0.3125 -0.640625 -0.90625 -1.109375q-0.578125 -0.484375 -1.421875 -0.75q-0.828125 -0.265625 -1.859375 -0.265625q-0.96875 0 -1.78125 0.265625q-0.8125 0.25 -1.390625 0.6875q-0.578125 0.453125 -0.90625 1.0625q-0.328125 0.59375 -0.328125 1.28125q0 0.6875 0.3125 1.21875q0.3125 0.53125 0.890625 0.90625q0.5625 0.40625 1.359375 0.6875q0.796875 0.28125 1.765625 0.46875q0.796875 0.15625 1.328125 0.359375q0.53125 0.1875 0.84375 0.421875q0.328125 0.21875 0.453125 0.5q0.140625 0.28125 0.140625 0.625zm27.394814 -5.140625l0 -1.671875l-9.296883 0l0 1.671875l9.296883 0zm0 4.328125l0 -1.671875l-9.296883 0l0 1.671875l9.296883 0zm25.83229 -2.0l0 -3.5625q0 -1.4375 -0.328125 -2.546875q-0.328125 -1.125 -0.953125 -1.90625q-0.640625 -0.765625 -1.5625 -1.15625q-0.90625 -0.40625 -2.0625 -0.40625q-1.15625 0 -2.078125 0.40625q-0.90625 0.390625 -1.53125 1.15625q-0.640625 0.78125 -0.96875 1.90625q-0.328125 1.109375 -0.328125 2.546875l0 3.5625q0 1.4375 0.328125 2.5625q0.328125 1.125 0.96875 1.875q0.640625 0.78125 1.546875 1.171875q0.921875 0.390625 2.078125 0.390625q1.171875 0 2.078125 -0.390625q0.90625 -0.390625 1.53125 -1.171875q0.625 -0.75 0.953125 -1.875q0.328125 -1.125 0.328125 -2.5625zm-7.875 -0.390625q0 -0.265625 0 -0.53125q0 -0.265625 0 -0.515625l0 -2.546875q0 -1.0625 0.203125 -1.859375q0.21875 -0.8125 0.65625 -1.328125q0.359375 -0.40625 0.890625 -0.609375q0.53125 -0.21875 1.21875 -0.21875q0.671875 0 1.1875 0.203125q0.515625 0.1875 0.875 0.59375q0.359375 0.375 0.5625 0.953125q0.21875 0.578125 0.3125 1.328125l-5.90625 4.53125zm5.9375 0.796875q0 1.109375 -0.21875 1.9375q-0.21875 0.8125 -0.703125 1.328125q-0.359375 0.375 -0.875 0.578125q-0.5 0.1875 -1.15625 0.1875q-0.625 0 -1.125 -0.171875q-0.5 -0.1875 -0.859375 -0.546875q-0.375 -0.375 -0.625 -0.953125q-0.234375 -0.578125 -0.328125 -1.328125l5.890625 -4.515625q0 0.296875 0 0.734375q0 0.4375 0 0.59375l0 2.15625z" fill-rule="nonzero"/><path fill="#fff2cc" d="m304.43497 100.574066l20.426056 -30.650185l-2.0140686 28.140045l23.186493 -4.58696l-9.20874 15.103142l24.119446 4.343872l-19.152863 12.355194l21.913269 14.8759l-26.138977 -1.8390045l7.178192 27.23111l-22.637695 -19.225067l-4.242157 27.902237l-14.899719 -25.376236l-11.233795 35.221283l-4.225708 -31.564407l-16.205841 10.51619l4.9665833 -19.447021l-30.359222 3.4349365l19.685211 -14.860046l-20.426071 -16.699074l25.392624 -5.273941l-23.362091 -28.124191l38.097168 21.270172l5.7074585 -21.270172z" fill-rule="evenodd"/><path stroke="#000000" stroke-width="1.0" stroke-linejoin="round" stroke-linecap="butt" d="m304.43497 100.574066l20.426056 -30.650185l-2.0140686 28.140045l23.186493 -4.58696l-9.20874 15.103142l24.119446 4.343872l-19.152863 12.355194l21.913269 14.8759l-26.138977 -1.8390045l7.178192 27.23111l-22.637695 -19.225067l-4.242157 27.902237l-14.899719 -25.376236l-11.233795 35.221283l-4.225708 -31.564407l-16.205841 10.51619l4.9665833 -19.447021l-30.359222 3.4349365l19.685211 -14.860046l-20.426071 -16.699074l25.392624 -5.273941l-23.362091 -28.124191l38.097168 21.270172l5.7074585 -21.270172z" fill-rule="evenodd"/><path fill="#000000" d="m293.10123 126.82121l1.609375 0.21875q-0.265625 1.65625 -1.359375 2.609375q-1.078125 0.9375 -2.671875 0.9375q-1.984375 0 -3.1875 -1.296875q-1.203125 -1.296875 -1.203125 -3.71875q0 -1.578125 0.515625 -2.75q0.515625 -1.171875 1.578125 -1.75q1.0625 -0.59375 2.3125 -0.59375q1.578125 0 2.578125 0.796875q1.0 0.796875 1.28125 2.265625l-1.59375 0.234375q-0.234375 -0.96875 -0.8125 -1.453125q-0.578125 -0.5 -1.390625 -0.5q-1.234375 0 -2.015625 0.890625q-0.78125 0.890625 -0.78125 2.8125q0 1.953125 0.75 2.84375q0.75 0.875 1.953125 0.875q0.96875 0 1.609375 -0.59375q0.65625 -0.59375 0.828125 -1.828125zm2.96875 3.546875l0 -13.359375l1.640625 0l0 13.359375l-1.640625 0zm4.191681 -11.46875l0 -1.890625l1.640625 0l0 1.890625l-1.640625 0zm0 11.46875l0 -9.671875l1.640625 0l0 9.671875l-1.640625 0zm10.457306 -3.546875l1.609375 0.21875q-0.265625 1.65625 -1.359375 2.609375q-1.078125 0.9375 -2.671875 0.9375q-1.984375 0 -3.1875 -1.296875q-1.203125 -1.296875 -1.203125 -3.71875q0 -1.578125 0.515625 -2.75q0.515625 -1.171875 1.578125 -1.75q1.0625 -0.59375 2.3125 -0.59375q1.578125 0 2.578125 0.796875q1.0 0.796875 1.28125 2.265625l-1.59375 0.234375q-0.234375 -0.96875 -0.8125 -1.453125q-0.578125 -0.5 -1.390625 -0.5q-1.234375 0 -2.015625 0.890625q-0.78125 0.890625 -0.78125 2.8125q0 1.953125 0.75 2.84375q0.75 0.875 1.953125 0.875q0.96875 0 1.609375 -0.59375q0.65625 -0.59375 0.828125 -1.828125zm3.015625 3.546875l0 -13.359375l1.640625 0l0 7.625l3.890625 -3.9375l2.109375 0l-3.6875 3.59375l4.0625 6.078125l-2.015625 0l-3.203125 -4.953125l-1.15625 1.125l0 3.828125l-1.640625 0z" fill-rule="nonzero"/><path fill="#000000" fill-opacity="0.0" d="m191.37007 126.997375l53.795288 0" fill-rule="evenodd"/><path stroke="#000000" stroke-width="1.0" stroke-linejoin="round" stroke-linecap="butt" d="m191.37007 126.997375l47.795288 0" fill-rule="evenodd"/><path fill="#000000" stroke="#000000" stroke-width="1.0" stroke-linecap="butt" d="m239.16536 128.64911l4.538086 -1.6517334l-4.538086 -1.6517334z" fill-rule="evenodd"/><path fill="#000000" fill-opacity="0.0" d="m359.3701 126.997375l53.795258 0" fill-rule="evenodd"/><path stroke="#000000" stroke-width="1.0" stroke-linejoin="round" stroke-linecap="butt" d="m359.3701 126.997375l47.795258 0" fill-rule="evenodd"/><path fill="#000000" stroke="#000000" stroke-width="1.0" stroke-linecap="butt" d="m407.16534 128.64911l4.5381165 -1.6517334l-4.5381165 -1.6517334z" fill-rule="evenodd"/><path fill="#cfe2f3" d="m748.0315 45.78478l186.5827 0l0 162.4252l-186.5827 0z" fill-rule="evenodd"/><path stroke="#000000" stroke-width="1.0" stroke-linejoin="round" stroke-linecap="butt" d="m748.0315 45.78478l186.5827 0l0 162.4252l-186.5827 0z" fill-rule="evenodd"/><path fill="#000000" d="m766.5447 93.32112l0 2.359375l2.875 0l0 10.4375l-2.875 0l0 2.359375l8.765625 0l0 -2.359375l-2.953125 0l0 -10.4375l2.953125 0l0 -2.359375l-8.765625 0zm12.252075 15.15625l2.90625 0l0 -8.015625q0.140625 -0.21875 0.3125 -0.40625q0.1875 -0.1875 0.40625 -0.328125q0.265625 -0.1875 0.609375 -0.28125q0.359375 -0.09375 0.78125 -0.09375q0.5 0 0.890625 0.109375q0.390625 0.09375 0.671875 0.34375q0.28125 0.25 0.4375 0.6875q0.15625 0.421875 0.15625 1.09375l0 6.890625l2.890625 0l0 -6.9375q0 -1.234375 -0.296875 -2.09375q-0.28125 -0.859375 -0.78125 -1.40625q-0.53125 -0.53125 -1.234375 -0.78125q-0.703125 -0.25 -1.5625 -0.25q-0.671875 0 -1.265625 0.1875q-0.59375 0.1875 -1.09375 0.53125q-0.28125 0.203125 -0.546875 0.46875q-0.265625 0.265625 -0.484375 0.578125l-0.171875 -1.5625l-2.625 0l0 11.265625zm18.11145 -14.03125l-2.890625 0l0 2.765625l-2.578125 0l0 2.125l2.578125 0l0 5.125q0 1.125 0.28125 1.921875q0.296875 0.796875 0.84375 1.296875q0.53125 0.53125 1.28125 0.78125q0.75 0.234375 1.6875 0.234375q0.46875 0 0.96875 -0.046875q0.5 -0.046875 0.953125 -0.125q0.453125 -0.09375 0.859375 -0.21875q0.40625 -0.125 0.703125 -0.3125l-0.28125 -1.984375q-0.1875 0.046875 -0.46875 0.109375q-0.265625 0.046875 -0.578125 0.09375q-0.328125 0.046875 -0.6875 0.078125q-0.34375 0.03125 -0.671875 0.03125q-0.453125 0 -0.828125 -0.09375q-0.375 -0.109375 -0.625 -0.359375q-0.265625 -0.25 -0.40625 -0.65625q-0.140625 -0.40625 -0.140625 -1.03125l0 -4.84375l4.203125 0l0 -2.125l-4.203125 0l0 -2.765625zm14.533386 14.03125l2.921875 0l0 -0.171875q-0.21875 -0.4375 -0.328125 -1.03125q-0.109375 -0.59375 -0.109375 -1.5l0 -4.828125q0 -0.984375 -0.375 -1.71875q-0.359375 -0.75 -1.0 -1.234375q-0.640625 -0.484375 -1.53125 -0.734375q-0.875 -0.25 -1.890625 -0.25q-1.140625 0 -2.03125 0.28125q-0.875 0.28125 -1.46875 0.765625q-0.625 0.5 -0.9375 1.140625q-0.3125 0.640625 -0.3125 1.359375l2.890625 0q0 -0.296875 0.078125 -0.546875q0.09375 -0.25 0.28125 -0.421875q0.21875 -0.203125 0.546875 -0.3125q0.328125 -0.109375 0.796875 -0.109375q0.515625 0 0.90625 0.140625q0.390625 0.125 0.65625 0.359375q0.25 0.234375 0.375 0.546875q0.125 0.3125 0.125 0.71875l0 0.65625l-1.625 0q-1.25 0 -2.21875 0.234375q-0.953125 0.21875 -1.609375 0.640625q-0.734375 0.46875 -1.09375 1.203125q-0.359375 0.71875 -0.359375 1.65625q0 0.734375 0.28125 1.359375q0.296875 0.609375 0.8125 1.0625q0.53125 0.4375 1.25 0.6875q0.71875 0.25 1.59375 0.25q0.53125 0 0.984375 -0.09375q0.453125 -0.09375 0.84375 -0.28125q0.375 -0.15625 0.6875 -0.390625q0.3125 -0.234375 0.546875 -0.484375q0.0625 0.296875 0.125 0.578125q0.078125 0.265625 0.1875 0.46875zm-2.765625 -2.03125q-0.40625 0 -0.71875 -0.09375q-0.296875 -0.109375 -0.515625 -0.265625q-0.203125 -0.1875 -0.3125 -0.4375q-0.109375 -0.25 -0.109375 -0.5625q0 -0.375 0.140625 -0.703125q0.15625 -0.328125 0.453125 -0.578125q0.296875 -0.21875 0.78125 -0.34375q0.484375 -0.140625 1.15625 -0.140625l1.484375 0l0 1.9375q-0.125 0.21875 -0.34375 0.4375q-0.21875 0.203125 -0.53125 0.375q-0.296875 0.171875 -0.671875 0.28125q-0.375 0.09375 -0.8125 0.09375zm8.220825 -3.6875l0 0.21875q0 1.234375 0.3125 2.28125q0.328125 1.046875 0.921875 1.796875q0.59375 0.765625 1.421875 1.203125q0.84375 0.421875 1.90625 0.421875q0.53125 0 0.984375 -0.109375q0.46875 -0.109375 0.859375 -0.328125q0.25 -0.140625 0.484375 -0.328125q0.234375 -0.1875 0.4375 -0.421875l0 0.65625q0 0.5625 -0.171875 1.015625q-0.15625 0.46875 -0.453125 0.78125q-0.328125 0.34375 -0.828125 0.515625q-0.5 0.1875 -1.125 0.1875q-0.40625 0 -0.78125 -0.078125q-0.359375 -0.078125 -0.703125 -0.234375q-0.359375 -0.15625 -0.6875 -0.40625q-0.3125 -0.25 -0.59375 -0.5625l-1.296875 1.75q0.359375 0.46875 0.859375 0.8125q0.515625 0.34375 1.09375 0.5625q0.578125 0.21875 1.15625 0.3125q0.578125 0.109375 1.09375 0.109375q1.1875 0 2.171875 -0.328125q0.984375 -0.3125 1.6875 -0.921875q0.703125 -0.609375 1.09375 -1.515625q0.390625 -0.890625 0.390625 -2.03125l0 -10.90625l-2.640625 0l-0.109375 1.0625q-0.203125 -0.25 -0.453125 -0.453125q-0.25 -0.21875 -0.546875 -0.375q-0.390625 -0.21875 -0.859375 -0.328125q-0.46875 -0.109375 -1.046875 -0.109375q-1.0625 0 -1.90625 0.421875q-0.84375 0.40625 -1.4375 1.15625q-0.59375 0.765625 -0.921875 1.828125q-0.3125 1.0625 -0.3125 2.34375zm2.90625 0.21875l0 -0.21875q0 -0.703125 0.140625 -1.328125q0.15625 -0.625 0.453125 -1.09375q0.296875 -0.453125 0.734375 -0.71875q0.453125 -0.265625 1.078125 -0.265625q0.328125 0 0.609375 0.0625q0.296875 0.0625 0.53125 0.171875q0.28125 0.140625 0.5 0.359375q0.21875 0.21875 0.375 0.515625l0 4.765625q-0.140625 0.265625 -0.34375 0.46875q-0.203125 0.203125 -0.453125 0.359375q-0.25 0.125 -0.5625 0.203125q-0.3125 0.078125 -0.6875 0.078125q-0.609375 0 -1.0625 -0.265625q-0.4375 -0.265625 -0.734375 -0.71875q-0.296875 -0.453125 -0.4375 -1.0625q-0.140625 -0.609375 -0.140625 -1.3125zm18.283325 -5.96875q-1.140625 0 -2.09375 0.546875q-0.953125 0.53125 -1.640625 1.5l-0.03125 -0.25l-0.109375 -1.59375l-2.703125 0l0 11.265625l2.90625 0l0 -6.765625q0.1875 -0.484375 0.484375 -0.828125q0.3125 -0.359375 0.734375 -0.59375q0.359375 -0.203125 0.8125 -0.296875q0.453125 -0.09375 1.015625 -0.09375q0.546875 0 1.140625 0.0625q0.59375 0.0625 1.171875 0.203125l0.421875 -2.875q-0.34375 -0.109375 -0.90625 -0.1875q-0.546875 -0.09375 -1.203125 -0.09375zm11.752075 11.46875l2.921875 0l0 -0.171875q-0.21875 -0.4375 -0.328125 -1.03125q-0.109375 -0.59375 -0.109375 -1.5l0 -4.828125q0 -0.984375 -0.375 -1.71875q-0.359375 -0.75 -1.0 -1.234375q-0.640625 -0.484375 -1.53125 -0.734375q-0.875 -0.25 -1.890625 -0.25q-1.140625 0 -2.03125 0.28125q-0.875 0.28125 -1.46875 0.765625q-0.625 0.5 -0.9375 1.140625q-0.3125 0.640625 -0.3125 1.359375l2.890625 0q0 -0.296875 0.078125 -0.546875q0.09375 -0.25 0.28125 -0.421875q0.21875 -0.203125 0.546875 -0.3125q0.328125 -0.109375 0.796875 -0.109375q0.515625 0 0.90625 0.140625q0.390625 0.125 0.65625 0.359375q0.25 0.234375 0.375 0.546875q0.125 0.3125 0.125 0.71875l0 0.65625l-1.625 0q-1.25 0 -2.21875 0.234375q-0.953125 0.21875 -1.609375 0.640625q-0.734375 0.46875 -1.09375 1.203125q-0.359375 0.71875 -0.359375 1.65625q0 0.734375 0.28125 1.359375q0.296875 0.609375 0.8125 1.0625q0.53125 0.4375 1.25 0.6875q0.71875 0.25 1.59375 0.25q0.53125 0 0.984375 -0.09375q0.453125 -0.09375 0.84375 -0.28125q0.375 -0.15625 0.6875 -0.390625q0.3125 -0.234375 0.546875 -0.484375q0.0625 0.296875 0.125 0.578125q0.078125 0.265625 0.1875 0.46875zm-2.765625 -2.03125q-0.40625 0 -0.71875 -0.09375q-0.296875 -0.109375 -0.515625 -0.265625q-0.203125 -0.1875 -0.3125 -0.4375q-0.109375 -0.25 -0.109375 -0.5625q0 -0.375 0.140625 -0.703125q0.15625 -0.328125 0.453125 -0.578125q0.296875 -0.21875 0.78125 -0.34375q0.484375 -0.140625 1.15625 -0.140625l1.484375 0l0 1.9375q-0.125 0.21875 -0.34375 0.4375q-0.21875 0.203125 -0.53125 0.375q-0.296875 0.171875 -0.671875 0.28125q-0.375 0.09375 -0.8125 0.09375zm10.314636 -9.234375l-2.484375 0l0 11.265625l2.640625 0l0 -8.4375q0.046875 -0.140625 0.109375 -0.25q0.0625 -0.109375 0.140625 -0.203125q0.125 -0.109375 0.265625 -0.171875q0.140625 -0.0625 0.328125 -0.0625q0.171875 0 0.3125 0.046875q0.15625 0.046875 0.265625 0.15625q0.109375 0.125 0.171875 0.328125q0.0625 0.203125 0.0625 0.53125l0 8.0625l2.546875 0l0 -8.3125q0 -0.125 0 -0.1875q0 -0.078125 0 -0.109375q0.046875 -0.109375 0.125 -0.1875q0.078125 -0.09375 0.171875 -0.171875q0.109375 -0.078125 0.234375 -0.109375q0.140625 -0.046875 0.296875 -0.046875q0.15625 0 0.3125 0.046875q0.15625 0.046875 0.265625 0.15625q0.109375 0.125 0.171875 0.34375q0.078125 0.203125 0.078125 0.53125l0 8.046875l2.625 0l0 -8.046875q0 -0.9375 -0.1875 -1.578125q-0.171875 -0.65625 -0.5 -1.0625q-0.328125 -0.40625 -0.765625 -0.59375q-0.4375 -0.1875 -0.953125 -0.1875q-0.40625 0 -0.75 0.109375q-0.34375 0.09375 -0.609375 0.28125q-0.21875 0.140625 -0.40625 0.34375q-0.1875 0.203125 -0.328125 0.453125q-0.09375 -0.265625 -0.234375 -0.453125q-0.125 -0.203125 -0.296875 -0.359375q-0.234375 -0.1875 -0.546875 -0.28125q-0.3125 -0.09375 -0.703125 -0.09375q-0.8125 0 -1.390625 0.421875q-0.5625 0.40625 -0.875 1.140625l-0.09375 -1.359375zm14.0177 5.703125l2.25 0q1.25 0 2.25 -0.34375q1.0 -0.359375 1.703125 -1.0q0.6875 -0.625 1.0625 -1.484375q0.390625 -0.875 0.390625 -1.890625q0 -1.09375 -0.390625 -1.984375q-0.375 -0.890625 -1.0625 -1.546875q-0.703125 -0.625 -1.703125 -0.984375q-1.0 -0.359375 -2.25 -0.359375l-5.1875 0l0 15.15625l2.9375 0l0 -5.5625zm0 -2.375l0 -4.84375l2.25 0q0.625 0 1.078125 0.203125q0.46875 0.1875 0.78125 0.53125q0.296875 0.34375 0.453125 0.8125q0.15625 0.453125 0.15625 0.96875q0 0.46875 -0.15625 0.890625q-0.15625 0.421875 -0.453125 0.734375q-0.3125 0.328125 -0.78125 0.515625q-0.453125 0.1875 -1.078125 0.1875l-2.25 0zm9.3927 2.203125l0 0.21875q0 1.234375 0.34375 2.28125q0.359375 1.046875 1.046875 1.8125q0.671875 0.78125 1.671875 1.21875q1.0 0.421875 2.265625 0.421875q1.265625 0 2.25 -0.421875q0.984375 -0.4375 1.671875 -1.21875q0.671875 -0.765625 1.015625 -1.8125q0.359375 -1.046875 0.359375 -2.28125l0 -0.21875q0 -1.234375 -0.359375 -2.28125q-0.34375 -1.046875 -1.015625 -1.8125q-0.6875 -0.78125 -1.6875 -1.203125q-0.984375 -0.4375 -2.25 -0.4375q-1.28125 0 -2.265625 0.4375q-0.984375 0.421875 -1.65625 1.203125q-0.6875 0.765625 -1.046875 1.8125q-0.34375 1.046875 -0.34375 2.28125zm2.890625 0.21875l0 -0.21875q0 -0.6875 0.125 -1.296875q0.140625 -0.625 0.4375 -1.09375q0.296875 -0.46875 0.75 -0.734375q0.453125 -0.28125 1.109375 -0.28125q0.65625 0 1.109375 0.28125q0.453125 0.265625 0.75 0.734375q0.28125 0.46875 0.40625 1.09375q0.140625 0.609375 0.140625 1.296875l0 0.21875q0 0.703125 -0.140625 1.328125q-0.125 0.609375 -0.40625 1.078125q-0.296875 0.46875 -0.75 0.734375q-0.453125 0.265625 -1.09375 0.265625q-0.65625 0 -1.125 -0.265625q-0.453125 -0.265625 -0.75 -0.734375q-0.296875 -0.46875 -0.4375 -1.078125q-0.125 -0.625 -0.125 -1.328125zm17.564575 2.421875q0 0.265625 -0.125 0.484375q-0.125 0.21875 -0.390625 0.375q-0.265625 0.171875 -0.6875 0.28125q-0.421875 0.09375 -0.984375 0.09375q-0.46875 0 -0.921875 -0.09375q-0.4375 -0.09375 -0.78125 -0.3125q-0.34375 -0.1875 -0.5625 -0.515625q-0.21875 -0.328125 -0.25 -0.796875l-2.765625 0q0 0.6875 0.34375 1.375q0.34375 0.6875 1.0 1.21875q0.65625 0.53125 1.625 0.875q0.96875 0.328125 2.25 0.328125q1.15625 0 2.09375 -0.25q0.9375 -0.265625 1.59375 -0.71875q0.65625 -0.453125 1.015625 -1.078125q0.359375 -0.640625 0.359375 -1.390625q0 -0.8125 -0.359375 -1.390625q-0.359375 -0.59375 -0.984375 -1.015625q-0.640625 -0.40625 -1.515625 -0.65625q-0.875 -0.265625 -1.890625 -0.4375q-0.71875 -0.109375 -1.171875 -0.25q-0.453125 -0.140625 -0.71875 -0.3125q-0.265625 -0.171875 -0.375 -0.375q-0.109375 -0.21875 -0.109375 -0.46875q0 -0.25 0.125 -0.46875q0.125 -0.234375 0.34375 -0.390625q0.25 -0.1875 0.640625 -0.296875q0.40625 -0.109375 0.9375 -0.109375q0.625 0 1.0625 0.15625q0.453125 0.15625 0.703125 0.421875q0.1875 0.203125 0.28125 0.453125q0.09375 0.234375 0.09375 0.515625l2.890625 0q0 -0.78125 -0.34375 -1.4375q-0.34375 -0.671875 -0.984375 -1.171875q-0.65625 -0.46875 -1.59375 -0.734375q-0.9375 -0.28125 -2.109375 -0.28125q-1.125 0 -2.03125 0.28125q-0.890625 0.28125 -1.515625 0.75q-0.625 0.484375 -0.953125 1.125q-0.328125 0.625 -0.328125 1.328125q0 0.71875 0.328125 1.265625q0.328125 0.546875 0.90625 0.96875q0.578125 0.421875 1.390625 0.71875q0.828125 0.296875 1.8125 0.5q0.78125 0.140625 1.296875 0.296875q0.515625 0.140625 0.828125 0.3125q0.296875 0.171875 0.40625 0.375q0.125 0.1875 0.125 0.453125zm10.845886 -10.9375l-2.890625 0l0 2.765625l-2.578125 0l0 2.125l2.578125 0l0 5.125q0 1.125 0.28125 1.921875q0.296875 0.796875 0.84375 1.296875q0.53125 0.53125 1.28125 0.78125q0.75 0.234375 1.6875 0.234375q0.46875 0 0.96875 -0.046875q0.5 -0.046875 0.953125 -0.125q0.453125 -0.09375 0.859375 -0.21875q0.40625 -0.125 0.703125 -0.3125l-0.28125 -1.984375q-0.1875 0.046875 -0.46875 0.109375q-0.265625 0.046875 -0.578125 0.09375q-0.328125 0.046875 -0.6875 0.078125q-0.34375 0.03125 -0.671875 0.03125q-0.453125 0 -0.828125 -0.09375q-0.375 -0.109375 -0.625 -0.359375q-0.265625 -0.25 -0.40625 -0.65625q-0.140625 -0.40625 -0.140625 -1.03125l0 -4.84375l4.203125 0l0 -2.125l-4.203125 0l0 -2.765625z" fill-rule="nonzero"/><path fill="#000000" d="m785.83685 144.47737l0 1.6875l3.84375 0l0 12.640625l-3.84375 0l0 1.671875l9.4375 0l0 -1.671875l-3.671875 0l0 -14.328125l-5.765625 0zm12.79895 4.734375l0 1.671875l3.84375 0l0 7.921875l-3.84375 0l0 1.671875l9.4375 0l0 -1.671875l-3.671875 0l0 -9.59375l-5.765625 0zm3.59375 -2.953125q0 0.46875 0.28125 0.78125q0.28125 0.3125 0.875 0.3125q0.5625 0 0.859375 -0.3125q0.296875 -0.3125 0.296875 -0.78125q0 -0.265625 -0.09375 -0.484375q-0.078125 -0.21875 -0.25 -0.359375q-0.125 -0.140625 -0.34375 -0.21875q-0.203125 -0.078125 -0.46875 -0.078125q-0.28125 0 -0.5 0.078125q-0.203125 0.078125 -0.34375 0.21875q-0.15625 0.15625 -0.234375 0.375q-0.078125 0.21875 -0.078125 0.46875zm12.283386 8.953125l4.140625 5.265625l2.4375 0l-5.25 -6.578125l4.546875 -4.6875l-2.328125 0l-3.703125 3.703125l-1.265625 1.359375l0 -9.796875l-1.9375 0l0 16.0l1.9375 0l0 -3.890625l1.421875 -1.375zm14.408325 5.46875q1.640625 0 2.75 -0.65625q1.125 -0.65625 1.6875 -1.515625l-1.171875 -0.921875q-0.53125 0.6875 -1.34375 1.109375q-0.796875 0.421875 -1.828125 0.421875q-0.78125 0 -1.421875 -0.296875q-0.640625 -0.296875 -1.109375 -0.796875q-0.4375 -0.484375 -0.703125 -1.109375q-0.25 -0.625 -0.328125 -1.453125l0 -0.0625l8.046875 0l0 -0.875q0 -1.171875 -0.296875 -2.171875q-0.296875 -1.015625 -0.890625 -1.765625q-0.609375 -0.75 -1.515625 -1.15625q-0.90625 -0.421875 -2.125 -0.421875q-0.96875 0 -1.890625 0.390625q-0.921875 0.390625 -1.640625 1.125q-0.734375 0.75 -1.171875 1.828125q-0.4375 1.078125 -0.4375 2.453125l0 0.4375q0 1.171875 0.390625 2.171875q0.40625 1.0 1.109375 1.734375q0.703125 0.71875 1.703125 1.125q1.0 0.40625 2.1875 0.40625zm-0.25 -10.09375q0.734375 0 1.265625 0.265625q0.546875 0.265625 0.890625 0.703125q0.359375 0.4375 0.546875 1.046875q0.203125 0.59375 0.203125 1.109375l0 0.09375l-6.0625 0q0.125 -0.78125 0.40625 -1.375q0.28125 -0.59375 0.703125 -1.015625q0.421875 -0.40625 0.9375 -0.609375q0.515625 -0.21875 1.109375 -0.21875zm15.54895 6.90625q0 0.265625 -0.109375 0.515625q-0.09375 0.234375 -0.296875 0.421875q-0.3125 0.328125 -0.890625 0.515625q-0.578125 0.171875 -1.34375 0.171875q-0.484375 0 -0.984375 -0.09375q-0.5 -0.109375 -0.90625 -0.359375q-0.421875 -0.25 -0.703125 -0.65625q-0.265625 -0.40625 -0.3125 -1.0l-1.921875 0q0 0.71875 0.328125 1.390625q0.328125 0.65625 0.953125 1.15625q0.609375 0.515625 1.5 0.828125q0.90625 0.296875 2.046875 0.296875q1.0 0 1.84375 -0.234375q0.84375 -0.234375 1.453125 -0.671875q0.59375 -0.4375 0.921875 -1.046875q0.34375 -0.625 0.34375 -1.375q0 -0.703125 -0.296875 -1.234375q-0.28125 -0.53125 -0.84375 -0.9375q-0.5625 -0.390625 -1.390625 -0.671875q-0.828125 -0.296875 -1.859375 -0.515625q-0.796875 -0.15625 -1.3125 -0.3125q-0.515625 -0.171875 -0.8125 -0.375q-0.3125 -0.21875 -0.4375 -0.46875q-0.125 -0.265625 -0.125 -0.59375q0 -0.328125 0.15625 -0.625q0.15625 -0.3125 0.46875 -0.53125q0.296875 -0.234375 0.75 -0.359375q0.46875 -0.140625 1.09375 -0.140625q0.59375 0 1.0625 0.171875q0.46875 0.15625 0.8125 0.421875q0.328125 0.28125 0.515625 0.625q0.1875 0.34375 0.1875 0.71875l1.921875 0q0 -0.75 -0.3125 -1.390625q-0.3125 -0.640625 -0.90625 -1.109375q-0.578125 -0.484375 -1.421875 -0.75q-0.828125 -0.265625 -1.859375 -0.265625q-0.96875 0 -1.78125 0.265625q-0.8125 0.25 -1.390625 0.6875q-0.578125 0.453125 -0.90625 1.0625q-0.328125 0.59375 -0.328125 1.28125q0 0.6875 0.3125 1.21875q0.3125 0.53125 0.890625 0.90625q0.5625 0.40625 1.359375 0.6875q0.796875 0.28125 1.765625 0.46875q0.796875 0.15625 1.328125 0.359375q0.53125 0.1875 0.84375 0.421875q0.328125 0.21875 0.453125 0.5q0.140625 0.28125 0.140625 0.625zm27.394836 -5.140625l0 -1.671875l-9.296875 0l0 1.671875l9.296875 0zm0 4.328125l0 -1.671875l-9.296875 0l0 1.671875l9.296875 0zm22.56665 3.796875l0 -15.15625l-0.15625 0l-5.734375 2.203125l0 1.765625l3.96875 -1.515625l0 12.703125l1.921875 0z" fill-rule="nonzero"/><path fill="#000000" fill-opacity="0.0" d="m46.496063 9.564304l118.55118 0l0 29.637794l-118.55118 0z" fill-rule="evenodd"/><path fill="#000000" d="m68.866646 31.1032l0 -13.359375l5.921875 0q1.78125 0 2.703125 0.359375q0.9375 0.359375 1.484375 1.28125q0.5625 0.90625 0.5625 2.015625q0 1.40625 -0.921875 2.390625q-0.921875 0.96875 -2.84375 1.234375q0.703125 0.34375 1.078125 0.671875q0.765625 0.703125 1.453125 1.765625l2.328125 3.640625l-2.21875 0l-1.765625 -2.78125q-0.78125 -1.203125 -1.28125 -1.828125q-0.5 -0.640625 -0.90625 -0.890625q-0.390625 -0.265625 -0.796875 -0.359375q-0.296875 -0.078125 -0.984375 -0.078125l-2.046875 0l0 5.9375l-1.765625 0zm1.765625 -7.453125l3.796875 0q1.21875 0 1.890625 -0.25q0.6875 -0.265625 1.046875 -0.8125q0.359375 -0.546875 0.359375 -1.1875q0 -0.953125 -0.6875 -1.5625q-0.6875 -0.609375 -2.1875 -0.609375l-4.21875 0l0 4.421875zm18.097946 4.34375l1.6875 0.203125q-0.40625 1.484375 -1.484375 2.3125q-1.078125 0.8125 -2.765625 0.8125q-2.125 0 -3.375 -1.296875q-1.234375 -1.3125 -1.234375 -3.671875q0 -2.453125 1.25 -3.796875q1.265625 -1.34375 3.265625 -1.34375q1.9375 0 3.15625 1.328125q1.234375 1.3125 1.234375 3.703125q0 0.15625 0 0.4375l-7.21875 0q0.09375 1.59375 0.90625 2.453125q0.8125 0.84375 2.015625 0.84375q0.90625 0 1.546875 -0.46875q0.640625 -0.484375 1.015625 -1.515625zm-5.390625 -2.65625l5.40625 0q-0.109375 -1.21875 -0.625 -1.828125q-0.78125 -0.953125 -2.03125 -0.953125q-1.125 0 -1.90625 0.765625q-0.765625 0.75 -0.84375 2.015625zm9.141342 5.765625l0 -9.671875l1.46875 0l0 1.375q1.0625 -1.59375 3.078125 -1.59375q0.875 0 1.609375 0.3125q0.734375 0.3125 1.09375 0.828125q0.375 0.5 0.515625 1.203125q0.09375 0.453125 0.09375 1.59375l0 5.953125l-1.640625 0l0 -5.890625q0 -1.0 -0.203125 -1.484375q-0.1875 -0.5 -0.671875 -0.796875q-0.484375 -0.296875 -1.140625 -0.296875q-1.046875 0 -1.8125 0.671875q-0.75 0.65625 -0.75 2.515625l0 5.28125l-1.640625 0zm16.641342 0l0 -1.21875q-0.90625 1.4375 -2.703125 1.4375q-1.15625 0 -2.125 -0.640625q-0.96875 -0.640625 -1.5 -1.78125q-0.53125 -1.140625 -0.53125 -2.625q0 -1.453125 0.484375 -2.625q0.484375 -1.1875 1.4375 -1.8125q0.96875 -0.625 2.171875 -0.625q0.875 0 1.546875 0.375q0.6875 0.359375 1.109375 0.953125l0 -4.796875l1.640625 0l0 13.359375l-1.53125 0zm-5.171875 -4.828125q0 1.859375 0.78125 2.78125q0.78125 0.921875 1.84375 0.921875q1.078125 0 1.828125 -0.875q0.75 -0.890625 0.75 -2.6875q0 -1.984375 -0.765625 -2.90625q-0.765625 -0.9375 -1.890625 -0.9375q-1.078125 0 -1.8125 0.890625q-0.734375 0.890625 -0.734375 2.8125zm15.906967 1.71875l1.6875 0.203125q-0.40625 1.484375 -1.484375 2.3125q-1.078125 0.8125 -2.765625 0.8125q-2.125 0 -3.375 -1.296875q-1.234375 -1.3125 -1.234375 -3.671875q0 -2.453125 1.25 -3.796875q1.265625 -1.34375 3.265625 -1.34375q1.9375 0 3.15625 1.328125q1.234375 1.3125 1.234375 3.703125q0 0.15625 0 0.4375l-7.21875 0q0.09375 1.59375 0.90625 2.453125q0.8125 0.84375 2.015625 0.84375q0.90625 0 1.546875 -0.46875q0.640625 -0.484375 1.015625 -1.515625zm-5.390625 -2.65625l5.40625 0q-0.109375 -1.21875 -0.625 -1.828125q-0.78125 -0.953125 -2.03125 -0.953125q-1.125 0 -1.90625 0.765625q-0.765625 0.75 -0.84375 2.015625zm9.125717 5.765625l0 -9.671875l1.46875 0l0 1.46875q0.5625 -1.03125 1.03125 -1.359375q0.484375 -0.328125 1.0625 -0.328125q0.828125 0 1.6874924 0.53125l-0.5625 1.515625q-0.6093674 -0.359375 -1.2031174 -0.359375q-0.546875 0 -0.96875 0.328125q-0.421875 0.328125 -0.609375 0.890625q-0.28125 0.875 -0.28125 1.921875l0 5.0625l-1.625 0zm17.130348 0l-1.640625 0l0 -10.453125q-0.59375 0.5625 -1.5625 1.140625q-0.953125 0.5625 -1.71875 0.84375l0 -1.59375q1.375 -0.640625 2.40625 -1.5625q1.03125 -0.921875 1.453125 -1.78125l1.0625 0l0 13.40625z" fill-rule="nonzero"/><path fill="#000000" fill-opacity="0.0" d="m782.04724 9.564304l118.55121 0l0 29.637794l-118.55121 0z" fill-rule="evenodd"/><path fill="#000000" d="m804.41785 31.1032l0 -13.359375l5.921875 0q1.78125 0 2.703125 0.359375q0.9375 0.359375 1.484375 1.28125q0.5625 0.90625 0.5625 2.015625q0 1.40625 -0.921875 2.390625q-0.921875 0.96875 -2.84375 1.234375q0.703125 0.34375 1.078125 0.671875q0.765625 0.703125 1.453125 1.765625l2.328125 3.640625l-2.21875 0l-1.765625 -2.78125q-0.78125 -1.203125 -1.28125 -1.828125q-0.5 -0.640625 -0.90625 -0.890625q-0.390625 -0.265625 -0.796875 -0.359375q-0.296875 -0.078125 -0.984375 -0.078125l-2.046875 0l0 5.9375l-1.765625 0zm1.765625 -7.453125l3.796875 0q1.21875 0 1.890625 -0.25q0.6875 -0.265625 1.046875 -0.8125q0.359375 -0.546875 0.359375 -1.1875q0 -0.953125 -0.6875 -1.5625q-0.6875 -0.609375 -2.1875 -0.609375l-4.21875 0l0 4.421875zm18.0979 4.34375l1.6875 0.203125q-0.40625 1.484375 -1.484375 2.3125q-1.078125 0.8125 -2.765625 0.8125q-2.125 0 -3.375 -1.296875q-1.234375 -1.3125 -1.234375 -3.671875q0 -2.453125 1.25 -3.796875q1.265625 -1.34375 3.265625 -1.34375q1.9375 0 3.15625 1.328125q1.234375 1.3125 1.234375 3.703125q0 0.15625 0 0.4375l-7.21875 0q0.09375 1.59375 0.90625 2.453125q0.8125 0.84375 2.015625 0.84375q0.90625 0 1.546875 -0.46875q0.640625 -0.484375 1.015625 -1.515625zm-5.390625 -2.65625l5.40625 0q-0.109375 -1.21875 -0.625 -1.828125q-0.78125 -0.953125 -2.03125 -0.953125q-1.125 0 -1.90625 0.765625q-0.765625 0.75 -0.84375 2.015625zm9.141357 5.765625l0 -9.671875l1.46875 0l0 1.375q1.0625 -1.59375 3.078125 -1.59375q0.875 0 1.609375 0.3125q0.734375 0.3125 1.09375 0.828125q0.375 0.5 0.515625 1.203125q0.09375 0.453125 0.09375 1.59375l0 5.953125l-1.640625 0l0 -5.890625q0 -1.0 -0.203125 -1.484375q-0.1875 -0.5 -0.671875 -0.796875q-0.484375 -0.296875 -1.140625 -0.296875q-1.046875 0 -1.8125 0.671875q-0.75 0.65625 -0.75 2.515625l0 5.28125l-1.640625 0zm16.641357 0l0 -1.21875q-0.90625 1.4375 -2.703125 1.4375q-1.15625 0 -2.125 -0.640625q-0.96875 -0.640625 -1.5 -1.78125q-0.53125 -1.140625 -0.53125 -2.625q0 -1.453125 0.484375 -2.625q0.484375 -1.1875 1.4375 -1.8125q0.96875 -0.625 2.171875 -0.625q0.875 0 1.546875 0.375q0.6875 0.359375 1.109375 0.953125l0 -4.796875l1.640625 0l0 13.359375l-1.53125 0zm-5.171875 -4.828125q0 1.859375 0.78125 2.78125q0.78125 0.921875 1.84375 0.921875q1.078125 0 1.828125 -0.875q0.75 -0.890625 0.75 -2.6875q0 -1.984375 -0.765625 -2.90625q-0.765625 -0.9375 -1.890625 -0.9375q-1.078125 0 -1.8125 0.890625q-0.734375 0.890625 -0.734375 2.8125zm15.906982 1.71875l1.6875 0.203125q-0.40625 1.484375 -1.484375 2.3125q-1.078125 0.8125 -2.765625 0.8125q-2.125 0 -3.375 -1.296875q-1.234375 -1.3125 -1.234375 -3.671875q0 -2.453125 1.25 -3.796875q1.265625 -1.34375 3.265625 -1.34375q1.9375 0 3.15625 1.328125q1.234375 1.3125 1.234375 3.703125q0 0.15625 0 0.4375l-7.21875 0q0.09375 1.59375 0.90625 2.453125q0.8125 0.84375 2.015625 0.84375q0.90625 0 1.546875 -0.46875q0.640625 -0.484375 1.015625 -1.515625zm-5.390625 -2.65625l5.40625 0q-0.109375 -1.21875 -0.625 -1.828125q-0.78125 -0.953125 -2.03125 -0.953125q-1.125 0 -1.90625 0.765625q-0.765625 0.75 -0.84375 2.015625zm9.125671 5.765625l0 -9.671875l1.46875 0l0 1.46875q0.5625 -1.03125 1.03125 -1.359375q0.484375 -0.328125 1.0625 -0.328125q0.828125 0 1.6875 0.53125l-0.5625 1.515625q-0.609375 -0.359375 -1.203125 -0.359375q-0.546875 0 -0.96875 0.328125q-0.421875 0.328125 -0.609375 0.890625q-0.28125 0.875 -0.28125 1.921875l0 5.0625l-1.625 0zm19.567871 -1.578125l0 1.578125l-8.828125 0q-0.015625 -0.59375 0.1875 -1.140625q0.34375 -0.90625 1.078125 -1.78125q0.75 -0.875 2.15625 -2.015625q2.171875 -1.78125 2.9375 -2.828125q0.765625 -1.046875 0.765625 -1.96875q0 -0.984375 -0.703125 -1.640625q-0.6875 -0.671875 -1.8125 -0.671875q-1.1875 0 -1.90625 0.71875q-0.703125 0.703125 -0.703125 1.953125l-1.6875 -0.171875q0.171875 -1.890625 1.296875 -2.875q1.140625 -0.984375 3.03125 -0.984375q1.921875 0 3.046875 1.0625q1.125 1.0625 1.125 2.640625q0 0.796875 -0.328125 1.578125q-0.328125 0.78125 -1.09375 1.640625q-0.75 0.84375 -2.53125 2.34375q-1.46875 1.234375 -1.890625 1.6875q-0.421875 0.4375 -0.6875 0.875l6.546875 0z" fill-rule="nonzero"/><path fill="#d9ead3" d="m413.16534 94.859314l0 0c0 -8.874245 7.1940002 -16.068237 16.068237 -16.068237l246.5722 0c4.2615356 0 8.348572 1.692894 11.361938 4.706276c3.0133667 3.013382 4.706299 7.100403 4.706299 11.361961l0 64.272964c0 8.874252 -7.194031 16.068237 -16.068237 16.068237l-246.5722 0c-8.874237 0 -16.068237 -7.193985 -16.068237 -16.068237z" fill-rule="evenodd"/><path stroke="#000000" stroke-width="1.0" stroke-linejoin="round" stroke-linecap="butt" d="m413.16534 94.859314l0 0c0 -8.874245 7.1940002 -16.068237 16.068237 -16.068237l246.5722 0c4.2615356 0 8.348572 1.692894 11.361938 4.706276c3.0133667 3.013382 4.706299 7.100403 4.706299 11.361961l0 64.272964c0 8.874252 -7.194031 16.068237 -16.068237 16.068237l-246.5722 0c-8.874237 0 -16.068237 -7.193985 -16.068237 -16.068237z" fill-rule="evenodd"/><path fill="#000000" d="m502.7486 98.40392l0 -4.328125l-1.984375 0l0 11.0l1.984375 0l0 -5.59375q0.109375 -0.140625 0.25 -0.265625q0.140625 -0.125 0.3125 -0.203125q0.1875 -0.109375 0.40625 -0.15625q0.234375 -0.046875 0.5 -0.046875q0.34375 0 0.609375 0.09375q0.28125 0.078125 0.46875 0.265625q0.203125 0.1875 0.296875 0.5q0.109375 0.296875 0.109375 0.703125l0 4.703125l1.984375 0l0 -4.6875q0 -0.84375 -0.203125 -1.453125q-0.203125 -0.609375 -0.5625 -1.0q-0.359375 -0.375 -0.875 -0.5625q-0.5 -0.1875 -1.109375 -0.1875q-0.421875 0 -0.796875 0.125q-0.375 0.125 -0.671875 0.34375q-0.203125 0.140625 -0.390625 0.328125q-0.171875 0.1875 -0.328125 0.421875zm11.638916 6.671875l2.015625 0l0 -0.125q-0.140625 -0.296875 -0.21875 -0.703125q-0.078125 -0.40625 -0.078125 -1.03125l0 -3.3125q0 -0.671875 -0.25 -1.1875q-0.25 -0.515625 -0.703125 -0.84375q-0.4375 -0.34375 -1.046875 -0.515625q-0.609375 -0.171875 -1.296875 -0.171875q-0.78125 0 -1.390625 0.203125q-0.609375 0.1875 -1.015625 0.53125q-0.421875 0.34375 -0.640625 0.78125q-0.21875 0.4375 -0.21875 0.9375l1.984375 0q0 -0.203125 0.0625 -0.375q0.0625 -0.171875 0.1875 -0.296875q0.140625 -0.140625 0.359375 -0.203125q0.234375 -0.078125 0.5625 -0.078125q0.359375 0 0.625 0.09375q0.265625 0.078125 0.4375 0.25q0.171875 0.15625 0.25 0.375q0.09375 0.21875 0.09375 0.484375l0 0.453125l-1.109375 0q-0.859375 0 -1.515625 0.15625q-0.65625 0.15625 -1.109375 0.453125q-0.5 0.3125 -0.75 0.8125q-0.25 0.5 -0.25 1.140625q0 0.5 0.1875 0.9375q0.203125 0.421875 0.5625 0.71875q0.359375 0.3125 0.859375 0.484375q0.5 0.171875 1.09375 0.171875q0.359375 0 0.671875 -0.078125q0.3125 -0.0625 0.578125 -0.171875q0.265625 -0.125 0.46875 -0.28125q0.21875 -0.15625 0.390625 -0.328125q0.03125 0.203125 0.078125 0.390625q0.0625 0.1875 0.125 0.328125zm-1.890625 -1.390625q-0.28125 0 -0.5 -0.0625q-0.203125 -0.078125 -0.34375 -0.1875q-0.140625 -0.125 -0.21875 -0.296875q-0.078125 -0.1875 -0.078125 -0.390625q0 -0.265625 0.09375 -0.484375q0.109375 -0.234375 0.3125 -0.390625q0.203125 -0.15625 0.53125 -0.25q0.34375 -0.09375 0.796875 -0.09375l1.015625 0l0 1.328125q-0.078125 0.15625 -0.234375 0.3125q-0.140625 0.140625 -0.359375 0.25q-0.203125 0.125 -0.46875 0.203125q-0.25 0.0625 -0.546875 0.0625zm5.857666 1.390625l1.984375 0l0 -5.5q0.109375 -0.15625 0.21875 -0.28125q0.125 -0.140625 0.28125 -0.234375q0.1875 -0.125 0.421875 -0.1875q0.25 -0.0625 0.53125 -0.0625q0.34375 0 0.609375 0.0625q0.28125 0.0625 0.46875 0.234375q0.1875 0.171875 0.296875 0.46875q0.109375 0.296875 0.109375 0.765625l0 4.734375l1.984375 0l0 -4.765625q0 -0.84375 -0.203125 -1.4375q-0.1875 -0.59375 -0.546875 -0.96875q-0.359375 -0.375 -0.84375 -0.546875q-0.484375 -0.171875 -1.0625 -0.171875q-0.46875 0 -0.875 0.140625q-0.40625 0.125 -0.75 0.359375q-0.203125 0.140625 -0.390625 0.328125q-0.171875 0.171875 -0.3125 0.390625l-0.125 -1.078125l-1.796875 0l0 7.75zm8.576477 -3.921875l0 0.140625q0 0.84375 0.203125 1.5625q0.21875 0.71875 0.609375 1.25q0.390625 0.515625 0.953125 0.8125q0.5625 0.296875 1.265625 0.296875q0.65625 0 1.140625 -0.25q0.5 -0.25 0.859375 -0.703125l0.109375 0.8125l1.796875 0l0 -11.0l-2.0 0l0 3.953125q-0.359375 -0.40625 -0.828125 -0.625q-0.453125 -0.21875 -1.0625 -0.21875q-0.71875 0 -1.28125 0.296875q-0.5625 0.28125 -0.953125 0.796875q-0.40625 0.53125 -0.609375 1.265625q-0.203125 0.71875 -0.203125 1.609375zm2.0 0.140625l0 -0.140625q0 -0.5 0.078125 -0.921875q0.09375 -0.421875 0.28125 -0.75q0.171875 -0.3125 0.46875 -0.484375q0.296875 -0.1875 0.71875 -0.1875q0.515625 0 0.84375 0.21875q0.34375 0.21875 0.546875 0.609375l0 3.140625q-0.203125 0.375 -0.546875 0.609375q-0.328125 0.21875 -0.84375 0.21875q-0.421875 0 -0.71875 -0.171875q-0.296875 -0.1875 -0.484375 -0.5q-0.1875 -0.3125 -0.265625 -0.734375q-0.078125 -0.421875 -0.078125 -0.90625zm7.420166 -7.21875l0 1.625l2.328125 0l0 7.75l-2.328125 0l0 1.625l6.546875 0l0 -1.625l-2.21875 0l0 -9.375l-4.328125 0zm12.138916 11.140625q1.125 0 1.9375 -0.4375q0.828125 -0.4375 1.21875 -0.96875l-1.0 -1.078125q-0.34375 0.453125 -0.90625 0.671875q-0.546875 0.21875 -1.125 0.21875q-0.421875 0 -0.78125 -0.125q-0.34375 -0.125 -0.609375 -0.375q-0.265625 -0.21875 -0.421875 -0.5q-0.15625 -0.28125 -0.265625 -0.75l0 -0.03125l5.265625 0l0 -0.84375q0 -0.84375 -0.25 -1.546875q-0.234375 -0.703125 -0.671875 -1.203125q-0.46875 -0.5 -1.125 -0.78125q-0.65625 -0.28125 -1.484375 -0.28125q-0.8125 0 -1.5 0.296875q-0.6875 0.296875 -1.1875 0.828125q-0.5 0.53125 -0.78125 1.265625q-0.28125 0.734375 -0.28125 1.609375l0 0.296875q0 0.78125 0.28125 1.46875q0.28125 0.671875 0.8125 1.171875q0.515625 0.515625 1.25 0.8125q0.734375 0.28125 1.625 0.28125zm-0.234375 -6.421875q0.375 0 0.65625 0.125q0.296875 0.109375 0.5 0.3125q0.203125 0.21875 0.3125 0.5q0.125 0.265625 0.125 0.578125l0 0.171875l-3.265625 0q0.0625 -0.390625 0.203125 -0.6875q0.15625 -0.3125 0.359375 -0.53125q0.21875 -0.234375 0.484375 -0.34375q0.28125 -0.125 0.625 -0.125zm12.435791 3.015625l-2.015625 0q-0.015625 0.46875 -0.15625 0.8125q-0.125 0.328125 -0.34375 0.546875q-0.21875 0.21875 -0.546875 0.328125q-0.3125 0.09375 -0.703125 0.09375q-0.296875 0 -0.53125 -0.0625q-0.234375 -0.078125 -0.4375 -0.21875q-0.171875 -0.125 -0.3125 -0.3125q-0.140625 -0.203125 -0.234375 -0.453125q-0.15625 -0.359375 -0.21875 -0.84375q-0.0625 -0.5 -0.0625 -1.125l0 -1.421875q0 -0.453125 0.03125 -0.84375q0.046875 -0.40625 0.140625 -0.734375q0.125 -0.421875 0.328125 -0.734375q0.203125 -0.328125 0.5 -0.5q0.171875 -0.09375 0.375 -0.140625q0.203125 -0.0625 0.4375 -0.0625q0.4375 0 0.75 0.125q0.328125 0.125 0.546875 0.34375q0.203125 0.234375 0.3125 0.59375q0.109375 0.34375 0.140625 0.8125l2.015625 0q-0.078125 -0.8125 -0.359375 -1.46875q-0.265625 -0.65625 -0.734375 -1.09375q-0.46875 -0.453125 -1.140625 -0.6875q-0.671875 -0.25 -1.53125 -0.25q-0.578125 0 -1.09375 0.140625q-0.5 0.140625 -0.921875 0.421875q-0.46875 0.3125 -0.84375 0.78125q-0.375 0.46875 -0.59375 1.0625q-0.203125 0.484375 -0.3125 1.0625q-0.09375 0.5625 -0.09375 1.1875l0 1.40625q0 0.671875 0.109375 1.28125q0.109375 0.59375 0.328125 1.09375q0.203125 0.5 0.515625 0.921875q0.3125 0.40625 0.71875 0.703125q0.4375 0.3125 0.984375 0.484375q0.546875 0.171875 1.1875 0.171875q0.8125 0 1.484375 -0.234375q0.671875 -0.25 1.171875 -0.6875q0.484375 -0.453125 0.765625 -1.078125q0.296875 -0.625 0.34375 -1.421875zm2.045227 -7.734375l0 1.625l2.328125 0l0 7.75l-2.328125 0l0 1.625l6.546875 0l0 -1.625l-2.21875 0l0 -9.375l-4.328125 0zm8.904541 3.25l0 1.625l2.21875 0l0 4.5l-2.21875 0l0 1.625l6.3125 0l0 -1.625l-2.09375 0l0 -6.125l-4.21875 0zm2.0625 -1.96875q0 0.21875 0.078125 0.421875q0.09375 0.1875 0.25 0.328125q0.140625 0.140625 0.34375 0.21875q0.21875 0.078125 0.484375 0.078125q0.53125 0 0.828125 -0.296875q0.3125 -0.296875 0.3125 -0.75q0 -0.46875 -0.3125 -0.765625q-0.296875 -0.296875 -0.828125 -0.296875q-0.265625 0 -0.484375 0.078125q-0.203125 0.078125 -0.34375 0.21875q-0.15625 0.140625 -0.25 0.34375q-0.078125 0.1875 -0.078125 0.421875zm9.638916 8.265625q-0.484375 0 -0.796875 -0.1875q-0.3125 -0.1875 -0.484375 -0.515625q-0.1875 -0.3125 -0.265625 -0.734375q-0.0625 -0.421875 -0.0625 -0.859375l0 -0.21875q0 -0.453125 0.078125 -0.859375q0.078125 -0.421875 0.25 -0.734375q0.1875 -0.328125 0.484375 -0.515625q0.3125 -0.203125 0.796875 -0.203125q0.3125 0 0.578125 0.125q0.28125 0.109375 0.46875 0.28125q0.203125 0.1875 0.296875 0.453125q0.09375 0.25 0.09375 0.546875l1.875 0q0 -0.6875 -0.25 -1.234375q-0.234375 -0.5625 -0.671875 -0.96875q-0.4375 -0.375 -1.046875 -0.59375q-0.609375 -0.21875 -1.328125 -0.21875q-0.890625 0 -1.5625 0.3125q-0.671875 0.3125 -1.140625 0.84375q-0.453125 0.515625 -0.6875 1.234375q-0.21875 0.71875 -0.21875 1.53125l0 0.21875q0 0.8125 0.21875 1.53125q0.234375 0.703125 0.703125 1.234375q0.453125 0.53125 1.125 0.84375q0.6875 0.296875 1.578125 0.296875q0.671875 0 1.265625 -0.203125q0.59375 -0.21875 1.046875 -0.59375q0.453125 -0.375 0.703125 -0.890625q0.265625 -0.515625 0.265625 -1.109375l-1.875 0q0 0.265625 -0.109375 0.484375q-0.109375 0.21875 -0.3125 0.375q-0.1875 0.15625 -0.453125 0.25q-0.265625 0.078125 -0.5625 0.078125zm8.279541 -1.75l2.203125 3.203125l2.4375 0l-3.328125 -4.515625l2.921875 -3.234375l-2.390625 0l-2.140625 2.359375l-0.609375 0.6875l0 -6.296875l-1.984375 0l0 11.0l1.984375 0l0 -2.359375l0.90625 -0.84375zm7.982727 2.046875q0 0.5625 0.375 0.9375q0.375 0.359375 1.015625 0.359375q0.625 0 1.0 -0.359375q0.375 -0.375 0.375 -0.9375q0 -0.546875 -0.375 -0.921875q-0.359375 -0.390625 -1.0 -0.390625q-0.65625 0 -1.03125 0.390625q-0.359375 0.375 -0.359375 0.921875zm0 -5.90625q0 0.5625 0.375 0.9375q0.375 0.359375 1.015625 0.359375q0.625 0 1.0 -0.359375q0.375 -0.375 0.375 -0.9375q0 -0.546875 -0.375 -0.921875q-0.359375 -0.390625 -1.0 -0.390625q-0.65625 0 -1.03125 0.390625q-0.359375 0.375 -0.359375 0.921875z" fill-rule="nonzero"/><path fill="#000000" d="m435.77777 139.02893q0 0.171875 -0.078125 0.34375q-0.0625 0.171875 -0.203125 0.296875q-0.21875 0.21875 -0.609375 0.34375q-0.390625 0.125 -0.921875 0.125q-0.34375 0 -0.6875 -0.0625q-0.34375 -0.078125 -0.625 -0.25q-0.28125 -0.171875 -0.46875 -0.4375q-0.1875 -0.28125 -0.21875 -0.703125l-1.328125 0q0 0.5 0.21875 0.96875q0.234375 0.453125 0.65625 0.796875q0.4375 0.34375 1.046875 0.5625q0.609375 0.203125 1.40625 0.203125q0.6875 0 1.265625 -0.15625q0.578125 -0.171875 0.984375 -0.46875q0.421875 -0.296875 0.65625 -0.71875q0.234375 -0.421875 0.234375 -0.9375q0 -0.484375 -0.203125 -0.84375q-0.203125 -0.375 -0.59375 -0.65625q-0.390625 -0.265625 -0.953125 -0.453125q-0.5625 -0.203125 -1.28125 -0.359375q-0.546875 -0.109375 -0.90625 -0.21875q-0.34375 -0.109375 -0.546875 -0.265625q-0.21875 -0.140625 -0.3125 -0.3125q-0.078125 -0.1875 -0.078125 -0.40625q0 -0.21875 0.109375 -0.421875q0.109375 -0.21875 0.3125 -0.375q0.21875 -0.15625 0.53125 -0.25q0.3125 -0.09375 0.734375 -0.09375q0.40625 0 0.734375 0.125q0.328125 0.109375 0.5625 0.28125q0.21875 0.1875 0.34375 0.4375q0.140625 0.234375 0.140625 0.484375l1.328125 0q0 -0.5 -0.21875 -0.9375q-0.21875 -0.453125 -0.625 -0.78125q-0.40625 -0.328125 -0.984375 -0.515625q-0.5625 -0.1875 -1.28125 -0.1875q-0.65625 0 -1.21875 0.1875q-0.546875 0.171875 -0.953125 0.484375q-0.40625 0.3125 -0.625 0.71875q-0.21875 0.40625 -0.21875 0.875q0 0.484375 0.21875 0.84375q0.21875 0.359375 0.609375 0.625q0.390625 0.28125 0.9375 0.46875q0.546875 0.1875 1.203125 0.328125q0.546875 0.109375 0.90625 0.25q0.375 0.125 0.59375 0.28125q0.21875 0.15625 0.3125 0.34375q0.09375 0.1875 0.09375 0.4375zm7.076416 2.1875q1.125 0 1.890625 -0.453125q0.765625 -0.453125 1.15625 -1.046875l-0.8125 -0.625q-0.359375 0.46875 -0.90625 0.765625q-0.546875 0.28125 -1.265625 0.28125q-0.53125 0 -0.984375 -0.203125q-0.4375 -0.203125 -0.75 -0.546875q-0.3125 -0.328125 -0.484375 -0.75q-0.171875 -0.4375 -0.21875 -1.0l0 -0.0625l5.53125 0l0 -0.59375q0 -0.796875 -0.21875 -1.484375q-0.203125 -0.703125 -0.609375 -1.21875q-0.421875 -0.515625 -1.046875 -0.796875q-0.625 -0.296875 -1.453125 -0.296875q-0.671875 0 -1.3125 0.28125q-0.625 0.265625 -1.125 0.78125q-0.5 0.515625 -0.796875 1.25q-0.296875 0.734375 -0.296875 1.671875l0 0.3125q0 0.796875 0.265625 1.484375q0.28125 0.6875 0.765625 1.1875q0.484375 0.5 1.15625 0.78125q0.6875 0.28125 1.515625 0.28125zm-0.171875 -6.9375q0.5 0 0.859375 0.1875q0.375 0.1875 0.625 0.484375q0.234375 0.296875 0.375 0.71875q0.140625 0.40625 0.140625 0.765625l0 0.0625l-4.171875 0q0.078125 -0.53125 0.28125 -0.9375q0.203125 -0.421875 0.484375 -0.703125q0.28125 -0.28125 0.640625 -0.421875q0.359375 -0.15625 0.765625 -0.15625zm8.670197 -2.828125l-1.328125 0l0 1.875l-2.03125 0l0 1.03125l2.03125 0l0 4.203125q0 0.71875 0.1875 1.234375q0.1875 0.5 0.515625 0.8125q0.34375 0.3125 0.78125 0.46875q0.453125 0.140625 0.96875 0.140625q0.296875 0 0.609375 -0.03125q0.3125 -0.03125 0.59375 -0.078125q0.28125 -0.046875 0.515625 -0.125q0.234375 -0.078125 0.40625 -0.171875l-0.1875 -0.9375q-0.125 0.015625 -0.3125 0.0625q-0.1875 0.03125 -0.40625 0.078125q-0.21875 0.03125 -0.453125 0.0625q-0.21875 0.015625 -0.4375 0.015625q-0.296875 0 -0.5625 -0.0625q-0.25 -0.078125 -0.453125 -0.25q-0.203125 -0.171875 -0.328125 -0.46875q-0.109375 -0.296875 -0.109375 -0.75l0 -4.203125l2.953125 0l0 -1.03125l-2.953125 0l0 -1.875zm7.154541 8.5l0 -9.296875l-1.3125 0l0 10.421875l6.421875 0l0 -1.125l-5.109375 0zm7.5139465 -6.625l0 1.15625l2.640625 0l0 5.453125l-2.640625 0l0 1.140625l6.484375 0l0 -1.140625l-2.53125 0l0 -6.609375l-3.953125 0zm2.46875 -2.03125q0 0.328125 0.1875 0.546875q0.203125 0.203125 0.59375 0.203125q0.40625 0 0.59375 -0.203125q0.203125 -0.21875 0.203125 -0.546875q0 -0.171875 -0.0625 -0.3125q-0.046875 -0.15625 -0.15625 -0.265625q-0.09375 -0.09375 -0.25 -0.140625q-0.140625 -0.0625 -0.328125 -0.0625q-0.1875 0 -0.328125 0.0625q-0.140625 0.046875 -0.234375 0.140625q-0.125 0.109375 -0.171875 0.265625q-0.046875 0.140625 -0.046875 0.3125zm8.435791 6.171875l2.84375 3.609375l1.6875 0l-3.625 -4.515625l3.140625 -3.234375l-1.609375 0l-2.546875 2.546875l-0.859375 0.9375l0 -6.734375l-1.328125 0l0 11.0l1.328125 0l0 -2.671875l0.96875 -0.9375zm9.904572 3.75q1.125 0 1.890625 -0.453125q0.765625 -0.453125 1.15625 -1.046875l-0.8125 -0.625q-0.359375 0.46875 -0.90625 0.765625q-0.546875 0.28125 -1.265625 0.28125q-0.53125 0 -0.984375 -0.203125q-0.4375 -0.203125 -0.75 -0.546875q-0.3125 -0.328125 -0.484375 -0.75q-0.171875 -0.4375 -0.21875 -1.0l0 -0.0625l5.53125 0l0 -0.59375q0 -0.796875 -0.21875 -1.484375q-0.203125 -0.703125 -0.609375 -1.21875q-0.421875 -0.515625 -1.046875 -0.796875q-0.625 -0.296875 -1.453125 -0.296875q-0.671875 0 -1.3125 0.28125q-0.625 0.265625 -1.125 0.78125q-0.5 0.515625 -0.796875 1.25q-0.296875 0.734375 -0.296875 1.671875l0 0.3125q0 0.796875 0.265625 1.484375q0.28125 0.6875 0.765625 1.1875q0.484375 0.5 1.15625 0.78125q0.6875 0.28125 1.515625 0.28125zm-0.171875 -6.9375q0.5 0 0.859375 0.1875q0.375 0.1875 0.625 0.484375q0.234375 0.296875 0.375 0.71875q0.140625 0.40625 0.140625 0.765625l0 0.0625l-4.171875 0q0.078125 -0.53125 0.28125 -0.9375q0.203125 -0.421875 0.484375 -0.703125q0.28125 -0.28125 0.640625 -0.421875q0.359375 -0.15625 0.765625 -0.15625zm10.685791 4.75q0 0.171875 -0.078125 0.34375q-0.0625 0.171875 -0.203125 0.296875q-0.21875 0.21875 -0.609375 0.34375q-0.390625 0.125 -0.921875 0.125q-0.34375 0 -0.6875 -0.0625q-0.34375 -0.078125 -0.625 -0.25q-0.28125 -0.171875 -0.46875 -0.4375q-0.1875 -0.28125 -0.21875 -0.703125l-1.328125 0q0 0.5 0.21875 0.96875q0.234375 0.453125 0.65625 0.796875q0.4375 0.34375 1.046875 0.5625q0.609375 0.203125 1.40625 0.203125q0.6875 0 1.265625 -0.15625q0.578125 -0.171875 0.984375 -0.46875q0.421875 -0.296875 0.65625 -0.71875q0.234375 -0.421875 0.234375 -0.9375q0 -0.484375 -0.203125 -0.84375q-0.203125 -0.375 -0.59375 -0.65625q-0.390625 -0.265625 -0.953125 -0.453125q-0.5625 -0.203125 -1.28125 -0.359375q-0.546875 -0.109375 -0.90625 -0.21875q-0.34375 -0.109375 -0.546875 -0.265625q-0.21875 -0.140625 -0.3125 -0.3125q-0.078125 -0.1875 -0.078125 -0.40625q0 -0.21875 0.109375 -0.421875q0.109375 -0.21875 0.3125 -0.375q0.21875 -0.15625 0.53125 -0.25q0.3125 -0.09375 0.734375 -0.09375q0.40625 0 0.734375 0.125q0.328125 0.109375 0.5625 0.28125q0.21875 0.1875 0.34375 0.4375q0.140625 0.234375 0.140625 0.484375l1.328125 0q0 -0.5 -0.21875 -0.9375q-0.21875 -0.453125 -0.625 -0.78125q-0.40625 -0.328125 -0.984375 -0.515625q-0.5625 -0.1875 -1.28125 -0.1875q-0.65625 0 -1.21875 0.1875q-0.546875 0.171875 -0.953125 0.484375q-0.40625 0.3125 -0.625 0.71875q-0.21875 0.40625 -0.21875 0.875q0 0.484375 0.21875 0.84375q0.21875 0.359375 0.609375 0.625q0.390625 0.28125 0.9375 0.46875q0.546875 0.1875 1.203125 0.328125q0.546875 0.109375 0.90625 0.25q0.375 0.125 0.59375 0.28125q0.21875 0.15625 0.3125 0.34375q0.09375 0.1875 0.09375 0.4375zm4.9670715 -2.1875l0 0.078125q0 1.015625 0.15625 1.921875q0.15625 0.90625 0.4375 1.671875q0.25 0.765625 0.609375 1.390625q0.359375 0.640625 0.75 1.140625q0.390625 0.5 0.78125 0.84375q0.40625 0.34375 0.75 0.546875l0.28125 -0.796875q-0.28125 -0.25 -0.578125 -0.578125q-0.296875 -0.328125 -0.5625 -0.765625q-0.265625 -0.453125 -0.515625 -1.015625q-0.234375 -0.5625 -0.421875 -1.234375q-0.171875 -0.65625 -0.28125 -1.4375q-0.09375 -0.78125 -0.09375 -1.671875l0 -0.109375q0 -0.921875 0.109375 -1.734375q0.109375 -0.8125 0.296875 -1.484375q0.203125 -0.734375 0.5 -1.359375q0.3125 -0.625 0.640625 -1.09375q0.21875 -0.296875 0.453125 -0.546875q0.234375 -0.25 0.453125 -0.421875l-0.28125 -0.875q-0.34375 0.203125 -0.75 0.5625q-0.390625 0.34375 -0.78125 0.84375q-0.390625 0.484375 -0.75 1.125q-0.34375 0.640625 -0.609375 1.40625q-0.28125 0.765625 -0.4375 1.671875q-0.15625 0.90625 -0.15625 1.921875zm8.795166 0l0 0.078125q0 1.015625 0.15625 1.921875q0.15625 0.90625 0.4375 1.671875q0.25 0.765625 0.609375 1.390625q0.359375 0.640625 0.75 1.140625q0.390625 0.5 0.78125 0.84375q0.40625 0.34375 0.75 0.546875l0.28125 -0.796875q-0.28125 -0.25 -0.578125 -0.578125q-0.296875 -0.328125 -0.5625 -0.765625q-0.265625 -0.453125 -0.515625 -1.015625q-0.234375 -0.5625 -0.421875 -1.234375q-0.171875 -0.65625 -0.28125 -1.4375q-0.09375 -0.78125 -0.09375 -1.671875l0 -0.109375q0 -0.921875 0.109375 -1.734375q0.109375 -0.8125 0.296875 -1.484375q0.203125 -0.734375 0.5 -1.359375q0.3125 -0.625 0.640625 -1.09375q0.21875 -0.296875 0.453125 -0.546875q0.234375 -0.25 0.453125 -0.421875l-0.28125 -0.875q-0.34375 0.203125 -0.75 0.5625q-0.390625 0.34375 -0.78125 0.84375q-0.390625 0.484375 -0.75 1.125q-0.34375 0.640625 -0.609375 1.40625q-0.28125 0.765625 -0.4375 1.671875q-0.15625 0.90625 -0.15625 1.921875zm10.779541 3.296875q-0.625 0 -1.046875 -0.234375q-0.421875 -0.25 -0.671875 -0.65625q-0.25 -0.390625 -0.359375 -0.890625q-0.109375 -0.5 -0.109375 -1.0l0 -0.296875q0 -0.5 0.109375 -1.0q0.109375 -0.5 0.359375 -0.890625q0.265625 -0.40625 0.671875 -0.640625q0.421875 -0.25 1.046875 -0.25q0.390625 0 0.734375 0.140625q0.359375 0.125 0.609375 0.359375q0.25 0.25 0.390625 0.5625q0.15625 0.296875 0.15625 0.65625l1.25 0q0 -0.59375 -0.234375 -1.109375q-0.234375 -0.515625 -0.640625 -0.890625q-0.421875 -0.375 -1.0 -0.59375q-0.578125 -0.21875 -1.265625 -0.21875q-0.875 0 -1.546875 0.328125q-0.65625 0.3125 -1.09375 0.828125q-0.4375 0.546875 -0.671875 1.25q-0.21875 0.703125 -0.21875 1.46875l0 0.296875q0 0.765625 0.21875 1.46875q0.234375 0.703125 0.671875 1.234375q0.4375 0.53125 1.09375 0.84375q0.671875 0.3125 1.546875 0.3125q0.609375 0 1.171875 -0.203125q0.578125 -0.21875 1.015625 -0.578125q0.421875 -0.34375 0.6875 -0.8125q0.265625 -0.46875 0.265625 -0.984375l-1.25 0q0 0.3125 -0.171875 0.59375q-0.15625 0.28125 -0.421875 0.484375q-0.265625 0.203125 -0.609375 0.3125q-0.328125 0.109375 -0.6875 0.109375zm10.592102 0.9375l1.203125 0l0 -7.75l-1.328125 0l0 5.5625q-0.109375 0.25 -0.265625 0.46875q-0.15625 0.203125 -0.375 0.359375q-0.265625 0.171875 -0.625 0.28125q-0.34375 0.109375 -0.78125 0.109375q-0.375 0 -0.671875 -0.09375q-0.28125 -0.109375 -0.484375 -0.359375q-0.203125 -0.25 -0.3125 -0.65625q-0.09375 -0.421875 -0.09375 -1.046875l0 -4.625l-1.328125 0l0 4.609375q0 0.859375 0.1875 1.484375q0.203125 0.625 0.546875 1.015625q0.359375 0.40625 0.84375 0.59375q0.5 0.1875 1.109375 0.1875q0.75 0 1.328125 -0.3125q0.578125 -0.328125 0.96875 -0.890625l0.078125 1.0625zm8.763916 -7.890625q-0.84375 0 -1.5 0.375q-0.65625 0.359375 -1.140625 1.0l0 -0.1875l-0.0625 -1.046875l-1.25 0l0 7.75l1.328125 0l0 -4.96875q0.125 -0.359375 0.3125 -0.640625q0.203125 -0.296875 0.46875 -0.5q0.296875 -0.21875 0.6875 -0.328125q0.390625 -0.125 0.890625 -0.125q0.375 0 0.71875 0.046875q0.34375 0.03125 0.734375 0.109375l0.171875 -1.296875q-0.1875 -0.078125 -0.59375 -0.125q-0.390625 -0.0625 -0.765625 -0.0625zm8.795166 0q-0.84375 0 -1.5 0.375q-0.65625 0.359375 -1.140625 1.0l0 -0.1875l-0.0625 -1.046875l-1.25 0l0 7.75l1.328125 0l0 -4.96875q0.125 -0.359375 0.3125 -0.640625q0.203125 -0.296875 0.46875 -0.5q0.296875 -0.21875 0.6875 -0.328125q0.390625 -0.125 0.890625 -0.125q0.375 0 0.71875 0.046875q0.34375 0.03125 0.734375 0.109375l0.171875 -1.296875q-0.1875 -0.078125 -0.59375 -0.125q-0.390625 -0.0625 -0.765625 -0.0625zm18.902893 2.3125l0 -1.15625l-6.390625 0l0 1.15625l6.390625 0zm0 2.96875l0 -1.140625l-6.390625 0l0 1.140625l6.390625 0zm2.451416 1.203125l6.3125 -2.71875l0 -1.046875l-6.3125 -2.703125l0 1.375l4.625 1.71875l0.421875 0.125l-0.421875 0.125l-4.625 1.75l0 1.375zm20.855957 0.46875q-0.625 0 -1.046875 -0.234375q-0.421875 -0.25 -0.671875 -0.65625q-0.25 -0.390625 -0.359375 -0.890625q-0.109375 -0.5 -0.109375 -1.0l0 -0.296875q0 -0.5 0.109375 -1.0q0.109375 -0.5 0.359375 -0.890625q0.265625 -0.40625 0.671875 -0.640625q0.421875 -0.25 1.046875 -0.25q0.390625 0 0.734375 0.140625q0.359375 0.125 0.609375 0.359375q0.25 0.25 0.390625 0.5625q0.15625 0.296875 0.15625 0.65625l1.25 0q0 -0.59375 -0.234375 -1.109375q-0.234375 -0.515625 -0.640625 -0.890625q-0.421875 -0.375 -1.0 -0.59375q-0.578125 -0.21875 -1.265625 -0.21875q-0.875 0 -1.546875 0.328125q-0.65625 0.3125 -1.09375 0.828125q-0.4375 0.546875 -0.671875 1.25q-0.21875 0.703125 -0.21875 1.46875l0 0.296875q0 0.765625 0.21875 1.46875q0.234375 0.703125 0.671875 1.234375q0.4375 0.53125 1.09375 0.84375q0.671875 0.3125 1.546875 0.3125q0.609375 0 1.171875 -0.203125q0.578125 -0.21875 1.015625 -0.578125q0.421875 -0.34375 0.6875 -0.8125q0.265625 -0.46875 0.265625 -0.984375l-1.25 0q0 0.3125 -0.171875 0.59375q-0.15625 0.28125 -0.421875 0.484375q-0.265625 0.203125 -0.609375 0.3125q-0.328125 0.109375 -0.6875 0.109375zm10.592102 0.9375l1.203125 0l0 -7.75l-1.328125 0l0 5.5625q-0.109375 0.25 -0.265625 0.46875q-0.15625 0.203125 -0.375 0.359375q-0.265625 0.171875 -0.625 0.28125q-0.34375 0.109375 -0.78125 0.109375q-0.375 0 -0.671875 -0.09375q-0.28125 -0.109375 -0.484375 -0.359375q-0.203125 -0.25 -0.3125 -0.65625q-0.09375 -0.421875 -0.09375 -1.046875l0 -4.625l-1.328125 0l0 4.609375q0 0.859375 0.1875 1.484375q0.203125 0.625 0.546875 1.015625q0.359375 0.40625 0.84375 0.59375q0.5 0.1875 1.109375 0.1875q0.75 0 1.328125 -0.3125q0.578125 -0.328125 0.96875 -0.890625l0.078125 1.0625zm8.763916 -7.890625q-0.84375 0 -1.5 0.375q-0.65625 0.359375 -1.140625 1.0l0 -0.1875l-0.0625 -1.046875l-1.25 0l0 7.75l1.328125 0l0 -4.96875q0.125 -0.359375 0.3125 -0.640625q0.203125 -0.296875 0.46875 -0.5q0.296875 -0.21875 0.6875 -0.328125q0.390625 -0.125 0.890625 -0.125q0.375 0 0.71875 0.046875q0.34375 0.03125 0.734375 0.109375l0.171875 -1.296875q-0.1875 -0.078125 -0.59375 -0.125q-0.390625 -0.0625 -0.765625 -0.0625zm8.795166 0q-0.84375 0 -1.5 0.375q-0.65625 0.359375 -1.140625 1.0l0 -0.1875l-0.0625 -1.046875l-1.25 0l0 7.75l1.328125 0l0 -4.96875q0.125 -0.359375 0.3125 -0.640625q0.203125 -0.296875 0.46875 -0.5q0.296875 -0.21875 0.6875 -0.328125q0.390625 -0.125 0.890625 -0.125q0.375 0 0.71875 0.046875q0.34375 0.03125 0.734375 0.109375l0.171875 -1.296875q-0.1875 -0.078125 -0.59375 -0.125q-0.390625 -0.0625 -0.765625 -0.0625zm16.356018 2.296875l0 -3.03125l-1.328125 0l0 3.03125l-2.890625 0l0 1.328125l2.890625 0l0 3.21875l1.328125 0l0 -3.21875l2.921875 0l0 -1.328125l-2.921875 0zm18.043457 5.59375l0 -10.421875l-0.09375 0l-3.953125 1.515625l0 1.21875l2.734375 -1.046875l0 8.734375l1.3125 0zm9.342041 -4.15625l0 -0.078125q0 -1.09375 -0.171875 -1.96875q-0.171875 -0.875 -0.421875 -1.625q-0.265625 -0.78125 -0.625 -1.40625q-0.34375 -0.625 -0.75 -1.125q-0.375 -0.5 -0.78125 -0.84375q-0.40625 -0.359375 -0.765625 -0.5625l-0.265625 0.8125q0.234375 0.203125 0.484375 0.484375q0.25 0.265625 0.484375 0.625q0.3125 0.46875 0.59375 1.09375q0.296875 0.625 0.5 1.421875q0.15625 0.546875 0.265625 1.34375q0.125 0.78125 0.125 1.734375l0 0.109375q0 0.84375 -0.09375 1.59375q-0.09375 0.75 -0.25 1.390625q-0.15625 0.703125 -0.40625 1.28125q-0.25 0.578125 -0.515625 1.046875q-0.28125 0.453125 -0.59375 0.796875q-0.296875 0.359375 -0.59375 0.59375l0.265625 0.796875q0.359375 -0.203125 0.75 -0.546875q0.40625 -0.34375 0.796875 -0.84375q0.390625 -0.5 0.734375 -1.140625q0.359375 -0.625 0.640625 -1.390625q0.265625 -0.765625 0.421875 -1.671875q0.171875 -0.90625 0.171875 -1.921875zm6.560852 -2.96875q0 0.421875 0.265625 0.71875q0.265625 0.28125 0.78125 0.28125q0.5 0 0.765625 -0.28125q0.28125 -0.296875 0.28125 -0.71875q0 -0.421875 -0.265625 -0.71875q-0.265625 -0.296875 -0.78125 -0.296875q-0.53125 0 -0.796875 0.296875q-0.25 0.296875 -0.25 0.71875zm1.6875 6.8125l0 -1.25l-1.4375 0l0 1.28125q0 0.609375 -0.140625 1.171875q-0.140625 0.5625 -0.484375 1.0625l0.828125 0.453125q0.5625 -0.515625 0.890625 -1.265625q0.34375 -0.734375 0.34375 -1.453125z" fill-rule="nonzero"/><path fill="#000000" fill-opacity="0.0" d="m691.874 126.9958l56.15747 0" fill-rule="evenodd"/><path stroke="#000000" stroke-width="1.0" stroke-linejoin="round" stroke-linecap="butt" d="m691.874 126.9958l50.15747 0" fill-rule="evenodd"/><path fill="#000000" stroke="#000000" stroke-width="1.0" stroke-linecap="butt" d="m742.0315 128.64752l4.538086 -1.6517258l-4.538086 -1.6517334z" fill-rule="evenodd"/><path fill="#000000" fill-opacity="0.0" d="m398.38583 175.19948l314.9606 0l0 37.165344l-314.9606 0z" fill-rule="evenodd"/><path fill="#000000" d="m485.31198 187.27948l-0.203125 1.15625l2.5625 0l-1.515625 8.703125l-2.546875 0l-0.203125 1.140625l6.296875 0l0.203125 -1.140625l-2.453125 0l1.71875 -9.859375l-3.859375 0zm8.039459 3.25l-0.203125 1.15625l2.5625 0l-0.953125 5.453125l-2.546875 0l-0.203125 1.140625l6.296875 0l0.203125 -1.140625l-2.453125 0l1.15625 -6.609375l-3.859375 0zm2.75 -2.0q0 0.34375 0.21875 0.546875q0.21875 0.203125 0.546875 0.1875q0.34375 -0.015625 0.5625 -0.21875q0.21875 -0.21875 0.21875 -0.5625q0 -0.34375 -0.21875 -0.5625q-0.21875 -0.21875 -0.546875 -0.203125q-0.34375 0.015625 -0.5625 0.25q-0.21875 0.21875 -0.21875 0.5625zm7.242584 6.15625l2.125 3.59375l1.546875 0l-2.703125 -4.453125l3.6875 -3.296875l-1.6875 0l-2.875 2.53125l-0.953125 0.875l1.15625 -6.65625l-1.296875 0l-1.921875 11.0l1.3125 0l0.4375 -2.625l1.171875 -0.96875zm9.070709 3.734375q0.90625 0.015625 1.75 -0.359375q0.859375 -0.375 1.375 -1.125l-0.734375 -0.625q-0.453125 0.46875 -1.03125 0.765625q-0.5625 0.28125 -1.234375 0.265625q-0.53125 -0.015625 -0.90625 -0.234375q-0.375 -0.234375 -0.609375 -0.59375q-0.234375 -0.359375 -0.328125 -0.796875q-0.078125 -0.453125 -0.015625 -0.9375l5.328125 0l0.09375 -0.59375q0.09375 -0.703125 -0.015625 -1.375q-0.109375 -0.6875 -0.4375 -1.21875q-0.3125 -0.53125 -0.875 -0.84375q-0.546875 -0.328125 -1.34375 -0.359375q-0.546875 -0.015625 -1.046875 0.140625q-0.5 0.15625 -0.921875 0.421875q-0.4375 0.28125 -0.78125 0.65625q-0.34375 0.375 -0.59375 0.828125q-0.265625 0.453125 -0.4375 0.953125q-0.15625 0.5 -0.21875 1.0l-0.03125 0.3125q-0.078125 0.75 0.09375 1.421875q0.171875 0.65625 0.5625 1.15625q0.375 0.515625 0.96875 0.828125q0.609375 0.296875 1.390625 0.3125zm0.953125 -6.9375q0.421875 0.015625 0.734375 0.203125q0.3125 0.171875 0.515625 0.46875q0.203125 0.296875 0.265625 0.671875q0.078125 0.359375 0.015625 0.765625l-0.03125 0.125l-4.03125 -0.015625q0.140625 -0.421875 0.375 -0.828125q0.234375 -0.40625 0.546875 -0.71875q0.296875 -0.3125 0.703125 -0.5q0.40625 -0.1875 0.90625 -0.171875zm9.648865 4.6875q-0.0625 0.34375 -0.265625 0.578125q-0.203125 0.21875 -0.484375 0.34375q-0.28125 0.140625 -0.609375 0.203125q-0.328125 0.046875 -0.609375 0.046875q-0.34375 0 -0.65625 -0.078125q-0.3125 -0.09375 -0.53125 -0.28125q-0.234375 -0.171875 -0.375 -0.4375q-0.125 -0.28125 -0.140625 -0.65625l-1.28125 0q-0.015625 0.625 0.21875 1.09375q0.25 0.46875 0.671875 0.78125q0.421875 0.328125 0.953125 0.5q0.53125 0.15625 1.09375 0.15625q0.546875 0.015625 1.109375 -0.125q0.578125 -0.125 1.0625 -0.40625q0.46875 -0.28125 0.78125 -0.734375q0.3125 -0.453125 0.34375 -1.078125q0.015625 -0.359375 -0.09375 -0.65625q-0.109375 -0.296875 -0.296875 -0.515625q-0.1875 -0.21875 -0.46875 -0.390625q-0.265625 -0.171875 -0.5625 -0.296875q-0.296875 -0.125 -0.625 -0.21875q-0.3125 -0.09375 -0.59375 -0.171875q-0.234375 -0.046875 -0.53125 -0.109375q-0.28125 -0.078125 -0.515625 -0.203125q-0.234375 -0.125 -0.390625 -0.328125q-0.140625 -0.203125 -0.09375 -0.53125q0.046875 -0.3125 0.234375 -0.53125q0.1875 -0.234375 0.453125 -0.375q0.265625 -0.140625 0.5625 -0.203125q0.296875 -0.0625 0.59375 -0.0625q0.296875 0.015625 0.5625 0.109375q0.28125 0.078125 0.5 0.234375q0.203125 0.171875 0.328125 0.421875q0.125 0.234375 0.125 0.5625l1.28125 0.015625q0 -0.59375 -0.21875 -1.046875q-0.21875 -0.453125 -0.59375 -0.75q-0.390625 -0.3125 -0.890625 -0.46875q-0.5 -0.15625 -1.046875 -0.171875q-0.46875 0 -0.9375 0.109375q-0.46875 0.109375 -0.921875 0.328125q-0.515625 0.25 -0.90625 0.75q-0.390625 0.484375 -0.40625 1.140625q-0.015625 0.53125 0.21875 0.90625q0.234375 0.375 0.625 0.625q0.34375 0.21875 0.734375 0.375q0.40625 0.140625 0.796875 0.25q0.234375 0.046875 0.484375 0.109375q0.265625 0.0625 0.53125 0.171875q0.171875 0.0625 0.3125 0.15625q0.140625 0.078125 0.265625 0.203125q0.109375 0.125 0.15625 0.296875q0.0625 0.15625 0.046875 0.359375zm13.344543 -5.640625l-0.203125 1.15625l2.5625 0l-0.953125 5.453125l-2.546875 0l-0.203125 1.140625l6.296875 0l0.203125 -1.140625l-2.453125 0l1.15625 -6.609375l-3.859375 0zm2.75 -2.0q0 0.34375 0.21875 0.546875q0.21875 0.203125 0.546875 0.1875q0.34375 -0.015625 0.5625 -0.21875q0.21875 -0.21875 0.21875 -0.5625q0 -0.34375 -0.21875 -0.5625q-0.21875 -0.21875 -0.546875 -0.203125q-0.34375 0.015625 -0.5625 0.25q-0.21875 0.21875 -0.21875 0.5625zm9.711304 7.640625q-0.0625 0.34375 -0.265625 0.578125q-0.203125 0.21875 -0.484375 0.34375q-0.28125 0.140625 -0.609375 0.203125q-0.328125 0.046875 -0.609375 0.046875q-0.34375 0 -0.65625 -0.078125q-0.3125 -0.09375 -0.53125 -0.28125q-0.234375 -0.171875 -0.375 -0.4375q-0.125 -0.28125 -0.140625 -0.65625l-1.28125 0q-0.015625 0.625 0.21875 1.09375q0.25 0.46875 0.671875 0.78125q0.421875 0.328125 0.953125 0.5q0.53125 0.15625 1.09375 0.15625q0.546875 0.015625 1.109375 -0.125q0.578125 -0.125 1.0625 -0.40625q0.46875 -0.28125 0.78125 -0.734375q0.3125 -0.453125 0.34375 -1.078125q0.015625 -0.359375 -0.09375 -0.65625q-0.109375 -0.296875 -0.296875 -0.515625q-0.1875 -0.21875 -0.46875 -0.390625q-0.265625 -0.171875 -0.5625 -0.296875q-0.296875 -0.125 -0.625 -0.21875q-0.3125 -0.09375 -0.59375 -0.171875q-0.234375 -0.046875 -0.53125 -0.109375q-0.28125 -0.078125 -0.515625 -0.203125q-0.234375 -0.125 -0.390625 -0.328125q-0.140625 -0.203125 -0.09375 -0.53125q0.046875 -0.3125 0.234375 -0.53125q0.1875 -0.234375 0.453125 -0.375q0.265625 -0.140625 0.5625 -0.203125q0.296875 -0.0625 0.59375 -0.0625q0.296875 0.015625 0.5625 0.109375q0.28125 0.078125 0.5 0.234375q0.203125 0.171875 0.328125 0.421875q0.125 0.234375 0.125 0.5625l1.28125 0.015625q0 -0.59375 -0.21875 -1.046875q-0.21875 -0.453125 -0.59375 -0.75q-0.390625 -0.3125 -0.890625 -0.46875q-0.5 -0.15625 -1.046875 -0.171875q-0.46875 0 -0.9375 0.109375q-0.46875 0.109375 -0.921875 0.328125q-0.515625 0.25 -0.90625 0.75q-0.390625 0.484375 -0.40625 1.140625q-0.015625 0.53125 0.21875 0.90625q0.234375 0.375 0.625 0.625q0.34375 0.21875 0.734375 0.375q0.40625 0.140625 0.796875 0.25q0.234375 0.046875 0.484375 0.109375q0.265625 0.0625 0.53125 0.171875q0.171875 0.0625 0.3125 0.15625q0.140625 0.078125 0.265625 0.203125q0.109375 0.125 0.15625 0.296875q0.0625 0.15625 0.046875 0.359375zm17.203918 0q-0.0625 0.34375 -0.265625 0.578125q-0.203125 0.21875 -0.484375 0.34375q-0.28125 0.140625 -0.609375 0.203125q-0.328125 0.046875 -0.609375 0.046875q-0.34375 0 -0.65625 -0.078125q-0.3125 -0.09375 -0.53125 -0.28125q-0.234375 -0.171875 -0.375 -0.4375q-0.125 -0.28125 -0.140625 -0.65625l-1.28125 0q-0.015625 0.625 0.21875 1.09375q0.25 0.46875 0.671875 0.78125q0.421875 0.328125 0.953125 0.5q0.53125 0.15625 1.09375 0.15625q0.546875 0.015625 1.109375 -0.125q0.578125 -0.125 1.0625 -0.40625q0.46875 -0.28125 0.78125 -0.734375q0.3125 -0.453125 0.34375 -1.078125q0.015625 -0.359375 -0.09375 -0.65625q-0.109375 -0.296875 -0.296875 -0.515625q-0.1875 -0.21875 -0.46875 -0.390625q-0.265625 -0.171875 -0.5625 -0.296875q-0.296875 -0.125 -0.625 -0.21875q-0.3125 -0.09375 -0.59375 -0.171875q-0.234375 -0.046875 -0.53125 -0.109375q-0.28125 -0.078125 -0.515625 -0.203125q-0.234375 -0.125 -0.390625 -0.328125q-0.140625 -0.203125 -0.09375 -0.53125q0.046875 -0.3125 0.234375 -0.53125q0.1875 -0.234375 0.453125 -0.375q0.265625 -0.140625 0.5625 -0.203125q0.296875 -0.0625 0.59375 -0.0625q0.296875 0.015625 0.5625 0.109375q0.28125 0.078125 0.5 0.234375q0.203125 0.171875 0.328125 0.421875q0.125 0.234375 0.125 0.5625l1.28125 0.015625q0 -0.59375 -0.21875 -1.046875q-0.21875 -0.453125 -0.59375 -0.75q-0.390625 -0.3125 -0.890625 -0.46875q-0.5 -0.15625 -1.046875 -0.171875q-0.46875 0 -0.9375 0.109375q-0.46875 0.109375 -0.921875 0.328125q-0.515625 0.25 -0.90625 0.75q-0.390625 0.484375 -0.40625 1.140625q-0.015625 0.53125 0.21875 0.90625q0.234375 0.375 0.625 0.625q0.34375 0.21875 0.734375 0.375q0.40625 0.140625 0.796875 0.25q0.234375 0.046875 0.484375 0.109375q0.265625 0.0625 0.53125 0.171875q0.171875 0.0625 0.3125 0.15625q0.140625 0.078125 0.265625 0.203125q0.109375 0.125 0.15625 0.296875q0.0625 0.15625 0.046875 0.359375zm7.9301147 -7.515625l-1.3125 0l-0.328125 1.875l-1.96875 0l-0.171875 1.03125l1.96875 0l-0.703125 4.203125q-0.046875 0.53125 0.046875 1.015625q0.09375 0.46875 0.328125 0.828125q0.25 0.359375 0.640625 0.578125q0.40625 0.21875 0.984375 0.234375q0.515625 0.015625 1.0625 -0.0625q0.546875 -0.078125 1.0 -0.328125l-0.125 -0.953125q-0.390625 0.078125 -0.78125 0.15625q-0.375 0.0625 -0.78125 0.046875q-0.34375 0 -0.5625 -0.125q-0.21875 -0.125 -0.34375 -0.328125q-0.125 -0.1875 -0.171875 -0.453125q-0.03125 -0.28125 0 -0.59375l0.703125 -4.21875l2.859375 0l0.1875 -1.03125l-2.859375 0l0.328125 -1.875zm5.4144287 1.875l-0.203125 1.15625l2.5625 0l-0.953125 5.453125l-2.546875 0l-0.203125 1.140625l6.296875 0l0.203125 -1.140625l-2.453125 0l1.15625 -6.609375l-3.859375 0zm2.75 -2.0q0 0.34375 0.21875 0.546875q0.21875 0.203125 0.546875 0.1875q0.34375 -0.015625 0.5625 -0.21875q0.21875 -0.21875 0.21875 -0.5625q0 -0.34375 -0.21875 -0.5625q-0.21875 -0.21875 -0.546875 -0.203125q-0.34375 0.015625 -0.5625 0.25q-0.21875 0.21875 -0.21875 0.5625zm6.4144897 -1.25l-0.203125 1.15625l2.5625 0l-1.515625 8.703125l-2.546875 0l-0.203125 1.140625l6.296875 0l0.203125 -1.140625l-2.453125 0l1.71875 -9.859375l-3.859375 0zm8.601929 0l-0.203125 1.15625l2.5625 0l-1.515625 8.703125l-2.546875 0l-0.203125 1.140625l6.296875 0l0.203125 -1.140625l-2.453125 0l1.71875 -9.859375l-3.859375 0zm22.157043 7.0l0.390625 -2.421875q0.03125 -0.265625 0.046875 -0.546875q0.015625 -0.296875 0 -0.53125q-0.015625 -0.5 -0.15625 -1.015625q-0.125 -0.515625 -0.390625 -0.921875q-0.296875 -0.5 -0.84375 -0.796875q-0.53125 -0.3125 -1.3125 -0.328125q-0.609375 -0.015625 -1.109375 0.140625q-0.5 0.140625 -0.90625 0.421875q-0.40625 0.28125 -0.71875 0.6875q-0.3125 0.390625 -0.546875 0.859375q-0.234375 0.453125 -0.390625 0.984375q-0.140625 0.515625 -0.21875 1.046875l-0.390625 2.4375q-0.0625 0.484375 -0.046875 0.984375q0.015625 0.5 0.125 0.953125q0.09375 0.453125 0.296875 0.84375q0.203125 0.390625 0.53125 0.6875q0.3125 0.296875 0.75 0.46875q0.4375 0.171875 1.015625 0.1875q0.46875 0.015625 0.875 -0.078125q0.421875 -0.09375 0.765625 -0.265625q0.546875 -0.28125 0.953125 -0.75q0.40625 -0.46875 0.671875 -1.015625q0.234375 -0.46875 0.375 -0.984375q0.15625 -0.515625 0.234375 -1.046875zm-2.328125 -5.484375q0.453125 0.015625 0.75 0.1875q0.3125 0.171875 0.5 0.453125q0.1875 0.296875 0.25 0.671875q0.078125 0.359375 0.0625 0.765625l-4.453125 3.09375q0.03125 -0.109375 0.046875 -0.203125q0.015625 -0.09375 0.046875 -0.296875l0.3125 -1.90625q0.046875 -0.34375 0.125 -0.671875q0.09375 -0.328125 0.234375 -0.625q0.140625 -0.328125 0.328125 -0.59375q0.203125 -0.265625 0.453125 -0.46875q0.25 -0.203125 0.578125 -0.3125q0.34375 -0.109375 0.765625 -0.09375zm-1.484375 8.546875q-0.453125 0 -0.765625 -0.171875q-0.296875 -0.171875 -0.46875 -0.453125q-0.1875 -0.28125 -0.265625 -0.640625q-0.078125 -0.375 -0.078125 -0.78125l4.4375 -3.0625q-0.046875 0.28125 -0.078125 0.4375q-0.015625 0.15625 -0.0625 0.375l-0.25 1.53125q-0.046875 0.3125 -0.125 0.640625q-0.078125 0.328125 -0.203125 0.609375q-0.15625 0.375 -0.40625 0.703125q-0.234375 0.3125 -0.5625 0.53125q-0.234375 0.140625 -0.53125 0.21875q-0.296875 0.078125 -0.640625 0.0625zm9.53949 -2.4375l1.21875 -7.046875l-1.296875 0l-1.234375 7.046875l1.3125 0zm-1.890625 2.703125q0 0.171875 0.0625 0.3125q0.0625 0.140625 0.171875 0.25q0.09375 0.09375 0.234375 0.140625q0.15625 0.0625 0.328125 0.046875q0.171875 0 0.3125 -0.0625q0.15625 -0.0625 0.265625 -0.171875q0.109375 -0.109375 0.15625 -0.25q0.0625 -0.140625 0.0625 -0.3125q0 -0.171875 -0.0625 -0.3125q-0.046875 -0.15625 -0.15625 -0.25q-0.109375 -0.109375 -0.265625 -0.171875q-0.140625 -0.0625 -0.3125 -0.046875q-0.171875 0 -0.3125 0.0625q-0.140625 0.0625 -0.25 0.15625q-0.109375 0.109375 -0.171875 0.265625q-0.0625 0.15625 -0.0625 0.34375z" fill-rule="nonzero"/></g></svg>